<svg id="Capa_1" data-name="Capa 1" xmlns="http://www.w3.org/2000/svg" viewBox="0 0 200 200"><defs><style>.cls-1{fill:#8004e2;}</style></defs><path class="cls-1" d="M100.1,28.2h79.24c13.19,0,20.65,7.39,20.65,20.46q0,51.33,0,102.67c0,12.9-7.47,20.45-20.27,20.45q-79.64,0-159.26,0C7.54,171.79,0,164.33,0,151.52Q0,100,0,48.46C0,35.67,7.55,28.21,20.47,28.21Q60.3,28.18,100.1,28.2Zm.1,11.74H20.91c-7,0-9.17,2.1-9.17,9q0,51.17,0,102.33c0,6.62,2.22,8.8,9,8.8H179.28c6.76,0,9-2.18,9-8.8q0-51.16,0-102.33c0-6.89-2.15-9-9.17-9Z"/><path class="cls-1" d="M46,114.42c-7.36-11.6-6.59-22.69,1.86-30.34A21.53,21.53,0,0,1,75.49,83c9.54,7.41,10.69,17.8,3.39,31.53,6.82,4.75,11.71,11,13.54,19.24a33.16,33.16,0,0,1,.76,5.78c.21,4.72-1.94,7.17-6.62,7.2q-24.21.12-48.4,0c-4.88,0-7.2-2.86-6.75-7.93C32.33,128.39,37.25,120.34,46,114.42Zm34.14,20.37c-2-8.39-10.25-13.78-19.64-13.06-7.81.6-15.23,6.78-15.65,13.06ZM72.07,99.94a9.7,9.7,0,0,0-9.59-9.74,9.8,9.8,0,1,0-.28,19.6A9.72,9.72,0,0,0,72.07,99.94Z"/><path class="cls-1" d="M99.83,65c-20.29,0-40.59.08-60.88-.11a9.73,9.73,0,0,1-6.41-2.58c-2.69-2.87-.86-7.44,3.1-8.61a16.55,16.55,0,0,1,4.62-.42q59.72,0,119.43,0c.78,0,1.56,0,2.34,0,4.06.23,6.77,2.78,6.6,6.19S165.89,65,161.88,65Q130.86,65,99.83,65Z"/><path class="cls-1" d="M140.86,96.4c-6.89,0-13.78,0-20.67,0-4.68,0-7.15-2.13-7.12-5.85s2.57-5.83,7.2-5.85q20.47-.09,40.94,0c4.57,0,7.31,2.23,7.42,5.74s-2.71,6-7.49,6C154.38,96.43,147.62,96.4,140.86,96.4Z"/><path class="cls-1" d="M140.81,121.63H122.09a29.49,29.49,0,0,1-3.12-.05c-3.73-.37-6-2.64-5.9-6s2.27-5.65,6.09-5.67q21.65-.12,43.28,0c3.65,0,6.14,2.49,6.19,5.66s-2.52,5.89-6.38,6c-7.15.15-14.3,0-21.44,0Z"/><path class="cls-1" d="M134.58,135c4.93,0,9.86-.05,14.8,0,4,0,6.54,2.22,6.7,5.53s-2.57,6.1-6.61,6.14q-15,.17-30,0c-4,0-6.39-2.44-6.42-5.85,0-3.6,2.41-5.78,6.72-5.83C124.71,135,129.64,135,134.58,135Z"/></svg>