<svg id="Capa_1" data-name="Capa 1" xmlns="http://www.w3.org/2000/svg" viewBox="0 0 200 200"><defs><style>.cls-1{fill:#8004e2;}</style></defs><path class="cls-1" d="M85,12.73q-16.15,0-32.32,0c-2.14,0-4.2.27-4.28,3s1.94,3.48,4.3,3.48H85.05c2.36,0,4.44-.68,4.32-3.48C89.26,13.12,87.21,12.73,85,12.73Z"/><path class="cls-1" d="M183.62,98.72a16.65,16.65,0,0,0-3.08-1.52A21.63,21.63,0,0,0,173,96H128.68q0-37.31,0-74.61c0-13.24-8-21.16-21.2-21.16C82.12.16,56.75.55,31.41,0,19.5-.25,8.66,7.33,9,22.6c.55,25.62.15,51.25.15,76.88q0,39.24,0,78.48c0,13.44,7.69,21.09,21.11,21.11l30.75,0h0c.46.13.94.26,1.43.36l.24.05c.44.09.88.17,1.33.24l.67.08c.35,0,.69.08,1,.1.62.05,1.25.08,1.9.08h52.26q26.55,0,53.1,0a21.63,21.63,0,0,0,7.54-1.25,16.53,16.53,0,0,0,1.61-.68,15.1,15.1,0,0,0,4.06-2.91,15.6,15.6,0,0,0,3.57-5.7,22.21,22.21,0,0,0,1.24-7.59q0-33.88,0-67.76C191,107.05,188.35,101.73,183.62,98.72ZM121.81,145.4l-.14.1c-.1.06-.19.13-.29.18a1.29,1.29,0,0,1-.16.09l-.26.14-.18.06-.25.08a1.23,1.23,0,0,1-.2,0,1,1,0,0,1-.25,0l-.24,0-.24,0c-.1,0-.21-.09-.31-.13l-.22-.09a4.66,4.66,0,0,1-.55-.36l0,0Q101.92,133,85.26,120.62L68.62,108.25c-.29-.22-.53-.49-1.22-1.12H172.92l-.69.59c-.41.36-.76.67-1.1,1-.17.14-.34.28-.51.4q-24.17,18-48.34,36l0,0h0ZM28.07,192.56c-7.6,0-12.4-5.31-12.44-13.25-.1-16.29,0-32.57,0-48.86V31.58h91.26c.8,0,1.6,0,2.4,0,2.47-.08,5.73.54,5.71-3.19s-3.21-3.25-5.73-3.25q-44.25,0-88.49,0H16.12C14,13.11,19.33,6.6,30.89,6.6q38.65,0,77.29,0c8.74,0,14,5.2,14,13.91q0,37.73,0,75.43H67.36a20.53,20.53,0,0,0-9.15,1.94c-5.65,2.78-8.87,8.45-8.87,16.2q0,22.35,0,44.7H30.44c-1.2,0-2.67-.36-3.53.2-1.16.73-2.43,2.15-2.53,3.37-.08.86,1.57,2.18,2.72,2.73,1,.46,2.36.14,3.56.14H49.34v16.62h0c0,.64,0,1.26.07,1.87,0,.18,0,.37.05.55,0,.43.09.86.15,1.28l.09.55c.09.5.19,1,.31,1.46,0,.07,0,.15,0,.22.14.52.3,1,.48,1.51.06.18.13.35.2.53s.26.64.4,1,.17.36.26.53c.17.35.36.69.56,1,.07.1.12.21.19.32h0a14.27,14.27,0,0,0,.85,1.19,14.27,14.27,0,0,1-.85-1.19Q40.11,192.61,28.07,192.56Zm25.37,1.8c.17.2.35.4.53.58A7.29,7.29,0,0,1,53.44,194.36Zm2.33,2.17.32.22Zm-1.2-1c.15.14.3.28.46.41C54.87,195.8,54.72,195.66,54.57,195.52Zm121.51-7a13.84,13.84,0,0,1-3.48.37H67.78l-.92,0-.28,0-.56,0-.32,0-.46-.07-.32-.05a2.59,2.59,0,0,1-.4-.09l-.29-.06-.45-.15-.41-.16-.27-.12-.28-.16-.21-.13a2.48,2.48,0,0,1-.26-.19l-.17-.14-.24-.23a.69.69,0,0,1-.11-.13,4.42,4.42,0,0,1-.71-1.1l0-.11a4.09,4.09,0,0,1-.16-.42.88.88,0,0,0,0-.15c0-.15-.09-.3-.13-.46l0-.14c0-.17-.07-.35-.1-.53h0a15.77,15.77,0,0,1-.18-2.52V165.23h0v-6.44h0v-11.2q0-14.21,0-28.4V116l.52.38c1.15.84,2,1.43,2.79,2q27,20.1,54,40.25l.3.22c1.59,1.19,2.62,1.24,4.24,0l6.48-4.83q23.81-17.81,47.67-35.52l.17-.12,2.27-1.66.91-.67c0,.33,0,.63.05.91,0,.56.07,1,.09,1.48,0,.23,0,.44,0,.66q0,31.26,0,62.51a18.23,18.23,0,0,1-.09,1.88,8.45,8.45,0,0,1-.5,2.22,5.3,5.3,0,0,1-.27.59,4.08,4.08,0,0,1-1.2,1.37A5.37,5.37,0,0,1,176.08,188.55Z"/></svg>