<?xml version="1.0" encoding="utf-8"?>
<!-- Generator: Adobe Illustrator 26.3.1, SVG Export Plug-In . SVG Version: 6.00 Build 0)  -->
<svg version="1.1" id="Capa_1" xmlns="http://www.w3.org/2000/svg" xmlns:xlink="http://www.w3.org/1999/xlink" x="0px" y="0px"
	 viewBox="0 0 400 400" style="enable-background:new 0 0 400 400;" xml:space="preserve">
<style type="text/css">
	.st0{fill:#130364;}
	.st1{fill:#8004E2;}
	
		.st2{clip-path:url(#SVGID_00000023238942559761209220000001131625637647898555_);fill:url(#SVGID_00000146471171093994945750000014391104064387787710_);}
	
		.st3{clip-path:url(#SVGID_00000060723293194767940590000001873910586968013753_);fill:url(#SVGID_00000112633232258152068560000013097161910064029359_);}
	
		.st4{clip-path:url(#SVGID_00000034084356662116687010000013492326528342536602_);fill:url(#SVGID_00000021837088651671656100000004219408996645672121_);}
	.st5{opacity:0.2;}
	.st6{fill:#FFFFFF;}
	.st7{clip-path:url(#SVGID_00000075879164090968472920000014418870255247778211_);fill:#FFFFFF;}
	.st8{clip-path:url(#SVGID_00000135678955762306582090000003766579112409828737_);fill:#FFFFFF;}
	.st9{clip-path:url(#SVGID_00000169527875103923476500000010098083169305958313_);fill:#FFFFFF;}
	.st10{clip-path:url(#SVGID_00000047769614797887293330000012484963778172443524_);}
	.st11{fill:none;stroke:#FFFFFF;stroke-miterlimit:10;}
	.st12{fill:#C7C7C7;}
	.st13{fill:#949494;}
	.st14{opacity:0.24;}
	.st15{clip-path:url(#SVGID_00000052086666627172766220000003762277402474843808_);fill:none;stroke:#C85CE1;stroke-miterlimit:10;}
	.st16{fill:none;stroke:#655F62;stroke-miterlimit:10;}
	.st17{fill:url(#SVGID_00000021114592300036798770000007174441895467706024_);}
	.st18{fill:#BDD0FB;}
	.st19{fill:url(#SVGID_00000136371566337948950860000004448517349540864428_);}
	.st20{fill:#91B3FA;}
	.st21{opacity:0.5;fill:#FFFFFF;}
	.st22{fill:url(#SVGID_00000109005914824773788850000003267917347464092302_);}
	.st23{opacity:0.78;fill:#FFFFFF;}
	.st24{fill:url(#SVGID_00000180357345028793245380000001768259107020433330_);}
	.st25{fill:url(#SVGID_00000026133361614027163380000016424489551057188509_);}
	.st26{opacity:0.6;}
	.st27{opacity:0.6;fill:#FFFFFF;}
	.st28{fill:url(#SVGID_00000150087794759684581170000013528897128795842238_);}
	.st29{fill:url(#SVGID_00000139267163172687804850000002856338686593207183_);}
	.st30{fill:url(#SVGID_00000154388404276632334950000009879428108173809330_);}
	.st31{fill:url(#SVGID_00000105425621077109792950000001281843671631144626_);}
	.st32{fill:url(#SVGID_00000183222764112453107040000001800098187537394843_);}
	.st33{fill:url(#SVGID_00000016036392272516338260000003148215347928962194_);}
	.st34{fill:#7D97F4;}
	.st35{fill:url(#SVGID_00000167375102934201050060000010387795701639828414_);}
	.st36{fill:url(#SVGID_00000169546151549536445470000012551775031883702411_);}
	.st37{fill:url(#SVGID_00000088112740298834547410000012950109320974354578_);}
	.st38{fill:url(#SVGID_00000094591095229882519360000006075573402966269359_);}
	.st39{fill:url(#SVGID_00000095298849064067841960000013923241780357670044_);}
	.st40{fill:url(#SVGID_00000138560991304385054310000000774695407086864307_);}
	.st41{fill:url(#SVGID_00000023986384671569679870000016096973130005302683_);}
	.st42{fill:url(#SVGID_00000160155397091241436790000006180071807451909248_);}
	.st43{fill:url(#SVGID_00000080184396033108984500000004572364495873387675_);}
	.st44{filter:url(#Adobe_OpacityMaskFilter);}
	.st45{filter:url(#Adobe_OpacityMaskFilter_00000085963148279995623280000009821027982738614167_);}
	
		.st46{mask:url(#SVGID_00000000916240172748066350000007206684701046652341_);fill:url(#SVGID_00000083811722994862804060000017844162350830864550_);}
	.st47{fill:url(#SVGID_00000027577777417789664910000015880202268223541178_);}
	.st48{fill:url(#SVGID_00000128467789096211040980000010295875367090979517_);}
	.st49{fill:url(#SVGID_00000124160392594119395180000007457051404556029320_);}
	.st50{fill:url(#SVGID_00000144337417972620939720000006066408569805017517_);}
	.st51{fill:url(#SVGID_00000098905508724410548390000010462919761492471682_);}
	.st52{fill:url(#SVGID_00000163793921759093464380000003684434205406484142_);}
	.st53{fill:url(#SVGID_00000127029225576923301950000008661673643954182565_);}
	.st54{fill:url(#SVGID_00000057116282953865574760000012277431001548885419_);}
	.st55{fill:url(#SVGID_00000098912840155594555400000006650202102100789646_);}
	.st56{fill:url(#SVGID_00000181792868806259787900000011408352495949872530_);}
	.st57{fill:url(#SVGID_00000011738442408880771450000011376101393546431373_);}
	.st58{fill:url(#SVGID_00000081614623279172010320000011771061443894723740_);}
	.st59{fill:url(#SVGID_00000064348319829376672450000016149993779434512796_);}
	.st60{fill:url(#SVGID_00000094589619148432417660000009940756924096534953_);}
	.st61{fill:url(#SVGID_00000160167616523030282210000014214793857566677389_);}
	.st62{fill:url(#SVGID_00000167379057708008599260000007764204453927864455_);}
	.st63{fill:url(#SVGID_00000098922933273557433640000013746704660613337489_);}
	.st64{fill:url(#SVGID_00000151538367340202744250000002101844517527313064_);}
	.st65{fill:url(#SVGID_00000129916278780348349740000000615777433569927052_);}
	.st66{fill:#E0E0E0;}
	.st67{fill:#C184F1;}
	.st68{fill:url(#SVGID_00000111872853966733776500000005156298613211623848_);}
	.st69{opacity:0.4;fill:#FFFFFF;}
	.st70{fill:url(#SVGID_00000148657815307114444780000016382826697709490600_);}
	.st71{filter:url(#Adobe_OpacityMaskFilter_00000182524906507428524850000006381329755096069010_);}
	.st72{filter:url(#Adobe_OpacityMaskFilter_00000116209241304774859410000015954449056334503835_);}
	
		.st73{mask:url(#SVGID_00000002345431585279243090000017658145612903559309_);fill:url(#SVGID_00000022548027090590802420000013331727284302627209_);}
	.st74{fill:url(#SVGID_00000046324888505084516640000011392531321613596858_);}
	.st75{fill:url(#SVGID_00000129173638567864255740000011158906081229415097_);}
	.st76{fill:url(#SVGID_00000142862783542190777530000011455702625739478440_);}
	.st77{fill:url(#SVGID_00000103266005107679600160000016986953595634025619_);}
	.st78{fill:url(#SVGID_00000074430979130420358270000003661471471681773464_);}
	.st79{fill:url(#SVGID_00000120557702460605360650000005413013917556218270_);}
	.st80{fill:url(#SVGID_00000030479865359762569710000013729447646307341992_);}
	.st81{fill:url(#SVGID_00000088825520419260750240000017291601394300013717_);}
	.st82{fill:url(#SVGID_00000090987193209666246630000000578293149508224160_);}
	.st83{fill:url(#SVGID_00000178890981752915212770000003270821571687810184_);}
	.st84{fill:url(#SVGID_00000083777528994198052320000005996519334567383452_);}
	.st85{fill:url(#SVGID_00000158031050820703163470000013894463836067588286_);}
	.st86{fill:url(#SVGID_00000165196512441685232550000009318627806617326257_);}
	.st87{fill:url(#SVGID_00000002362503735340126160000008090565179600420522_);}
	.st88{fill:url(#SVGID_00000065795342135606140410000004766689532181597827_);}
	.st89{fill:url(#SVGID_00000044860615020028018310000004041086994646935436_);}
	.st90{fill:url(#SVGID_00000088092190533515479550000016992950881844997799_);}
	.st91{fill:url(#SVGID_00000013167367907084434460000001165955353668824233_);}
	.st92{fill:url(#SVGID_00000182527541380402538200000016250289915533384849_);}
</style>
<g>
	<path class="st66" d="M332.4,329.09c-64.94,68.53-164.68,48.25-179.43,45c-18.57-4.1-62.77-13.87-95.75-52.42
		c-50.49-59.03-45.39-151.27-6.4-213.47c11.35-18.1,49.53-71.88,121.23-83.57c4.19-0.68,79.07-11.66,139.31,38.89
		c8.12,6.82,21.23,19.16,32.72,37.13C379.74,156.39,396.61,261.33,332.4,329.09z"/>
	<g>
		<g>
			<path class="st67" d="M259.46,147.24c-4.02,14.56-10.78,33.56-17.73,49.73l-2.5-0.44c8.73-19.46,18.38-46.51,22.64-78.9
				c4.3-32.66,3.28-73.42,21.39-89.61c15.07-13.48,67.77-6.62,85.02-3.94c2.16,0.33,2.95,3.03,1.32,4.47
				c-8.05,7.13-25.23,23.91-29.38,40.47c-5.47,21.83-25.71,36.15-44.05,40.37C277.82,113.62,267.66,117.51,259.46,147.24z"/>
			
				<linearGradient id="SVGID_00000095317809799159253480000001925430105684805563_" gradientUnits="userSpaceOnUse" x1="492.2986" y1="-378.3904" x2="557.0608" y2="-378.3904" gradientTransform="matrix(0.9849 0.1733 -0.1733 0.9849 -278.5241 362.189)">
				<stop  offset="0" style="stop-color:#DAE3FE"/>
				<stop  offset="1" style="stop-color:#E9EFFD"/>
			</linearGradient>
			<path style="fill:url(#SVGID_00000095317809799159253480000001925430105684805563_);" d="M344.38,33.97
				c-11.05,0.82-21.9,3.89-31.81,8.96c-4.96,2.52-9.62,5.69-13.8,9.4c-4.15,3.74-7.85,8.05-10.73,12.87l-1.07,1.81
				c-0.35,0.61-0.65,1.24-0.98,1.86c-0.31,0.63-0.65,1.25-0.94,1.88l-0.87,1.87c-1.16,2.49-2.31,4.99-3.44,7.51
				c-2.26,5.02-4.44,10.08-6.53,15.17c-4.2,10.18-8.09,20.48-11.35,31.02c-0.08,0.25,0.06,0.52,0.32,0.6
				c0.24,0.08,0.5-0.05,0.59-0.29l0.01-0.01c1.9-5.14,3.9-10.25,6-15.32c2.07-5.08,4.21-10.13,6.4-15.16l3.31-7.53l3.39-7.5
				c1.13-2.5,2.28-4.99,3.45-7.47l0.87-1.86c0.29-0.62,0.61-1.2,0.91-1.81c0.31-0.6,0.59-1.21,0.93-1.79l1.02-1.74
				c2.73-4.64,6.28-8.76,10.21-12.44c2.01-1.8,4.09-3.53,6.32-5.06l0.83-0.59l0.85-0.56c0.57-0.37,1.13-0.75,1.7-1.11
				c1.16-0.7,2.31-1.41,3.51-2.04c4.75-2.63,9.82-4.67,15.01-6.34c5.19-1.66,10.55-2.89,15.95-3.55l0.02,0
				c0.21-0.03,0.36-0.22,0.34-0.43C344.76,34.1,344.58,33.95,344.38,33.97z"/>
		</g>
		<g>
			<path class="st67" d="M288.87,155.45c-2.81,17.59,1.86,24.5,4.55,30.94c0.48,1.14,1.16,2.76,1.91,4.69l-2.48,1.16
				c-0.7-2.81-1.56-5.57-2.63-8.17c-7.31-17.85-17.37-49.47-10.7-74.34c6.67-24.87,22.37-34.24,50.73-27.81
				c23.63,5.36,37.62,7.1,44.54,5.39c1.71-0.42,3.34,0.97,3.24,2.73c-0.55,9.38-3.95,31.93-23.78,39.78
				C328.97,139.84,291.68,137.86,288.87,155.45z"/>
			<path class="st21" d="M333.3,106.68c-1.97-0.66-3.95-1.14-5.97-1.57c-2.01-0.42-4.05-0.77-6.1-1c-4.1-0.47-8.27-0.55-12.43-0.01
				c-2.07,0.28-4.14,0.71-6.15,1.36c-2.01,0.66-3.97,1.55-5.78,2.69c-0.44,0.3-0.91,0.58-1.33,0.91c-0.42,0.33-0.86,0.65-1.26,1
				l-2.31,2.11l-2.17,2.28l-1.99,2.44c-2.53,3.36-4.45,7.19-5.66,11.2c-1.23,4.02-1.7,8.2-1.77,12.34l-0.02,1.55
				c-0.02,0.52,0.04,1.03,0.06,1.55c0.06,1.03,0.08,2.06,0.17,3.09l0.33,3.07c0.09,1.03,0.31,2.03,0.47,3.05
				c0.65,4.06,1.65,8.03,2.76,11.97c0.06,0.22,0.29,0.35,0.51,0.29c0.21-0.06,0.34-0.27,0.29-0.48l0-0.01
				c-0.81-3.98-1.67-7.95-2.1-11.97c-0.28-2-0.39-4.02-0.56-6.02c-0.05-1-0.05-2.01-0.08-3.01c0-0.5-0.04-1-0.01-1.51l0.07-1.5
				c0.17-4,0.78-7.97,1.98-11.74c1.19-3.78,3.06-7.3,5.44-10.45l1.88-2.29l2.06-2.14l2.21-2c0.37-0.32,0.75-0.6,1.13-0.9
				c0.38-0.3,0.79-0.54,1.19-0.82c1.62-1.04,3.4-1.86,5.25-2.48c1.85-0.64,3.78-1.09,5.73-1.4c3.92-0.62,7.95-0.68,11.96-0.44
				c2.01,0.14,4.02,0.32,6.02,0.6c2,0.29,4,0.64,5.96,1.07l0.01,0c0.23,0.05,0.46-0.09,0.51-0.33
				C333.64,106.96,333.51,106.75,333.3,106.68z"/>
		</g>
	</g>
	<g>
		<path class="st1" d="M37.36,83.91c0-12.36,10.02-22.38,22.38-22.38h190.3c10.5,0,19.16,8.23,19.69,18.71l14.05,275.89
			c0.42,8.2-6.04,15.13-14.26,15.27l-218.1,3.96c-7.72,0.14-14.05-6.08-14.05-13.8V83.91z"/>
		<g>
			<path class="st67" d="M52.95,65.78c-0.02-3.95,3.45-7.01,7.37-6.48c25.99,3.52,115.35,14.42,189.23,8.75
				c3.37-0.26,6.29,2.29,6.47,5.67l14.73,277.12c0.2,3.8-2.7,7.05-6.5,7.27c-31.07,1.84-159.04,8.95-204.69,4.17
				c-2.78-0.29-4.89-2.63-4.9-5.42L52.95,65.78z"/>
			<path class="st69" d="M56.01,72.72c-0.02-3.81,3.32-6.75,7.09-6.24c25.01,3.39,111,13.88,182.1,8.42
				c3.24-0.25,6.06,2.21,6.23,5.46l14.17,266.69c0.19,3.66-2.6,6.78-6.25,7c-29.9,1.77-153.06,8.61-196.98,4.01
				c-2.67-0.28-4.7-2.53-4.72-5.22L56.01,72.72z"/>
			<path class="st23" d="M79.16,93.28l2.66,57.18c0.09,1.9,1.62,3.41,3.53,3.47c10.59,0.3,43.58,1.1,62.21,0.13
				c2.11-0.11,3.77-1.81,3.84-3.92c0.36-10.72,1.13-41.93-1.31-54.98c-0.39-2.11-2.21-3.65-4.35-3.73l-62.59-2.19
				C80.9,89.16,79.06,91.03,79.16,93.28z"/>
			
				<ellipse transform="matrix(0.2757 -0.9612 0.9612 0.2757 -25.8916 193.0836)" class="st1" cx="115.18" cy="113.72" rx="12.29" ry="12.29"/>
			<path class="st1" d="M96.51,149.81h39.16c2.4,0,3.84-2.65,2.55-4.67c-3.33-5.2-10.28-12.85-22.34-12.51
				c-11.62,0.33-18.5,7.24-21.96,12.19C92.44,146.92,93.94,149.81,96.51,149.81z"/>
			<g class="st26">
				<path class="st6" d="M237.41,98.26c0.31,0,0.56-0.26,0.55-0.57l-0.08-2.7c-0.01-0.31-0.27-0.57-0.59-0.58l-71.95-1.28
					c-0.31-0.01-0.48,0.23-0.38,0.53l1.43,4.06c0.1,0.3,0.45,0.54,0.76,0.54H237.41z"/>
			</g>
			<g class="st26">
				<path class="st6" d="M165.34,103.79c-0.31-0.01-0.48,0.23-0.38,0.53l1.43,4.06c0.1,0.3,0.45,0.54,0.76,0.54h70.25
					c0.31,0,0.56-0.26,0.55-0.57l-0.08-2.7c-0.01-0.31-0.27-0.57-0.59-0.58L165.34,103.79z"/>
			</g>
			<g class="st26">
				<path class="st6" d="M165.34,114.6c-0.31-0.01-0.48,0.23-0.38,0.53l1.43,4.06c0.1,0.3,0.45,0.54,0.76,0.54h70.25
					c0.31,0,0.56-0.26,0.55-0.57l-0.08-2.7c-0.01-0.31-0.27-0.57-0.59-0.58L165.34,114.6z"/>
			</g>
			<g class="st26">
				<path class="st6" d="M244.07,171.88c0.31,0,0.55-0.26,0.53-0.57l-0.18-2.7c-0.02-0.31-0.29-0.57-0.61-0.57l-164.11-1.29
					c-0.31,0-0.41,0.2-0.21,0.44l3.38,4.25c0.2,0.24,0.61,0.45,0.92,0.45H244.07z"/>
			</g>
			<g class="st26">
				<path class="st6" d="M79.71,177.4c-0.31,0-0.41,0.2-0.21,0.44l3.38,4.25c0.2,0.24,0.61,0.45,0.92,0.45h160.27
					c0.31,0,0.55-0.26,0.53-0.57l-0.18-2.7c-0.02-0.31-0.29-0.57-0.61-0.57L79.71,177.4z"/>
			</g>
			<g>
				<path class="st6" d="M101.4,250.1c-0.01,0-0.02,0-0.04,0l-13.57-0.13c-1.94-0.02-3.54-1.35-3.72-3.1l-1.19-11.39
					c-0.07-0.67,0.14-1.33,0.58-1.86c0.5-0.59,1.26-0.97,2.08-1.02l0,0c1.14-0.08,2.75-0.22,4.46-0.36
					c3.59-0.31,8.06-0.69,10.57-0.72c1.82-0.01,3.37,1.07,3.8,2.66c0.71,2.61,0.64,7.56,0.51,12.83
					C104.83,248.72,103.27,250.1,101.4,250.1z M85.61,233.64c-0.54,0.04-1.03,0.28-1.35,0.66c-0.26,0.31-0.39,0.7-0.35,1.08
					l1.19,11.39c0.13,1.22,1.29,2.16,2.7,2.17l13.57,0.13c0.01,0,0.02,0,0.03,0c1.32,0,2.4-0.93,2.43-2.08
					c0.13-5.19,0.2-10.05-0.47-12.53c-0.3-1.11-1.46-1.88-2.78-1.89c-2.48,0.03-6.92,0.41-10.49,0.71
					C88.37,233.42,86.76,233.56,85.61,233.64L85.61,233.64z"/>
				<path class="st27" d="M87.07,234.81c2.85-0.19,9.05-0.82,11.99-0.86c1.25-0.02,2.34,0.74,2.63,1.82
					c0.57,2.1,0.49,6.28,0.39,10.13c-0.03,1.16-1.09,2.08-2.39,2.07l-10.84-0.1c-1.33-0.01-2.44-0.92-2.56-2.11l-0.95-9.1
					C85.23,235.72,86.01,234.89,87.07,234.81z"/>
				<g class="st26">
					<path class="st6" d="M113.32,242.54c0.39,1.49,1.75,2.52,3.29,2.51l125.56-1.07c1.42-0.01,2.56-1.18,2.53-2.6
						c-0.03-1.38-1.15-2.49-2.54-2.49l-125.56-0.57C114.37,238.3,112.75,240.4,113.32,242.54z"/>
				</g>
				<path class="st1" d="M87.64,236.6L87.64,236.6c1.01-0.59,2.3-0.24,2.87,0.78l2.68,4.8c0.27,0.48,0.97,0.45,1.19-0.05l6.64-14.78
					c0.33-0.74,1.43-0.49,1.42,0.32c-0.07,4.52-1.27,13.11-8.49,20.31c0,0-3.98-1.55-7.19-8.59
					C86.3,238.37,86.68,237.17,87.64,236.6z"/>
				<path class="st6" d="M101.4,279.19c-0.01,0-0.02,0-0.04,0l-13.57-0.13c-1.94-0.02-3.54-1.35-3.72-3.1l-1.19-11.39
					c-0.07-0.67,0.14-1.33,0.58-1.86c0.5-0.59,1.26-0.97,2.08-1.02l0,0c1.14-0.08,2.75-0.22,4.46-0.36
					c3.59-0.31,8.06-0.69,10.57-0.72c0.02,0,0.04,0,0.05,0c1.78,0,3.32,1.09,3.75,2.66c0.71,2.61,0.64,7.56,0.51,12.83
					C104.83,277.81,103.27,279.19,101.4,279.19z M85.61,262.72c-0.54,0.04-1.03,0.28-1.35,0.66c-0.26,0.31-0.39,0.7-0.35,1.08
					l1.19,11.39c0.13,1.22,1.29,2.16,2.7,2.17l13.57,0.13c0.01,0,0.02,0,0.03,0c1.32,0,2.4-0.93,2.43-2.08
					c0.13-5.19,0.2-10.05-0.47-12.53c-0.3-1.11-1.47-1.91-2.78-1.89c-2.48,0.03-6.92,0.41-10.49,0.71
					C88.37,262.51,86.76,262.65,85.61,262.72L85.61,262.72z"/>
				<path class="st27" d="M87.07,263.9c2.85-0.19,9.05-0.82,11.99-0.86c1.25-0.02,2.34,0.74,2.63,1.82
					c0.57,2.1,0.49,6.28,0.39,10.13c-0.03,1.16-1.09,2.08-2.39,2.07l-10.84-0.1c-1.33-0.01-2.44-0.92-2.56-2.11l-0.95-9.1
					C85.23,264.8,86.01,263.97,87.07,263.9z"/>
				<g class="st26">
					<path class="st6" d="M113.32,271.63c0.39,1.49,1.75,2.52,3.29,2.51l125.56-1.07c1.42-0.01,2.56-1.18,2.53-2.6
						c-0.03-1.38-1.15-2.49-2.54-2.49l-125.56-0.57C114.37,267.39,112.75,269.48,113.32,271.63z"/>
				</g>
				<path class="st1" d="M87.64,265.68L87.64,265.68c1.01-0.59,2.3-0.24,2.87,0.78l2.68,4.8c0.27,0.48,0.97,0.45,1.19-0.05
					l6.64-14.78c0.33-0.74,1.43-0.49,1.42,0.32c-0.07,4.52-1.27,13.11-8.49,20.31c0,0-3.98-1.55-7.19-8.59
					C86.3,267.46,86.68,266.25,87.64,265.68z"/>
				<path class="st6" d="M101.4,308.27c-0.01,0-0.02,0-0.04,0l-13.57-0.13c-1.94-0.02-3.54-1.35-3.72-3.1l-1.19-11.39
					c-0.07-0.67,0.14-1.33,0.58-1.86c0.5-0.59,1.26-0.97,2.08-1.02l0,0c1.14-0.08,2.75-0.22,4.46-0.36
					c3.59-0.31,8.06-0.69,10.57-0.72c0.02,0,0.04,0,0.05,0c1.78,0,3.32,1.09,3.75,2.66c0.71,2.61,0.64,7.56,0.51,12.83
					C104.83,306.89,103.27,308.27,101.4,308.27z M85.61,291.81c-0.54,0.04-1.03,0.28-1.35,0.66c-0.26,0.31-0.39,0.7-0.35,1.08
					l1.19,11.39c0.13,1.22,1.29,2.16,2.7,2.17l13.57,0.13c0.01,0,0.02,0,0.03,0c1.32,0,2.4-0.93,2.43-2.08
					c0.13-5.19,0.2-10.05-0.47-12.53c-0.3-1.11-1.47-1.91-2.78-1.89c-2.48,0.03-6.92,0.41-10.49,0.71
					C88.37,291.59,86.76,291.73,85.61,291.81L85.61,291.81z"/>
				<path class="st27" d="M87.07,292.98c2.85-0.19,9.05-0.82,11.99-0.86c1.25-0.02,2.34,0.74,2.63,1.82
					c0.57,2.1,0.49,6.28,0.39,10.13c-0.03,1.16-1.09,2.08-2.39,2.07l-10.84-0.1c-1.33-0.01-2.44-0.92-2.56-2.11l-0.95-9.1
					C85.23,293.89,86.01,293.06,87.07,292.98z"/>
				<g class="st26">
					<path class="st6" d="M113.32,300.71c0.39,1.49,1.75,2.52,3.29,2.51l125.56-1.07c1.42-0.01,2.56-1.18,2.53-2.6
						c-0.03-1.38-1.15-2.49-2.54-2.49l-125.56-0.57C114.37,296.47,112.75,298.57,113.32,300.71z"/>
				</g>
				<path class="st1" d="M87.64,294.77L87.64,294.77c1.01-0.59,2.3-0.24,2.87,0.78l2.68,4.8c0.27,0.48,0.97,0.45,1.19-0.05
					l6.64-14.78c0.33-0.74,1.43-0.49,1.42,0.32c-0.07,4.52-1.27,13.11-8.49,20.31c0,0-3.98-1.55-7.19-8.59
					C86.3,296.54,86.68,295.33,87.64,294.77z"/>
				<path class="st6" d="M101.4,337.36c-0.01,0-0.02,0-0.04,0l-13.57-0.13c-1.94-0.02-3.54-1.35-3.72-3.1l-1.19-11.39
					c-0.07-0.67,0.14-1.33,0.58-1.86c0.5-0.59,1.26-0.97,2.08-1.02l0,0c1.14-0.08,2.75-0.22,4.46-0.36
					c3.59-0.31,8.06-0.69,10.57-0.72c0.02,0,0.04,0,0.05,0c1.78,0,3.32,1.09,3.75,2.66c0.71,2.61,0.64,7.56,0.51,12.83
					C104.83,335.98,103.27,337.36,101.4,337.36z M85.61,320.89c-0.54,0.04-1.03,0.28-1.35,0.66c-0.26,0.31-0.39,0.7-0.35,1.08
					l1.19,11.39c0.13,1.22,1.29,2.16,2.7,2.17l13.57,0.13c0.01,0,0.02,0,0.03,0c1.32,0,2.4-0.93,2.43-2.08
					c0.13-5.19,0.2-10.05-0.47-12.53c-0.3-1.11-1.47-1.92-2.78-1.89c-2.48,0.03-6.92,0.41-10.49,0.71
					C88.37,320.68,86.76,320.81,85.61,320.89L85.61,320.89z"/>
				<path class="st27" d="M87.07,322.07c2.85-0.19,9.05-0.82,11.99-0.86c1.25-0.02,2.34,0.74,2.63,1.82
					c0.57,2.1,0.49,6.28,0.39,10.13c-0.03,1.16-1.09,2.08-2.39,2.07l-10.84-0.1c-1.33-0.01-2.44-0.92-2.56-2.11l-0.95-9.1
					C85.23,322.97,86.01,322.14,87.07,322.07z"/>
				<g class="st26">
					<path class="st6" d="M113.32,329.8L113.32,329.8c0.39,1.49,1.75,2.52,3.29,2.51l125.56-1.07c1.42-0.01,2.56-1.18,2.53-2.6
						c-0.03-1.38-1.15-2.49-2.54-2.49l-125.56-0.57C114.37,325.56,112.75,327.65,113.32,329.8z"/>
				</g>
			</g>
			<path class="st6" d="M99.52,221.64c-0.01,0-0.02,0-0.04,0l-13.57-0.13c-1.94-0.02-3.54-1.35-3.72-3.1l-1.19-11.39
				c-0.07-0.67,0.14-1.33,0.58-1.86c0.5-0.59,1.26-0.97,2.08-1.02l0,0c1.14-0.08,2.75-0.22,4.46-0.36
				c3.59-0.31,8.06-0.69,10.57-0.72c0.02,0,0.04,0,0.05,0c1.78,0,3.32,1.09,3.75,2.66c0.71,2.61,0.64,7.56,0.51,12.83
				C102.95,220.26,101.39,221.64,99.52,221.64z M83.73,205.18c-0.54,0.04-1.03,0.28-1.35,0.66c-0.26,0.31-0.39,0.7-0.35,1.08
				l1.19,11.39c0.13,1.22,1.29,2.16,2.7,2.17l13.57,0.13c0.01,0,0.02,0,0.03,0c1.32,0,2.4-0.93,2.43-2.08
				c0.13-5.19,0.2-10.05-0.47-12.53c-0.3-1.11-1.47-1.92-2.78-1.89c-2.48,0.03-6.92,0.41-10.49,0.71
				C86.49,204.96,84.88,205.1,83.73,205.18L83.73,205.18z"/>
			<path class="st27" d="M85.19,206.35c2.85-0.19,9.05-0.82,11.99-0.86c1.25-0.02,2.34,0.74,2.63,1.82
				c0.57,2.1,0.49,6.28,0.39,10.13c-0.03,1.16-1.09,2.08-2.39,2.07l-10.84-0.1c-1.33-0.01-2.44-0.92-2.56-2.11l-0.95-9.1
				C83.35,207.26,84.13,206.43,85.19,206.35z"/>
			<g class="st26">
				<path class="st6" d="M111.44,214.08L111.44,214.08c0.39,1.49,1.75,2.52,3.29,2.51l125.56-1.07c1.42-0.01,2.56-1.18,2.53-2.6
					c-0.03-1.38-1.15-2.49-2.54-2.49l-125.56-0.57C112.49,209.84,110.87,211.94,111.44,214.08z"/>
			</g>
			<path class="st1" d="M85.76,208.14L85.76,208.14c1.01-0.59,2.3-0.24,2.87,0.78l2.68,4.8c0.27,0.48,0.97,0.45,1.19-0.05
				l6.64-14.78c0.33-0.74,1.43-0.49,1.42,0.32c-0.07,4.52-1.27,13.11-8.49,20.31c0,0-3.98-1.55-7.19-8.59
				C84.42,209.91,84.8,208.7,85.76,208.14z"/>
		</g>
		<path class="st1" d="M166.69,23.91c-6.87-4.78-12.85-4.69-17.06-3.45c-3.84,1.13-6.33,4.84-5.96,8.82l1.81,19.8l21.59,1.92
			C167.07,51.01,180.17,33.29,166.69,23.91z M157.19,39.89c-2.97,0-5.38-2.41-5.38-5.38s2.41-5.38,5.38-5.38
			c2.97,0,5.38,2.41,5.38,5.38S160.17,39.89,157.19,39.89z"/>
		<path class="st20" d="M147.64,40.76c-0.27,0-0.49-0.2-0.52-0.47l-0.29-3.15c-0.03-0.29,0.18-0.54,0.47-0.57
			c0.29-0.03,0.54,0.18,0.57,0.47l0.29,3.15c0.03,0.29-0.18,0.54-0.47,0.57C147.67,40.76,147.66,40.76,147.64,40.76z M147.07,34.58
			c-0.27,0-0.49-0.2-0.52-0.47l-0.22-2.39c-0.35-3.8,2.04-7.33,5.68-8.4c2.58-0.76,5.23-0.87,7.89-0.32
			c0.28,0.06,0.46,0.33,0.41,0.62c-0.06,0.28-0.33,0.46-0.61,0.41c-2.49-0.51-4.98-0.41-7.39,0.3c-3.16,0.93-5.24,4.01-4.94,7.31
			l0.22,2.39c0.03,0.29-0.18,0.54-0.47,0.57C147.11,34.58,147.09,34.58,147.07,34.58z"/>
		<path class="st1" d="M116.01,61.89v-9.96c0-3.44,2.85-6.19,6.28-6.07l68.65,2.35c3.05,0.1,5.51,2.51,5.7,5.55l0.57,9.57
			L116.01,61.89z"/>
		<path class="st20" d="M141.61,49.62h-2.95c-0.29,0-0.52-0.23-0.52-0.52c0-0.29,0.23-0.52,0.52-0.52h2.95
			c0.29,0,0.52,0.23,0.52,0.52C142.13,49.38,141.9,49.62,141.61,49.62z"/>
		<path class="st20" d="M119.73,58.77c-0.29,0-0.52-0.23-0.52-0.52v-4.03c0-3.11,2.53-5.64,5.64-5.64h10.85
			c0.29,0,0.52,0.23,0.52,0.52c0,0.29-0.23,0.52-0.52,0.52h-10.85c-2.54,0-4.6,2.06-4.6,4.6v4.03
			C120.25,58.53,120.02,58.77,119.73,58.77z"/>
		<path class="st34" d="M88.04,64.41c0.17-3.45,3.01-6.16,6.46-6.16l120.05,0c4.32,0,8.01,3.11,8.74,7.36l0.1,0.59
			c0.81,4.66-2.78,8.92-7.51,8.92H92.73c-2.83,0-5.08-2.37-4.95-5.19L88.04,64.41z"/>
	</g>
	<g>
		<g>
			<path class="st1" d="M157.22,149.62c1.63-1.52,3.83-2.28,6.05-2.08c23.76,2.14,68.09-9.31,97.07-38.95
				c2.01-2.06,5.68-0.9,7.99,0.83c32.22,24.08,85.64,29.07,104.18,30.09c3.84,0.21,6.95,3.19,7.34,7.01
				c16.86,162.86-89.18,221.88-111.17,232.3c-2.4,1.14-5.23,0.97-7.49-0.43C151.57,310.1,156.26,221.31,154.74,155.52
				C154.69,153.29,155.59,151.14,157.22,149.62z"/>
			<path class="st6" d="M265.71,367.08c-0.51,0-1.02-0.14-1.46-0.43c-42.04-26.88-69.45-59.01-83.77-98.23
				c-12.8-35.03-13.42-70.69-13.97-102.15l-0.07-4.19c-0.01-0.73,0.26-1.42,0.77-1.93c0.51-0.52,1.2-0.81,1.94-0.81h0
				c26,0,65.03-11.48,93.66-37.13c0.92-0.82,2.27-0.92,3.3-0.24c31.46,20.87,76.34,26.95,100.29,28.72c1.33,0.1,2.38,1.13,2.49,2.46
				c5.57,63.57-7.65,117.34-39.31,159.79c-23.64,31.71-51.68,48.23-62.64,53.86l0,0C266.56,366.98,266.13,367.08,265.71,367.08z
				 M169.16,160.61c-0.41,0-0.78,0.15-1.05,0.43c-0.27,0.27-0.41,0.63-0.4,1.01l0.07,4.19c0.55,31.36,1.17,66.91,13.9,101.74
				c14.23,38.95,41.46,70.87,83.26,97.59c0.43,0.27,0.97,0.3,1.42,0.07l0,0c10.88-5.59,38.71-21.99,62.19-53.49
				c31.46-42.19,44.6-95.66,39.06-158.91c-0.06-0.7-0.61-1.24-1.31-1.3c-24.08-1.77-69.21-7.89-100.91-28.93
				c-0.54-0.36-1.25-0.31-1.74,0.13C234.77,149.02,195.38,160.61,169.16,160.61L169.16,160.61z"/>
		</g>
	</g>
	<g>
		<path class="st1" d="M19.83,343.06l0.9,28c0.16,4.88,4.16,8.77,9.07,8.8l67.05,0.4c3.28,0.02,6.07-2.36,6.55-5.59
			c1.05-7.07,2.38-19.72,0.88-31.6H19.83z"/>
		<path class="st6" d="M94.48,378.53L94.48,378.53l-0.49,0c-0.04,0-0.08-0.04-0.08-0.08c0-0.04,0.04-0.08,0.08-0.08h0l0.49,0
			c0.04,0,0.08,0.04,0.08,0.08C94.56,378.49,94.52,378.53,94.48,378.53z M95.62,378.52c-0.04,0-0.08-0.03-0.08-0.08
			c0-0.04,0.03-0.08,0.08-0.09c0.16-0.01,0.32-0.03,0.48-0.05c0.04-0.01,0.09,0.02,0.09,0.07c0.01,0.04-0.02,0.09-0.07,0.09
			C95.95,378.49,95.78,378.51,95.62,378.52C95.62,378.52,95.62,378.52,95.62,378.52z M92.85,378.52L92.85,378.52l-0.49,0
			c-0.04,0-0.08-0.04-0.08-0.08c0-0.04,0.04-0.08,0.08-0.08h0l0.49,0c0.05,0,0.08,0.04,0.08,0.08
			C92.93,378.48,92.89,378.52,92.85,378.52z M91.22,378.51L91.22,378.51l-0.49,0c-0.04,0-0.08-0.04-0.08-0.08
			c0-0.04,0.04-0.08,0.08-0.08h0l0.49,0c0.04,0,0.08,0.04,0.08,0.08C91.3,378.47,91.27,378.51,91.22,378.51z M89.59,378.5
			L89.59,378.5l-0.49,0c-0.04,0-0.08-0.04-0.08-0.08c0-0.04,0.04-0.08,0.08-0.08l0.49,0c0.04,0,0.08,0.04,0.08,0.08
			C89.67,378.46,89.64,378.5,89.59,378.5z M87.96,378.49L87.96,378.49l-0.49,0c-0.04,0-0.08-0.04-0.08-0.08
			c0-0.04,0.04-0.08,0.08-0.08h0l0.49,0c0.04,0,0.08,0.04,0.08,0.08C88.05,378.45,88.01,378.49,87.96,378.49z M86.34,378.48
			L86.34,378.48l-0.49,0c-0.04,0-0.08-0.04-0.08-0.08c0-0.04,0.04-0.08,0.08-0.08l0.49,0c0.04,0,0.08,0.04,0.08,0.08
			C86.42,378.44,86.38,378.48,86.34,378.48z M84.71,378.47L84.71,378.47l-0.49,0c-0.04,0-0.08-0.04-0.08-0.08
			c0-0.04,0.04-0.08,0.08-0.08h0l0.49,0c0.04,0,0.08,0.04,0.08,0.08C84.79,378.43,84.75,378.47,84.71,378.47z M83.08,378.46
			L83.08,378.46l-0.49,0c-0.04,0-0.08-0.04-0.08-0.08c0-0.04,0.04-0.08,0.08-0.08h0l0.49,0c0.04,0,0.08,0.04,0.08,0.08
			C83.16,378.42,83.13,378.46,83.08,378.46z M81.45,378.45L81.45,378.45l-0.49,0c-0.04,0-0.08-0.04-0.08-0.08
			c0-0.04,0.04-0.08,0.08-0.08h0l0.49,0c0.04,0,0.08,0.04,0.08,0.08C81.53,378.41,81.5,378.45,81.45,378.45z M79.82,378.44
			L79.82,378.44l-0.49,0c-0.04,0-0.08-0.04-0.08-0.08c0-0.04,0.04-0.08,0.08-0.08h0l0.49,0c0.04,0,0.08,0.04,0.08,0.08
			C79.91,378.41,79.87,378.44,79.82,378.44z M78.2,378.43L78.2,378.43l-0.49,0c-0.04,0-0.08-0.04-0.08-0.08
			c0-0.04,0.04-0.08,0.08-0.08h0l0.49,0c0.04,0,0.08,0.04,0.08,0.08C78.28,378.4,78.24,378.43,78.2,378.43z M76.57,378.42
			L76.57,378.42l-0.49,0c-0.05,0-0.08-0.04-0.08-0.08c0-0.04,0.04-0.08,0.08-0.08h0l0.49,0c0.04,0,0.08,0.04,0.08,0.08
			C76.65,378.39,76.61,378.42,76.57,378.42z M74.94,378.41L74.94,378.41l-0.49,0c-0.05,0-0.08-0.04-0.08-0.08
			c0-0.04,0.04-0.08,0.08-0.08h0l0.49,0c0.04,0,0.08,0.04,0.08,0.08C75.02,378.38,74.99,378.41,74.94,378.41z M73.31,378.4
			L73.31,378.4l-0.49,0c-0.04,0-0.08-0.04-0.08-0.08c0-0.04,0.04-0.08,0.08-0.08h0l0.49,0c0.05,0,0.08,0.04,0.08,0.08
			C73.39,378.37,73.36,378.4,73.31,378.4z M71.68,378.39L71.68,378.39l-0.49,0c-0.04,0-0.08-0.04-0.08-0.08
			c0-0.04,0.04-0.08,0.08-0.08h0l0.49,0c0.04,0,0.08,0.04,0.08,0.08C71.77,378.36,71.73,378.39,71.68,378.39z M70.06,378.38
			L70.06,378.38l-0.49,0c-0.04,0-0.08-0.04-0.08-0.08c0-0.04,0.04-0.08,0.08-0.08l0.49,0c0.04,0,0.08,0.04,0.08,0.08
			C70.14,378.35,70.1,378.38,70.06,378.38z M68.43,378.37L68.43,378.37l-0.49,0c-0.05,0-0.08-0.04-0.08-0.08
			c0-0.04,0.04-0.08,0.08-0.08h0l0.49,0c0.04,0,0.08,0.04,0.08,0.08C68.51,378.34,68.47,378.37,68.43,378.37z M66.8,378.36
			L66.8,378.36l-0.49,0c-0.04,0-0.08-0.04-0.08-0.08c0-0.05,0.04-0.08,0.08-0.08l0.49,0c0.04,0,0.08,0.04,0.08,0.08
			C66.88,378.33,66.85,378.36,66.8,378.36z M65.17,378.36L65.17,378.36l-0.49,0c-0.04,0-0.08-0.04-0.08-0.08
			c0-0.04,0.04-0.08,0.08-0.08h0l0.49,0c0.04,0,0.08,0.04,0.08,0.08C65.25,378.32,65.22,378.36,65.17,378.36z M63.54,378.35
			L63.54,378.35l-0.49,0c-0.05,0-0.08-0.04-0.08-0.08c0-0.04,0.04-0.08,0.08-0.08l0.49,0c0.05,0,0.08,0.04,0.08,0.08
			C63.63,378.31,63.59,378.35,63.54,378.35z M61.92,378.34L61.92,378.34l-0.49,0c-0.04,0-0.08-0.04-0.08-0.08
			c0-0.04,0.04-0.08,0.08-0.08h0l0.49,0c0.04,0,0.08,0.04,0.08,0.08C62,378.3,61.96,378.34,61.92,378.34z M60.29,378.33
			L60.29,378.33l-0.49,0c-0.04,0-0.08-0.04-0.08-0.08c0-0.04,0.04-0.08,0.08-0.08h0l0.49,0c0.05,0,0.08,0.04,0.08,0.08
			C60.37,378.29,60.33,378.33,60.29,378.33z M58.66,378.32L58.66,378.32l-0.49,0c-0.04,0-0.08-0.04-0.08-0.08
			c0-0.04,0.04-0.08,0.08-0.08h0l0.49,0c0.04,0,0.08,0.04,0.08,0.08C58.74,378.28,58.7,378.32,58.66,378.32z M57.03,378.31
			L57.03,378.31l-0.49,0c-0.04,0-0.08-0.04-0.08-0.08c0-0.04,0.04-0.08,0.08-0.08h0l0.49,0c0.05,0,0.08,0.04,0.08,0.08
			C57.11,378.27,57.08,378.31,57.03,378.31z M55.4,378.3L55.4,378.3l-0.49,0c-0.04,0-0.08-0.04-0.08-0.08
			c0-0.04,0.04-0.08,0.08-0.08h0l0.49,0c0.04,0,0.08,0.04,0.08,0.08C55.49,378.26,55.45,378.3,55.4,378.3z M53.78,378.29
			L53.78,378.29l-0.49,0c-0.04,0-0.08-0.04-0.08-0.08c0-0.04,0.04-0.08,0.08-0.08h0l0.49,0c0.05,0,0.08,0.04,0.08,0.08
			C53.86,378.25,53.82,378.29,53.78,378.29z M52.15,378.28L52.15,378.28l-0.49,0c-0.04,0-0.08-0.04-0.08-0.08
			c0-0.04,0.04-0.08,0.08-0.08h0l0.49,0c0.04,0,0.08,0.04,0.08,0.08C52.23,378.24,52.19,378.28,52.15,378.28z M50.52,378.27
			L50.52,378.27l-0.49,0c-0.04,0-0.08-0.04-0.08-0.08c0-0.04,0.04-0.08,0.08-0.08h0l0.49,0c0.04,0,0.08,0.04,0.08,0.08
			C50.6,378.23,50.56,378.27,50.52,378.27z M48.89,378.26L48.89,378.26l-0.49,0c-0.05,0-0.08-0.04-0.08-0.08
			c0-0.04,0.04-0.08,0.08-0.08h0l0.49,0c0.04,0,0.08,0.04,0.08,0.08C48.97,378.22,48.94,378.26,48.89,378.26z M47.26,378.25
			L47.26,378.25l-0.49,0c-0.05,0-0.08-0.04-0.08-0.08c0-0.04,0.04-0.08,0.08-0.08l0.49,0c0.04,0,0.08,0.04,0.08,0.08
			C47.35,378.21,47.31,378.25,47.26,378.25z M45.64,378.24L45.64,378.24l-0.49,0c-0.05,0-0.08-0.04-0.08-0.08
			c0-0.04,0.04-0.08,0.08-0.08h0l0.49,0c0.04,0,0.08,0.04,0.08,0.08C45.72,378.2,45.68,378.24,45.64,378.24z M44.01,378.23
			L44.01,378.23l-0.49,0c-0.04,0-0.08-0.04-0.08-0.08c0-0.04,0.04-0.08,0.08-0.08l0.49,0c0.04,0,0.08,0.04,0.08,0.08
			C44.09,378.19,44.05,378.23,44.01,378.23z M42.38,378.22L42.38,378.22l-0.49,0c-0.04,0-0.08-0.04-0.08-0.08
			c0-0.04,0.04-0.08,0.08-0.08h0l0.49,0c0.04,0,0.08,0.04,0.08,0.08C42.46,378.18,42.42,378.22,42.38,378.22z M97.21,378.21
			c-0.03,0-0.07-0.02-0.08-0.06c-0.01-0.04,0.01-0.09,0.05-0.1c0.15-0.05,0.3-0.11,0.45-0.17c0.04-0.02,0.09,0,0.11,0.04
			c0.02,0.04,0,0.09-0.04,0.11c-0.15,0.06-0.31,0.12-0.46,0.17C97.23,378.21,97.22,378.21,97.21,378.21z M40.75,378.21L40.75,378.21
			l-0.49,0c-0.04,0-0.08-0.04-0.08-0.08c0-0.04,0.04-0.08,0.08-0.08l0.49,0c0.04,0,0.08,0.04,0.08,0.08
			C40.83,378.18,40.8,378.21,40.75,378.21z M39.12,378.2L39.12,378.2l-0.49,0c-0.05,0-0.08-0.04-0.08-0.08
			c0-0.04,0.04-0.08,0.08-0.08h0l0.49,0c0.04,0,0.08,0.04,0.08,0.08C39.21,378.17,39.17,378.2,39.12,378.2z M37.5,378.19
			L37.5,378.19l-0.49,0c-0.04,0-0.08-0.04-0.08-0.08c0-0.04,0.04-0.08,0.08-0.08h0l0.49,0c0.05,0,0.08,0.04,0.08,0.08
			C37.58,378.16,37.54,378.19,37.5,378.19z M35.87,378.18L35.87,378.18l-0.49,0c-0.05,0-0.08-0.04-0.08-0.08
			c0-0.04,0.04-0.08,0.08-0.08h0l0.49,0c0.04,0,0.08,0.04,0.08,0.08C35.95,378.15,35.91,378.18,35.87,378.18z M34.24,378.17
			L34.24,378.17l-0.49,0c-0.04,0-0.08-0.04-0.08-0.08c0-0.04,0.04-0.08,0.08-0.08h0l0.49,0c0.05,0,0.08,0.04,0.08,0.08
			C34.32,378.14,34.28,378.17,34.24,378.17z M32.61,378.16L32.61,378.16l-0.49,0c-0.05,0-0.08-0.04-0.08-0.08
			c0-0.04,0.04-0.08,0.08-0.08h0l0.49,0c0.05,0,0.08,0.04,0.08,0.08C32.69,378.13,32.66,378.16,32.61,378.16z M30.98,378.14
			C30.98,378.14,30.98,378.14,30.98,378.14c-0.17-0.01-0.33-0.02-0.5-0.04c-0.04,0-0.08-0.04-0.07-0.09c0-0.04,0.04-0.08,0.09-0.07
			c0.16,0.02,0.32,0.03,0.48,0.04c0.04,0,0.08,0.04,0.08,0.09C31.06,378.11,31.03,378.14,30.98,378.14z M29.38,377.91
			c-0.01,0-0.01,0-0.02,0c-0.16-0.04-0.32-0.08-0.48-0.13c-0.04-0.01-0.07-0.06-0.05-0.1c0.01-0.04,0.06-0.07,0.1-0.05
			c0.15,0.05,0.31,0.09,0.47,0.13c0.04,0.01,0.07,0.05,0.06,0.1C29.45,377.89,29.41,377.91,29.38,377.91z M98.67,377.51
			c-0.03,0-0.05-0.01-0.07-0.04c-0.02-0.04-0.01-0.09,0.02-0.11c0.13-0.09,0.27-0.18,0.39-0.28c0.04-0.03,0.09-0.02,0.11,0.01
			c0.03,0.04,0.02,0.09-0.01,0.11c-0.13,0.1-0.26,0.2-0.4,0.29C98.7,377.5,98.69,377.51,98.67,377.51z M27.84,377.39
			c-0.01,0-0.02,0-0.03-0.01c-0.15-0.07-0.3-0.14-0.44-0.22c-0.04-0.02-0.06-0.07-0.03-0.11c0.02-0.04,0.07-0.06,0.11-0.03
			c0.14,0.07,0.29,0.15,0.43,0.21c0.04,0.02,0.06,0.07,0.04,0.11C27.9,377.37,27.87,377.39,27.84,377.39z M26.43,376.58
			c-0.02,0-0.03,0-0.05-0.01c-0.13-0.09-0.27-0.19-0.4-0.29c-0.04-0.03-0.04-0.08-0.01-0.11c0.03-0.04,0.08-0.04,0.11-0.01
			c0.13,0.1,0.26,0.2,0.39,0.29c0.04,0.03,0.05,0.08,0.02,0.11C26.48,376.57,26.45,376.58,26.43,376.58z M99.9,376.45
			c-0.02,0-0.04-0.01-0.05-0.02c-0.03-0.03-0.04-0.08-0.01-0.11c0.11-0.12,0.21-0.24,0.31-0.37c0.03-0.04,0.08-0.04,0.11-0.02
			c0.04,0.03,0.04,0.08,0.02,0.11c-0.1,0.13-0.21,0.26-0.32,0.38C99.95,376.44,99.92,376.45,99.9,376.45z M25.19,375.53
			c-0.02,0-0.04-0.01-0.06-0.02c-0.11-0.12-0.23-0.24-0.33-0.36c-0.03-0.03-0.03-0.09,0.01-0.11c0.03-0.03,0.09-0.03,0.11,0.01
			c0.11,0.12,0.22,0.24,0.33,0.36c0.03,0.03,0.03,0.08,0,0.12C25.23,375.52,25.21,375.53,25.19,375.53z M100.82,375.11
			c-0.01,0-0.02,0-0.04-0.01c-0.04-0.02-0.06-0.07-0.04-0.11c0.07-0.14,0.14-0.29,0.2-0.44c0.02-0.04,0.06-0.06,0.11-0.04
			c0.04,0.02,0.06,0.06,0.04,0.11c-0.06,0.15-0.13,0.3-0.21,0.45C100.88,375.09,100.85,375.11,100.82,375.11z M24.17,374.26
			c-0.03,0-0.05-0.01-0.07-0.04c-0.09-0.14-0.18-0.28-0.26-0.42c-0.02-0.04-0.01-0.09,0.03-0.11c0.04-0.02,0.09-0.01,0.11,0.03
			c0.08,0.14,0.17,0.28,0.26,0.41c0.02,0.04,0.01,0.09-0.02,0.11C24.2,374.26,24.18,374.26,24.17,374.26z M101.36,373.58
			c-0.01,0-0.01,0-0.02,0c-0.04-0.01-0.07-0.05-0.06-0.1c0.03-0.12,0.05-0.24,0.07-0.36l0.02-0.11c0.01-0.04,0.05-0.08,0.09-0.07
			c0.04,0.01,0.08,0.05,0.07,0.09l-0.02,0.11c-0.02,0.13-0.04,0.25-0.07,0.37C101.43,373.55,101.39,373.58,101.36,373.58z
			 M23.4,372.83c-0.03,0-0.06-0.02-0.08-0.05c-0.06-0.15-0.12-0.31-0.18-0.46c-0.01-0.04,0.01-0.09,0.05-0.1
			c0.04-0.01,0.09,0.01,0.1,0.05c0.05,0.15,0.11,0.3,0.17,0.45c0.02,0.04,0,0.09-0.04,0.11C23.42,372.83,23.41,372.83,23.4,372.83z
			 M101.6,371.97c0,0-0.01,0-0.01,0c-0.04-0.01-0.08-0.05-0.07-0.09c0.02-0.16,0.04-0.32,0.07-0.48c0.01-0.04,0.05-0.08,0.09-0.07
			c0.04,0.01,0.08,0.05,0.07,0.09c-0.02,0.16-0.04,0.33-0.07,0.48C101.68,371.94,101.64,371.97,101.6,371.97z M22.92,371.28
			c-0.04,0-0.07-0.03-0.08-0.06c-0.03-0.16-0.06-0.32-0.09-0.48c-0.01-0.04,0.02-0.09,0.07-0.09c0.05-0.01,0.09,0.02,0.09,0.07
			c0.02,0.16,0.05,0.32,0.09,0.48c0.01,0.04-0.02,0.09-0.06,0.1C22.93,371.28,22.93,371.28,22.92,371.28z M101.82,370.35
			c0,0-0.01,0-0.01,0c-0.04-0.01-0.08-0.05-0.07-0.09l0.06-0.48c0.01-0.04,0.05-0.08,0.09-0.07c0.04,0.01,0.08,0.05,0.07,0.09
			l-0.06,0.48C101.89,370.32,101.86,370.35,101.82,370.35z M22.74,369.66c-0.04,0-0.08-0.03-0.08-0.08l-0.02-0.49
			c0-0.04,0.03-0.08,0.08-0.08c0.05,0,0.08,0.03,0.08,0.08l0.02,0.49C22.82,369.62,22.79,369.66,22.74,369.66L22.74,369.66z
			 M102.01,368.74C102.01,368.74,102.01,368.74,102.01,368.74c-0.05-0.01-0.09-0.05-0.08-0.09c0.02-0.16,0.04-0.32,0.06-0.49
			c0.01-0.04,0.05-0.08,0.09-0.07c0.04,0.01,0.08,0.05,0.07,0.09c-0.02,0.16-0.04,0.33-0.06,0.49
			C102.09,368.71,102.05,368.74,102.01,368.74z M22.69,368.03c-0.04,0-0.08-0.03-0.08-0.08l-0.02-0.49c0-0.04,0.03-0.08,0.08-0.08
			c0.04,0,0.08,0.03,0.08,0.08l0.02,0.49C22.77,367.99,22.73,368.03,22.69,368.03L22.69,368.03z M102.19,367.12
			C102.19,367.12,102.19,367.12,102.19,367.12c-0.05-0.01-0.09-0.05-0.08-0.09c0.02-0.16,0.03-0.32,0.05-0.49
			c0-0.04,0.04-0.08,0.09-0.07c0.04,0,0.08,0.04,0.07,0.09c-0.02,0.16-0.03,0.33-0.05,0.49
			C102.27,367.09,102.23,367.12,102.19,367.12z M22.63,366.41c-0.04,0-0.08-0.03-0.08-0.08l-0.02-0.49c0-0.04,0.03-0.08,0.08-0.08
			c0.04-0.01,0.08,0.03,0.08,0.08l0.02,0.49C22.72,366.37,22.68,366.4,22.63,366.41L22.63,366.41z M102.35,365.5
			C102.35,365.5,102.35,365.5,102.35,365.5c-0.05,0-0.09-0.04-0.08-0.09c0.01-0.16,0.03-0.32,0.04-0.49c0-0.04,0.04-0.08,0.09-0.07
			c0.04,0,0.08,0.04,0.07,0.09c-0.01,0.16-0.03,0.33-0.04,0.49C102.43,365.47,102.39,365.5,102.35,365.5z M22.58,364.78
			c-0.04,0-0.08-0.03-0.08-0.08l-0.02-0.49c0-0.04,0.03-0.08,0.08-0.08c0.04-0.01,0.08,0.03,0.08,0.08l0.02,0.49
			C22.66,364.74,22.63,364.78,22.58,364.78L22.58,364.78z M102.49,363.88C102.49,363.88,102.49,363.88,102.49,363.88
			c-0.05,0-0.08-0.04-0.08-0.09l0.04-0.49c0-0.04,0.04-0.08,0.09-0.07c0.04,0,0.08,0.04,0.07,0.09l-0.04,0.49
			C102.57,363.84,102.53,363.88,102.49,363.88z M22.53,363.15c-0.04,0-0.08-0.03-0.08-0.08l-0.02-0.49c0-0.04,0.03-0.08,0.08-0.08
			c0.04,0,0.08,0.03,0.08,0.08l0.02,0.49C22.61,363.11,22.58,363.15,22.53,363.15C22.53,363.15,22.53,363.15,22.53,363.15z
			 M102.61,362.25C102.61,362.25,102.61,362.25,102.61,362.25c-0.05,0-0.08-0.04-0.08-0.09l0.03-0.49c0-0.04,0.04-0.08,0.09-0.08
			c0.04,0,0.08,0.04,0.08,0.09l-0.03,0.49C102.69,362.22,102.65,362.25,102.61,362.25z M22.48,361.52c-0.04,0-0.08-0.03-0.08-0.08
			l-0.02-0.49c0-0.04,0.03-0.08,0.08-0.08c0.04,0,0.08,0.03,0.08,0.08l0.02,0.49C22.56,361.49,22.52,361.52,22.48,361.52
			C22.48,361.52,22.48,361.52,22.48,361.52z M102.71,360.63C102.71,360.63,102.71,360.63,102.71,360.63c-0.05,0-0.08-0.04-0.08-0.09
			c0.01-0.16,0.02-0.32,0.03-0.49c0-0.04,0.04-0.08,0.09-0.08c0.04,0,0.08,0.04,0.08,0.09c-0.01,0.16-0.02,0.33-0.03,0.49
			C102.79,360.59,102.76,360.63,102.71,360.63z M22.42,359.9c-0.04,0-0.08-0.03-0.08-0.08l-0.02-0.49c0-0.04,0.03-0.08,0.08-0.08
			c0.04,0,0.08,0.03,0.08,0.08l0.02,0.49C22.51,359.86,22.47,359.9,22.42,359.9C22.43,359.9,22.43,359.9,22.42,359.9z M102.79,359
			L102.79,359c-0.05,0-0.08-0.04-0.08-0.08c0.01-0.16,0.01-0.32,0.02-0.49c0-0.04,0.04-0.08,0.08-0.08c0.04,0,0.08,0.04,0.08,0.08
			c-0.01,0.16-0.01,0.33-0.02,0.49C102.87,358.97,102.84,359,102.79,359z M22.37,358.27c-0.04,0-0.08-0.03-0.08-0.08l-0.02-0.49
			c0-0.04,0.03-0.08,0.08-0.08c0.04,0,0.08,0.03,0.08,0.08l0.02,0.49C22.46,358.23,22.42,358.27,22.37,358.27
			C22.37,358.27,22.37,358.27,22.37,358.27z M102.85,357.37L102.85,357.37c-0.05,0-0.08-0.04-0.08-0.08c0-0.16,0.01-0.32,0.01-0.49
			c0-0.04,0.04-0.08,0.08-0.08c0.04,0,0.08,0.04,0.08,0.08c0,0.16-0.01,0.33-0.01,0.49C102.93,357.34,102.9,357.37,102.85,357.37z
			 M22.32,356.64c-0.04,0-0.08-0.03-0.08-0.08l-0.02-0.49c0-0.04,0.03-0.08,0.08-0.08c0.04,0,0.08,0.03,0.08,0.08l0.02,0.49
			C22.4,356.6,22.37,356.64,22.32,356.64L22.32,356.64z M102.89,355.75C102.89,355.75,102.89,355.75,102.89,355.75
			c-0.05,0-0.08-0.04-0.08-0.08c0-0.16,0-0.33,0.01-0.49c0-0.04,0.04-0.08,0.08-0.08c0.04,0,0.08,0.04,0.08,0.08
			c0,0.16,0,0.33-0.01,0.49C102.97,355.71,102.93,355.75,102.89,355.75z M22.27,355.02c-0.04,0-0.08-0.03-0.08-0.08l-0.02-0.49
			c0-0.04,0.03-0.08,0.08-0.08c0.04,0,0.08,0.03,0.08,0.08l0.02,0.49C22.35,354.98,22.32,355.01,22.27,355.02L22.27,355.02z
			 M102.9,354.12c-0.04,0-0.08-0.04-0.08-0.08V354c0-0.15,0-0.3,0-0.45c0-0.04,0.04-0.08,0.08-0.08h0c0.04,0,0.08,0.04,0.08,0.08
			c0,0.15,0,0.3,0,0.45v0.04C102.98,354.08,102.95,354.12,102.9,354.12z M22.22,353.39c-0.04,0-0.08-0.03-0.08-0.08l-0.02-0.49
			c0-0.04,0.03-0.08,0.08-0.08c0.05-0.01,0.08,0.03,0.08,0.08l0.02,0.49C22.3,353.35,22.26,353.39,22.22,353.39L22.22,353.39z
			 M102.89,352.49c-0.04,0-0.08-0.04-0.08-0.08c0-0.16-0.01-0.32-0.01-0.49c0-0.04,0.03-0.08,0.08-0.08c0.04,0,0.08,0.03,0.08,0.08
			c0,0.16,0.01,0.33,0.01,0.49C102.97,352.45,102.94,352.49,102.89,352.49L102.89,352.49z M22.16,351.76
			c-0.04,0-0.08-0.03-0.08-0.08l-0.02-0.49c0-0.04,0.03-0.08,0.08-0.08c0.04,0,0.08,0.03,0.08,0.08l0.02,0.49
			C22.25,351.72,22.21,351.76,22.16,351.76C22.17,351.76,22.16,351.76,22.16,351.76z M102.85,350.86c-0.04,0-0.08-0.03-0.08-0.08
			c-0.01-0.16-0.01-0.32-0.02-0.49c0-0.04,0.03-0.08,0.08-0.08c0.05,0,0.08,0.03,0.08,0.08c0.01,0.16,0.01,0.33,0.02,0.49
			C102.93,350.82,102.9,350.86,102.85,350.86C102.85,350.86,102.85,350.86,102.85,350.86z M22.11,350.13
			c-0.04,0-0.08-0.03-0.08-0.08l-0.02-0.49c0-0.04,0.03-0.08,0.08-0.08c0.04,0,0.08,0.03,0.08,0.08l0.02,0.49
			C22.19,350.1,22.16,350.13,22.11,350.13C22.11,350.13,22.11,350.13,22.11,350.13z M102.79,349.24c-0.04,0-0.08-0.03-0.08-0.08
			c-0.01-0.16-0.02-0.32-0.03-0.49c0-0.04,0.03-0.08,0.08-0.09c0.04,0,0.08,0.03,0.09,0.08c0.01,0.16,0.02,0.33,0.03,0.49
			C102.87,349.2,102.84,349.23,102.79,349.24L102.79,349.24z M22.06,348.51c-0.04,0-0.08-0.03-0.08-0.08l-0.02-0.49
			c0-0.04,0.03-0.08,0.08-0.08c0.05,0,0.08,0.03,0.08,0.08l0.02,0.49C22.14,348.47,22.11,348.51,22.06,348.51
			C22.06,348.51,22.06,348.51,22.06,348.51z M102.69,347.61c-0.04,0-0.08-0.03-0.08-0.08c-0.01-0.16-0.02-0.32-0.03-0.49
			c0-0.04,0.03-0.08,0.08-0.09c0.05,0,0.08,0.03,0.09,0.08c0.01,0.16,0.02,0.33,0.03,0.49
			C102.78,347.57,102.74,347.61,102.69,347.61C102.69,347.61,102.69,347.61,102.69,347.61z M22.01,346.88
			c-0.04,0-0.08-0.03-0.08-0.08l-0.02-0.49c0-0.04,0.03-0.08,0.08-0.08c0.04-0.01,0.08,0.03,0.08,0.08l0.02,0.49
			C22.09,346.84,22.05,346.88,22.01,346.88C22.01,346.88,22.01,346.88,22.01,346.88z M102.56,345.99c-0.04,0-0.08-0.03-0.08-0.07
			c-0.01-0.16-0.03-0.32-0.04-0.49c0-0.04,0.03-0.08,0.07-0.09c0.05,0,0.08,0.03,0.09,0.07c0.02,0.16,0.03,0.32,0.04,0.49
			C102.65,345.94,102.62,345.98,102.56,345.99C102.57,345.99,102.57,345.99,102.56,345.99z M21.95,345.25
			c-0.04,0-0.08-0.03-0.08-0.08l-0.02-0.49c0-0.04,0.03-0.08,0.08-0.08c0.04,0,0.08,0.03,0.08,0.08l0.02,0.49
			C22.04,345.21,22,345.25,21.95,345.25L21.95,345.25z M102.41,344.37c-0.04,0-0.08-0.03-0.08-0.07c-0.02-0.16-0.04-0.32-0.05-0.48
			c-0.01-0.04,0.03-0.09,0.07-0.09c0.05-0.01,0.09,0.03,0.09,0.07c0.02,0.16,0.04,0.32,0.05,0.49
			C102.49,344.32,102.46,344.36,102.41,344.37C102.41,344.37,102.41,344.37,102.41,344.37z M21.9,343.63
			c-0.04,0-0.08-0.03-0.08-0.08l-0.02-0.57h0.3c0.04,0,0.08,0.04,0.08,0.08c0,0.04-0.04,0.08-0.08,0.08h-0.13l0.01,0.4
			C21.98,343.59,21.95,343.62,21.9,343.63L21.9,343.63z M101.87,343.14h-0.49c-0.04,0-0.08-0.04-0.08-0.08
			c0-0.05,0.04-0.08,0.08-0.08h0.49c0.04,0,0.08,0.04,0.08,0.08C101.95,343.1,101.92,343.14,101.87,343.14z M100.24,343.14h-0.49
			c-0.04,0-0.08-0.04-0.08-0.08c0-0.05,0.04-0.08,0.08-0.08h0.49c0.04,0,0.08,0.04,0.08,0.08
			C100.32,343.1,100.29,343.14,100.24,343.14z M98.61,343.14h-0.49c-0.04,0-0.08-0.04-0.08-0.08c0-0.05,0.04-0.08,0.08-0.08h0.49
			c0.04,0,0.08,0.04,0.08,0.08C98.7,343.1,98.66,343.14,98.61,343.14z M96.99,343.14H96.5c-0.04,0-0.08-0.04-0.08-0.08
			c0-0.05,0.04-0.08,0.08-0.08h0.49c0.04,0,0.08,0.04,0.08,0.08C97.07,343.1,97.03,343.14,96.99,343.14z M95.36,343.14h-0.49
			c-0.04,0-0.08-0.04-0.08-0.08c0-0.05,0.04-0.08,0.08-0.08h0.49c0.04,0,0.08,0.04,0.08,0.08C95.44,343.1,95.4,343.14,95.36,343.14z
			 M93.73,343.14h-0.49c-0.04,0-0.08-0.04-0.08-0.08c0-0.05,0.04-0.08,0.08-0.08h0.49c0.04,0,0.08,0.04,0.08,0.08
			C93.81,343.1,93.78,343.14,93.73,343.14z M92.1,343.14h-0.49c-0.04,0-0.08-0.04-0.08-0.08c0-0.05,0.04-0.08,0.08-0.08h0.49
			c0.04,0,0.08,0.04,0.08,0.08C92.18,343.1,92.15,343.14,92.1,343.14z M90.47,343.14h-0.49c-0.04,0-0.08-0.04-0.08-0.08
			c0-0.05,0.04-0.08,0.08-0.08h0.49c0.04,0,0.08,0.04,0.08,0.08C90.56,343.1,90.52,343.14,90.47,343.14z M88.85,343.14h-0.49
			c-0.04,0-0.08-0.04-0.08-0.08c0-0.05,0.04-0.08,0.08-0.08h0.49c0.04,0,0.08,0.04,0.08,0.08C88.93,343.1,88.89,343.14,88.85,343.14
			z M87.22,343.14h-0.49c-0.04,0-0.08-0.04-0.08-0.08c0-0.05,0.04-0.08,0.08-0.08h0.49c0.04,0,0.08,0.04,0.08,0.08
			C87.3,343.1,87.26,343.14,87.22,343.14z M85.59,343.14H85.1c-0.04,0-0.08-0.04-0.08-0.08c0-0.05,0.04-0.08,0.08-0.08h0.49
			c0.04,0,0.08,0.04,0.08,0.08C85.67,343.1,85.64,343.14,85.59,343.14z M83.96,343.14h-0.49c-0.04,0-0.08-0.04-0.08-0.08
			c0-0.05,0.04-0.08,0.08-0.08h0.49c0.04,0,0.08,0.04,0.08,0.08C84.04,343.1,84.01,343.14,83.96,343.14z M82.33,343.14h-0.49
			c-0.04,0-0.08-0.04-0.08-0.08c0-0.05,0.04-0.08,0.08-0.08h0.49c0.04,0,0.08,0.04,0.08,0.08C82.42,343.1,82.38,343.14,82.33,343.14
			z M80.71,343.14h-0.49c-0.04,0-0.08-0.04-0.08-0.08c0-0.05,0.04-0.08,0.08-0.08h0.49c0.04,0,0.08,0.04,0.08,0.08
			C80.79,343.1,80.75,343.14,80.71,343.14z M79.08,343.14h-0.49c-0.05,0-0.08-0.04-0.08-0.08c0-0.05,0.04-0.08,0.08-0.08h0.49
			c0.04,0,0.08,0.04,0.08,0.08C79.16,343.1,79.12,343.14,79.08,343.14z M77.45,343.14h-0.49c-0.04,0-0.08-0.04-0.08-0.08
			c0-0.05,0.04-0.08,0.08-0.08h0.49c0.04,0,0.08,0.04,0.08,0.08C77.53,343.1,77.5,343.14,77.45,343.14z M75.82,343.14h-0.49
			c-0.04,0-0.08-0.04-0.08-0.08c0-0.05,0.04-0.08,0.08-0.08h0.49c0.04,0,0.08,0.04,0.08,0.08C75.9,343.1,75.87,343.14,75.82,343.14z
			 M74.19,343.14h-0.49c-0.04,0-0.08-0.04-0.08-0.08c0-0.05,0.04-0.08,0.08-0.08h0.49c0.04,0,0.08,0.04,0.08,0.08
			C74.28,343.1,74.24,343.14,74.19,343.14z M72.57,343.14h-0.49c-0.05,0-0.08-0.04-0.08-0.08c0-0.05,0.04-0.08,0.08-0.08h0.49
			c0.04,0,0.08,0.04,0.08,0.08C72.65,343.1,72.61,343.14,72.57,343.14z M70.94,343.14h-0.49c-0.05,0-0.08-0.04-0.08-0.08
			c0-0.05,0.04-0.08,0.08-0.08h0.49c0.04,0,0.08,0.04,0.08,0.08C71.02,343.1,70.98,343.14,70.94,343.14z M69.31,343.14h-0.49
			c-0.04,0-0.08-0.04-0.08-0.08c0-0.05,0.04-0.08,0.08-0.08h0.49c0.04,0,0.08,0.04,0.08,0.08C69.39,343.1,69.36,343.14,69.31,343.14
			z M67.68,343.14h-0.49c-0.04,0-0.08-0.04-0.08-0.08c0-0.05,0.04-0.08,0.08-0.08h0.49c0.04,0,0.08,0.04,0.08,0.08
			C67.76,343.1,67.73,343.14,67.68,343.14z M66.05,343.14h-0.49c-0.05,0-0.08-0.04-0.08-0.08c0-0.05,0.04-0.08,0.08-0.08h0.49
			c0.04,0,0.08,0.04,0.08,0.08C66.14,343.1,66.1,343.14,66.05,343.14z M64.43,343.14h-0.49c-0.04,0-0.08-0.04-0.08-0.08
			c0-0.05,0.04-0.08,0.08-0.08h0.49c0.04,0,0.08,0.04,0.08,0.08C64.51,343.1,64.47,343.14,64.43,343.14z M62.8,343.14h-0.49
			c-0.04,0-0.08-0.04-0.08-0.08c0-0.05,0.04-0.08,0.08-0.08h0.49c0.04,0,0.08,0.04,0.08,0.08C62.88,343.1,62.84,343.14,62.8,343.14z
			 M61.17,343.14h-0.49c-0.04,0-0.08-0.04-0.08-0.08c0-0.05,0.04-0.08,0.08-0.08h0.49c0.04,0,0.08,0.04,0.08,0.08
			C61.25,343.1,61.22,343.14,61.17,343.14z M59.54,343.14h-0.49c-0.04,0-0.08-0.04-0.08-0.08c0-0.05,0.04-0.08,0.08-0.08h0.49
			c0.04,0,0.08,0.04,0.08,0.08C59.62,343.1,59.59,343.14,59.54,343.14z M57.91,343.14h-0.49c-0.04,0-0.08-0.04-0.08-0.08
			c0-0.05,0.04-0.08,0.08-0.08h0.49c0.04,0,0.08,0.04,0.08,0.08C58,343.1,57.96,343.14,57.91,343.14z M56.29,343.14H55.8
			c-0.04,0-0.08-0.04-0.08-0.08c0-0.05,0.04-0.08,0.08-0.08h0.49c0.04,0,0.08,0.04,0.08,0.08C56.37,343.1,56.33,343.14,56.29,343.14
			z M54.66,343.14h-0.49c-0.04,0-0.08-0.04-0.08-0.08c0-0.05,0.04-0.08,0.08-0.08h0.49c0.04,0,0.08,0.04,0.08,0.08
			C54.74,343.1,54.7,343.14,54.66,343.14z M53.03,343.14h-0.49c-0.04,0-0.08-0.04-0.08-0.08c0-0.05,0.04-0.08,0.08-0.08h0.49
			c0.04,0,0.08,0.04,0.08,0.08C53.11,343.1,53.08,343.14,53.03,343.14z M51.4,343.14h-0.49c-0.04,0-0.08-0.04-0.08-0.08
			c0-0.05,0.04-0.08,0.08-0.08h0.49c0.04,0,0.08,0.04,0.08,0.08C51.48,343.1,51.45,343.14,51.4,343.14z M49.77,343.14h-0.49
			c-0.04,0-0.08-0.04-0.08-0.08c0-0.05,0.04-0.08,0.08-0.08h0.49c0.04,0,0.08,0.04,0.08,0.08C49.86,343.1,49.82,343.14,49.77,343.14
			z M48.15,343.14h-0.49c-0.05,0-0.08-0.04-0.08-0.08c0-0.05,0.04-0.08,0.08-0.08h0.49c0.04,0,0.08,0.04,0.08,0.08
			C48.23,343.1,48.19,343.14,48.15,343.14z M46.52,343.14h-0.49c-0.04,0-0.08-0.04-0.08-0.08c0-0.05,0.04-0.08,0.08-0.08h0.49
			c0.04,0,0.08,0.04,0.08,0.08C46.6,343.1,46.56,343.14,46.52,343.14z M44.89,343.14H44.4c-0.05,0-0.08-0.04-0.08-0.08
			c0-0.05,0.04-0.08,0.08-0.08h0.49c0.04,0,0.08,0.04,0.08,0.08C44.97,343.1,44.93,343.14,44.89,343.14z M43.26,343.14h-0.49
			c-0.04,0-0.08-0.04-0.08-0.08c0-0.05,0.04-0.08,0.08-0.08h0.49c0.04,0,0.08,0.04,0.08,0.08C43.34,343.1,43.31,343.14,43.26,343.14
			z M41.63,343.14h-0.49c-0.04,0-0.08-0.04-0.08-0.08c0-0.05,0.04-0.08,0.08-0.08h0.49c0.04,0,0.08,0.04,0.08,0.08
			C41.72,343.1,41.68,343.14,41.63,343.14z M40.01,343.14h-0.49c-0.04,0-0.08-0.04-0.08-0.08c0-0.05,0.04-0.08,0.08-0.08h0.49
			c0.04,0,0.08,0.04,0.08,0.08C40.09,343.1,40.05,343.14,40.01,343.14z M38.38,343.14h-0.49c-0.04,0-0.08-0.04-0.08-0.08
			c0-0.05,0.04-0.08,0.08-0.08h0.49c0.04,0,0.08,0.04,0.08,0.08C38.46,343.1,38.42,343.14,38.38,343.14z M36.75,343.14h-0.49
			c-0.05,0-0.08-0.04-0.08-0.08c0-0.05,0.04-0.08,0.08-0.08h0.49c0.04,0,0.08,0.04,0.08,0.08C36.83,343.1,36.79,343.14,36.75,343.14
			z M35.12,343.14h-0.49c-0.04,0-0.08-0.04-0.08-0.08c0-0.05,0.04-0.08,0.08-0.08h0.49c0.04,0,0.08,0.04,0.08,0.08
			C35.2,343.1,35.17,343.14,35.12,343.14z M33.49,343.14h-0.49c-0.05,0-0.08-0.04-0.08-0.08c0-0.05,0.04-0.08,0.08-0.08h0.49
			c0.04,0,0.08,0.04,0.08,0.08C33.58,343.1,33.54,343.14,33.49,343.14z M31.87,343.14h-0.49c-0.05,0-0.08-0.04-0.08-0.08
			c0-0.05,0.04-0.08,0.08-0.08h0.49c0.04,0,0.08,0.04,0.08,0.08C31.95,343.1,31.91,343.14,31.87,343.14z M30.24,343.14h-0.49
			c-0.05,0-0.08-0.04-0.08-0.08c0-0.05,0.04-0.08,0.08-0.08h0.49c0.04,0,0.08,0.04,0.08,0.08C30.32,343.1,30.28,343.14,30.24,343.14
			z M28.61,343.14h-0.49c-0.04,0-0.08-0.04-0.08-0.08c0-0.05,0.04-0.08,0.08-0.08h0.49c0.04,0,0.08,0.04,0.08,0.08
			C28.69,343.1,28.65,343.14,28.61,343.14z M26.98,343.14h-0.49c-0.05,0-0.08-0.04-0.08-0.08c0-0.05,0.04-0.08,0.08-0.08h0.49
			c0.04,0,0.08,0.04,0.08,0.08C27.06,343.1,27.03,343.14,26.98,343.14z M25.35,343.14h-0.49c-0.05,0-0.08-0.04-0.08-0.08
			c0-0.05,0.04-0.08,0.08-0.08h0.49c0.04,0,0.08,0.04,0.08,0.08C25.43,343.1,25.4,343.14,25.35,343.14z M23.73,343.14h-0.49
			c-0.05,0-0.08-0.04-0.08-0.08c0-0.05,0.04-0.08,0.08-0.08h0.49c0.04,0,0.08,0.04,0.08,0.08C23.81,343.1,23.77,343.14,23.73,343.14
			z"/>
		<path class="st1" d="M39.48,322.73l0.2-2.16c0.23-0.52,0.7-0.88,1.26-0.97c2.09-0.33,7.27-0.92,9.76,0.95l0.37,2.51L39.48,322.73z
			"/>
		<path class="st1" d="M46,320.65c-0.48,0.12-0.96,0.12-1.45,0c-0.58-0.14-1-0.67-1-1.26l0-6.76H47l0,6.76
			C47,319.98,46.59,320.51,46,320.65z"/>
		<path class="st1" d="M72.81,322.73l0.2-2.16c0.23-0.52,0.7-0.88,1.26-0.97c2.09-0.33,7.27-0.92,9.76,0.95l0.37,2.51L72.81,322.73z
			"/>
		<path class="st1" d="M79.33,320.65c-0.48,0.12-0.96,0.12-1.45,0c-0.58-0.14-1-0.67-1-1.26l0-7.47h3.44l0,7.47
			C80.33,319.98,79.92,320.51,79.33,320.65z"/>
		<path class="st1" d="M43.21,314.28l37.01-1.23c0.84-0.03,1.56-0.64,1.7-1.46c0.2-1.16,0.38-2.89,0.11-4.69
			c-0.3-2.04-2.06-3.56-4.14-3.61c-6.9-0.16-24.48-0.16-34.17,3.67c-1.02,0.41-1.78,1.28-2.04,2.35c-0.25,1.02-0.41,2.38-0.09,3.76
			C41.78,313.8,42.46,314.31,43.21,314.28z"/>
		<path class="st20" d="M42.57,312.36c-0.08,0-0.15-0.06-0.16-0.15c-0.01-0.06-0.14-1.45,0.22-2.79c0.28-1.02,1.08-1.84,2.1-2.14
			c2.06-0.6,6-1.63,9.22-1.72c0.09,0,0.16,0.07,0.17,0.16c0,0.09-0.07,0.16-0.16,0.17c-3.18,0.09-7.09,1.11-9.14,1.71
			c-0.91,0.27-1.63,1-1.88,1.91c-0.35,1.28-0.21,2.66-0.21,2.67c0.01,0.09-0.06,0.17-0.15,0.18
			C42.58,312.36,42.58,312.36,42.57,312.36z"/>
		<path class="st1" d="M22.31,321.89c11.96-0.15,63.68-0.7,78.7,1.12c1.29,0.16,2.35,1.1,2.63,2.37c0.89,4.01,2.67,13.34,2.46,22.58
			c-0.03,1.26-0.95,2.32-2.19,2.55l-34.29,6.49H57.43l-36.54-7.26c-1.29-0.26-2.24-1.35-2.3-2.65c-0.24-4.65-0.61-15.56,0.65-22.58
			C19.5,323,20.79,321.91,22.31,321.89z"/>
		<path class="st6" d="M69.33,354.12h-0.49c-0.04,0-0.08-0.04-0.08-0.08s0.04-0.08,0.08-0.08h0.49c0.04,0,0.08,0.04,0.08,0.08
			S69.38,354.12,69.33,354.12z M67.7,354.12h-0.49c-0.04,0-0.08-0.04-0.08-0.08s0.04-0.08,0.08-0.08h0.49
			c0.04,0,0.08,0.04,0.08,0.08S67.75,354.12,67.7,354.12z M66.08,354.12h-0.49c-0.04,0-0.08-0.04-0.08-0.08s0.04-0.08,0.08-0.08
			h0.49c0.04,0,0.08,0.04,0.08,0.08S66.12,354.12,66.08,354.12z M64.45,354.12h-0.49c-0.04,0-0.08-0.04-0.08-0.08
			s0.04-0.08,0.08-0.08h0.49c0.04,0,0.08,0.04,0.08,0.08S64.49,354.12,64.45,354.12z M62.82,354.12h-0.49
			c-0.04,0-0.08-0.04-0.08-0.08s0.04-0.08,0.08-0.08h0.49c0.04,0,0.08,0.04,0.08,0.08S62.86,354.12,62.82,354.12z M61.19,354.12
			H60.7c-0.04,0-0.08-0.04-0.08-0.08s0.04-0.08,0.08-0.08h0.49c0.04,0,0.08,0.04,0.08,0.08S61.24,354.12,61.19,354.12z
			 M59.56,354.12h-0.49c-0.04,0-0.08-0.04-0.08-0.08s0.04-0.08,0.08-0.08h0.49c0.04,0,0.08,0.04,0.08,0.08
			S59.61,354.12,59.56,354.12z M57.94,354.12h-0.21l-0.49-0.1c-0.04-0.01-0.07-0.05-0.06-0.1c0.01-0.04,0.05-0.07,0.1-0.06l0.48,0.1
			l0.2,0c0.04,0,0.08,0.04,0.08,0.08S57.98,354.12,57.94,354.12z M70.45,353.91c-0.04,0-0.07-0.03-0.08-0.07
			c-0.01-0.04,0.02-0.09,0.06-0.1l0.48-0.09c0.04-0.01,0.09,0.02,0.1,0.06c0.01,0.04-0.02,0.09-0.06,0.1l-0.48,0.09
			C70.46,353.91,70.46,353.91,70.45,353.91z M56.13,353.8c-0.01,0-0.01,0-0.02,0l-0.48-0.1c-0.04-0.01-0.07-0.05-0.06-0.1
			c0.01-0.04,0.05-0.07,0.1-0.06l0.48,0.1c0.04,0.01,0.07,0.05,0.06,0.1C56.2,353.78,56.16,353.8,56.13,353.8z M72.05,353.61
			c-0.04,0-0.07-0.03-0.08-0.07c-0.01-0.04,0.02-0.09,0.06-0.1l0.48-0.09c0.04-0.01,0.09,0.02,0.1,0.06
			c0.01,0.04-0.02,0.09-0.06,0.1l-0.48,0.09C72.06,353.61,72.06,353.61,72.05,353.61z M54.53,353.48c-0.01,0-0.01,0-0.02,0
			l-0.48-0.1c-0.04-0.01-0.07-0.05-0.06-0.1c0.01-0.04,0.05-0.07,0.1-0.06l0.48,0.1c0.04,0.01,0.07,0.05,0.06,0.1
			C54.6,353.46,54.57,353.48,54.53,353.48z M73.65,353.3c-0.04,0-0.07-0.03-0.08-0.07c-0.01-0.04,0.02-0.09,0.06-0.1l0.48-0.09
			c0.04-0.01,0.09,0.02,0.1,0.06c0.01,0.04-0.02,0.09-0.06,0.1l-0.48,0.09C73.66,353.3,73.66,353.3,73.65,353.3z M52.93,353.17
			c-0.01,0-0.01,0-0.02,0l-0.48-0.1c-0.04-0.01-0.07-0.05-0.06-0.1c0.01-0.04,0.05-0.07,0.1-0.06l0.48,0.1
			c0.04,0.01,0.07,0.05,0.06,0.1C53,353.14,52.97,353.17,52.93,353.17z M75.25,353c-0.04,0-0.07-0.03-0.08-0.07
			c-0.01-0.04,0.02-0.09,0.06-0.1l0.48-0.09c0.04-0.01,0.09,0.02,0.1,0.06c0.01,0.04-0.02,0.09-0.06,0.1L75.27,353
			C75.26,353,75.26,353,75.25,353z M51.34,352.85c-0.01,0-0.01,0-0.02,0l-0.48-0.1c-0.04-0.01-0.07-0.05-0.06-0.1
			c0.01-0.04,0.05-0.07,0.1-0.06l0.48,0.1c0.04,0.01,0.07,0.05,0.06,0.1C51.41,352.82,51.37,352.85,51.34,352.85z M76.85,352.7
			c-0.04,0-0.07-0.03-0.08-0.07c-0.01-0.04,0.02-0.09,0.06-0.1l0.48-0.09c0.04-0.01,0.09,0.02,0.1,0.06
			c0.01,0.04-0.02,0.09-0.06,0.1l-0.48,0.09C76.86,352.7,76.85,352.7,76.85,352.7z M49.74,352.53c-0.01,0-0.01,0-0.02,0l-0.48-0.1
			c-0.04-0.01-0.07-0.05-0.06-0.1c0.01-0.04,0.05-0.07,0.1-0.06l0.48,0.1c0.04,0.01,0.07,0.05,0.06,0.1
			C49.81,352.51,49.78,352.53,49.74,352.53z M78.45,352.4c-0.04,0-0.07-0.03-0.08-0.07c-0.01-0.04,0.02-0.09,0.06-0.1l0.48-0.09
			c0.04-0.01,0.09,0.02,0.1,0.06c0.01,0.04-0.02,0.09-0.06,0.1l-0.48,0.09C78.46,352.39,78.45,352.4,78.45,352.4z M48.14,352.22
			c-0.01,0-0.01,0-0.02,0l-0.48-0.1c-0.04-0.01-0.07-0.05-0.06-0.1c0.01-0.04,0.05-0.07,0.1-0.06l0.48,0.1
			c0.04,0.01,0.07,0.05,0.06,0.1C48.21,352.19,48.18,352.22,48.14,352.22z M80.05,352.09c-0.04,0-0.07-0.03-0.08-0.07
			c-0.01-0.04,0.02-0.09,0.06-0.1l0.48-0.09c0.04-0.01,0.09,0.02,0.1,0.06c0.01,0.04-0.02,0.09-0.06,0.1l-0.48,0.09
			C80.06,352.09,80.05,352.09,80.05,352.09z M46.55,351.9c-0.01,0-0.01,0-0.02,0l-0.48-0.1c-0.04-0.01-0.07-0.05-0.06-0.1
			c0.01-0.04,0.05-0.07,0.1-0.06l0.48,0.1c0.04,0.01,0.07,0.05,0.06,0.1C46.62,351.87,46.58,351.9,46.55,351.9z M81.65,351.79
			c-0.04,0-0.07-0.03-0.08-0.07c-0.01-0.04,0.02-0.09,0.06-0.1l0.48-0.09c0.04-0.01,0.09,0.02,0.1,0.06
			c0.01,0.04-0.02,0.09-0.06,0.1l-0.48,0.09C81.66,351.79,81.65,351.79,81.65,351.79z M44.95,351.58c-0.01,0-0.01,0-0.02,0
			l-0.48-0.1c-0.04-0.01-0.07-0.05-0.06-0.1c0.01-0.04,0.05-0.07,0.1-0.06l0.48,0.1c0.04,0.01,0.07,0.05,0.06,0.1
			C45.02,351.55,44.99,351.58,44.95,351.58z M83.25,351.49c-0.04,0-0.07-0.03-0.08-0.07c-0.01-0.04,0.02-0.09,0.06-0.1l0.48-0.09
			c0.04-0.01,0.09,0.02,0.1,0.06c0.01,0.04-0.02,0.09-0.06,0.1l-0.48,0.09C83.26,351.49,83.25,351.49,83.25,351.49z M43.35,351.26
			c-0.01,0-0.01,0-0.02,0l-0.48-0.1c-0.04-0.01-0.07-0.05-0.06-0.1c0.01-0.04,0.05-0.07,0.1-0.06l0.48,0.1
			c0.04,0.01,0.07,0.05,0.06,0.1C43.42,351.24,43.39,351.26,43.35,351.26z M84.85,351.18c-0.04,0-0.07-0.03-0.08-0.07
			c-0.01-0.04,0.02-0.09,0.06-0.1l0.48-0.09c0.04-0.01,0.09,0.02,0.1,0.06c0.01,0.04-0.02,0.09-0.06,0.1l-0.48,0.09
			C84.86,351.18,84.85,351.18,84.85,351.18z M41.75,350.95c-0.01,0-0.01,0-0.02,0l-0.48-0.1c-0.04-0.01-0.07-0.05-0.06-0.1
			c0.01-0.04,0.05-0.07,0.1-0.06l0.48,0.1c0.04,0.01,0.07,0.05,0.06,0.1C41.83,350.92,41.79,350.95,41.75,350.95z M86.45,350.88
			c-0.04,0-0.07-0.03-0.08-0.07c-0.01-0.04,0.02-0.09,0.06-0.1l0.48-0.09c0.04-0.01,0.09,0.02,0.1,0.06
			c0.01,0.04-0.02,0.09-0.06,0.1l-0.48,0.09C86.46,350.88,86.45,350.88,86.45,350.88z M40.16,350.63c-0.01,0-0.01,0-0.02,0
			l-0.48-0.1c-0.04-0.01-0.07-0.05-0.06-0.1c0.01-0.04,0.05-0.07,0.1-0.06l0.48,0.1c0.04,0.01,0.07,0.05,0.06,0.1
			C40.23,350.6,40.2,350.63,40.16,350.63z M88.05,350.58c-0.04,0-0.07-0.03-0.08-0.07c-0.01-0.04,0.02-0.09,0.06-0.1l0.48-0.09
			c0.04-0.01,0.09,0.02,0.1,0.06c0.01,0.04-0.02,0.09-0.06,0.1l-0.48,0.09C88.06,350.58,88.05,350.58,88.05,350.58z M38.56,350.31
			c-0.01,0-0.01,0-0.02,0l-0.48-0.1c-0.04-0.01-0.07-0.05-0.06-0.1c0.01-0.04,0.05-0.07,0.1-0.06l0.48,0.1
			c0.04,0.01,0.07,0.05,0.06,0.1C38.63,350.28,38.6,350.31,38.56,350.31z M89.65,350.28c-0.04,0-0.07-0.03-0.08-0.07
			c-0.01-0.04,0.02-0.09,0.06-0.1l0.48-0.09c0.04-0.01,0.09,0.02,0.1,0.06c0.01,0.04-0.02,0.09-0.06,0.1l-0.48,0.09
			C89.66,350.28,89.65,350.28,89.65,350.28z M36.96,349.99c-0.01,0-0.01,0-0.02,0l-0.48-0.1c-0.04-0.01-0.07-0.05-0.06-0.1
			c0.01-0.04,0.05-0.07,0.1-0.06l0.48,0.1c0.04,0.01,0.07,0.05,0.06,0.1C37.04,349.97,37,349.99,36.96,349.99z M91.25,349.97
			c-0.04,0-0.07-0.03-0.08-0.07c-0.01-0.04,0.02-0.09,0.06-0.1l0.48-0.09c0.04-0.01,0.09,0.02,0.1,0.06
			c0.01,0.04-0.02,0.09-0.06,0.1l-0.48,0.09C91.26,349.97,91.25,349.97,91.25,349.97z M35.37,349.68c-0.01,0-0.01,0-0.02,0
			l-0.48-0.1c-0.04-0.01-0.07-0.05-0.06-0.1c0.01-0.04,0.05-0.07,0.1-0.06l0.48,0.1c0.04,0.01,0.07,0.05,0.06,0.1
			C35.44,349.65,35.41,349.68,35.37,349.68z M92.85,349.67c-0.04,0-0.07-0.03-0.08-0.07c-0.01-0.04,0.02-0.09,0.06-0.1l0.48-0.09
			c0.04-0.01,0.09,0.02,0.1,0.06c0.01,0.04-0.02,0.09-0.06,0.1l-0.48,0.09C92.86,349.67,92.85,349.67,92.85,349.67z M94.45,349.37
			c-0.04,0-0.07-0.03-0.08-0.07c-0.01-0.04,0.02-0.09,0.06-0.1l0.48-0.09c0.04-0.01,0.09,0.02,0.1,0.06
			c0.01,0.04-0.02,0.09-0.06,0.1l-0.48,0.09C94.46,349.37,94.45,349.37,94.45,349.37z M33.77,349.36c-0.01,0-0.01,0-0.02,0
			l-0.48-0.1c-0.04-0.01-0.07-0.05-0.06-0.1c0.01-0.04,0.05-0.07,0.1-0.06l0.48,0.1c0.04,0.01,0.07,0.05,0.06,0.1
			C33.84,349.33,33.81,349.36,33.77,349.36z M96.05,349.07c-0.04,0-0.07-0.03-0.08-0.07c-0.01-0.04,0.02-0.09,0.06-0.1l0.48-0.09
			c0.04-0.01,0.09,0.02,0.1,0.06c0.01,0.04-0.02,0.09-0.06,0.1l-0.48,0.09C96.06,349.07,96.05,349.07,96.05,349.07z M32.17,349.04
			c-0.01,0-0.01,0-0.02,0l-0.48-0.1c-0.04-0.01-0.07-0.05-0.06-0.1c0.01-0.04,0.05-0.07,0.1-0.06l0.48,0.1
			c0.04,0.01,0.07,0.05,0.06,0.1C32.25,349.01,32.21,349.04,32.17,349.04z M97.65,348.76c-0.04,0-0.07-0.03-0.08-0.07
			c-0.01-0.04,0.02-0.09,0.06-0.1l0.48-0.09c0.04-0.01,0.09,0.02,0.1,0.06c0.01,0.04-0.02,0.09-0.06,0.1l-0.48,0.09
			C97.66,348.76,97.65,348.76,97.65,348.76z M30.58,348.72c-0.01,0-0.01,0-0.02,0l-0.48-0.1c-0.04-0.01-0.07-0.05-0.06-0.1
			c0.01-0.04,0.05-0.07,0.1-0.06l0.48,0.1c0.04,0.01,0.07,0.05,0.06,0.1C30.65,348.7,30.62,348.72,30.58,348.72z M99.25,348.46
			c-0.04,0-0.07-0.03-0.08-0.07c-0.01-0.04,0.02-0.09,0.06-0.1l0.48-0.09c0.04-0.01,0.09,0.02,0.1,0.06
			c0.01,0.04-0.02,0.09-0.06,0.1l-0.48,0.09C99.26,348.46,99.25,348.46,99.25,348.46z M28.98,348.41c-0.01,0-0.01,0-0.02,0
			l-0.48-0.1c-0.04-0.01-0.07-0.05-0.06-0.1c0.01-0.04,0.05-0.07,0.1-0.06l0.48,0.1c0.04,0.01,0.07,0.05,0.06,0.1
			C29.05,348.38,29.02,348.41,28.98,348.41z M100.84,348.16c-0.04,0-0.07-0.03-0.08-0.07c-0.01-0.04,0.02-0.09,0.06-0.1l0.48-0.09
			c0.04-0.01,0.09,0.02,0.1,0.06c0.01,0.04-0.02,0.09-0.06,0.1l-0.48,0.09C100.85,348.16,100.85,348.16,100.84,348.16z
			 M27.38,348.09c-0.01,0-0.01,0-0.02,0l-0.48-0.1c-0.04-0.01-0.07-0.05-0.06-0.1c0.01-0.04,0.05-0.07,0.1-0.06l0.48,0.1
			c0.04,0.01,0.07,0.05,0.06,0.1C27.46,348.06,27.42,348.09,27.38,348.09z M102.44,347.86c-0.04,0-0.07-0.03-0.08-0.07
			c-0.01-0.04,0.02-0.09,0.06-0.1l0.48-0.09c0.04-0.01,0.09,0.02,0.1,0.06c0.01,0.04-0.02,0.09-0.06,0.1l-0.48,0.09
			C102.45,347.86,102.45,347.86,102.44,347.86z M25.79,347.77c-0.01,0-0.01,0-0.02,0l-0.48-0.1c-0.04-0.01-0.07-0.05-0.06-0.1
			c0.01-0.04,0.05-0.07,0.1-0.06l0.48,0.1c0.04,0.01,0.07,0.05,0.06,0.1C25.86,347.74,25.82,347.77,25.79,347.77z M24.19,347.45
			c-0.01,0-0.01,0-0.02,0l-0.48-0.1c-0.04-0.01-0.07-0.05-0.06-0.1c0.01-0.04,0.05-0.07,0.1-0.06l0.48,0.1
			c0.04,0.01,0.07,0.05,0.06,0.1C24.26,347.43,24.23,347.45,24.19,347.45z M22.59,347.14c-0.01,0-0.01,0-0.02,0l-0.48-0.1
			c-0.04-0.01-0.07-0.05-0.06-0.1c0.01-0.04,0.05-0.07,0.1-0.06l0.48,0.1c0.04,0.01,0.07,0.05,0.06,0.1
			C22.67,347.11,22.63,347.14,22.59,347.14z M103.16,346.81L103.16,346.81c-0.05,0-0.08-0.04-0.08-0.08l0-0.29l0-0.19
			c0-0.04,0.04-0.08,0.08-0.08h0c0.04,0,0.08,0.04,0.08,0.08l0,0.19l0,0.3C103.24,346.78,103.21,346.81,103.16,346.81z
			 M21.51,346.38c-0.04,0-0.08-0.03-0.08-0.08c-0.01-0.16-0.02-0.32-0.02-0.49c0-0.04,0.03-0.08,0.08-0.08
			c0.05,0,0.08,0.03,0.08,0.08c0.01,0.17,0.02,0.33,0.02,0.49C21.59,346.34,21.56,346.38,21.51,346.38
			C21.51,346.38,21.51,346.38,21.51,346.38z M103.15,345.18c-0.04,0-0.08-0.04-0.08-0.08c0-0.16-0.01-0.33-0.01-0.49
			c0-0.04,0.03-0.08,0.08-0.08c0.05,0,0.08,0.03,0.08,0.08c0,0.16,0.01,0.33,0.01,0.49C103.23,345.15,103.2,345.18,103.15,345.18
			L103.15,345.18z M21.44,344.75c-0.04,0-0.08-0.03-0.08-0.08l-0.02-0.49c0-0.04,0.03-0.08,0.08-0.08c0.04,0,0.08,0.03,0.08,0.08
			l0.02,0.49C21.52,344.71,21.49,344.75,21.44,344.75C21.44,344.75,21.44,344.75,21.44,344.75z M103.1,343.56
			c-0.04,0-0.08-0.03-0.08-0.08c-0.01-0.16-0.01-0.32-0.02-0.49c0-0.04,0.03-0.08,0.08-0.09c0.04,0,0.08,0.03,0.09,0.08
			c0.01,0.16,0.01,0.32,0.02,0.49C103.18,343.52,103.15,343.56,103.1,343.56C103.1,343.56,103.1,343.56,103.1,343.56z M21.38,343.12
			c-0.04,0-0.08-0.03-0.08-0.08l-0.01-0.49c0-0.04,0.03-0.08,0.08-0.08c0.05,0,0.08,0.03,0.08,0.08l0.01,0.49
			C21.46,343.08,21.43,343.12,21.38,343.12L21.38,343.12z M103.02,341.93c-0.04,0-0.08-0.03-0.08-0.08
			c-0.01-0.16-0.02-0.33-0.03-0.49c0-0.04,0.03-0.08,0.08-0.09c0.05,0,0.08,0.03,0.09,0.08c0.01,0.16,0.02,0.32,0.03,0.49
			C103.1,341.89,103.07,341.93,103.02,341.93C103.02,341.93,103.02,341.93,103.02,341.93z M21.34,341.5c-0.04,0-0.08-0.04-0.08-0.08
			l-0.01-0.49c0-0.04,0.03-0.08,0.08-0.08c0.04,0,0.08,0.03,0.08,0.08l0.01,0.49C21.42,341.46,21.39,341.49,21.34,341.5L21.34,341.5
			z M102.9,340.31c-0.04,0-0.08-0.03-0.08-0.07c-0.01-0.16-0.03-0.32-0.04-0.49c0-0.04,0.03-0.08,0.07-0.09
			c0.04-0.01,0.08,0.03,0.09,0.07c0.01,0.16,0.03,0.32,0.04,0.49C102.98,340.27,102.95,340.31,102.9,340.31
			C102.9,340.31,102.9,340.31,102.9,340.31z M21.31,339.87c-0.04,0-0.08-0.04-0.08-0.08l-0.01-0.49c0-0.04,0.04-0.08,0.08-0.08h0
			c0.04,0,0.08,0.04,0.08,0.08l0.01,0.49C21.39,339.83,21.36,339.87,21.31,339.87L21.31,339.87z M102.76,338.69
			c-0.04,0-0.08-0.03-0.08-0.07c-0.02-0.16-0.03-0.32-0.05-0.49c0-0.04,0.03-0.08,0.07-0.09c0.05,0,0.08,0.03,0.09,0.07
			c0.02,0.16,0.03,0.32,0.05,0.49C102.84,338.64,102.81,338.68,102.76,338.69C102.76,338.69,102.76,338.69,102.76,338.69z
			 M21.3,338.24c-0.04,0-0.08-0.04-0.08-0.08l0-0.28l0-0.21c0-0.04,0.04-0.08,0.08-0.08h0c0.04,0,0.08,0.04,0.08,0.08l0,0.21l0,0.28
			C21.38,338.2,21.35,338.24,21.3,338.24L21.3,338.24z M102.58,337.07c-0.04,0-0.08-0.03-0.08-0.07c-0.02-0.16-0.04-0.32-0.06-0.48
			c-0.01-0.04,0.03-0.09,0.07-0.09c0.05-0.01,0.09,0.03,0.09,0.07c0.02,0.16,0.04,0.32,0.06,0.49
			C102.67,337.02,102.64,337.06,102.58,337.07C102.59,337.07,102.59,337.07,102.58,337.07z M21.31,336.61L21.31,336.61
			c-0.05,0-0.08-0.04-0.08-0.08c0-0.16,0-0.32,0.01-0.49c0-0.04,0.04-0.08,0.08-0.08h0c0.05,0,0.08,0.04,0.08,0.08
			c0,0.16,0,0.33-0.01,0.49C21.39,336.58,21.35,336.61,21.31,336.61z M102.39,335.45c-0.04,0-0.08-0.03-0.08-0.07
			c-0.02-0.16-0.04-0.32-0.06-0.48c-0.01-0.04,0.03-0.09,0.07-0.09c0.05-0.01,0.09,0.03,0.09,0.07c0.02,0.16,0.04,0.32,0.06,0.48
			c0.01,0.04-0.03,0.09-0.07,0.09C102.39,335.45,102.39,335.45,102.39,335.45z M21.33,334.98
			C21.33,334.98,21.33,334.98,21.33,334.98c-0.05,0-0.08-0.04-0.08-0.08c0-0.16,0.01-0.33,0.01-0.49c0-0.05,0.04-0.08,0.08-0.08
			c0.04,0,0.08,0.04,0.08,0.08c0,0.16-0.01,0.33-0.01,0.49C21.41,334.95,21.38,334.98,21.33,334.98z M102.16,333.84
			c-0.04,0-0.07-0.03-0.08-0.07c-0.02-0.16-0.05-0.32-0.07-0.48c-0.01-0.04,0.02-0.09,0.07-0.09c0.04-0.01,0.09,0.02,0.09,0.07
			c0.02,0.16,0.05,0.32,0.07,0.48c0.01,0.04-0.02,0.09-0.07,0.09C102.17,333.84,102.17,333.84,102.16,333.84z M21.38,333.36
			L21.38,333.36c-0.05,0-0.08-0.04-0.08-0.08c0.01-0.16,0.01-0.33,0.02-0.49c0-0.04,0.04-0.08,0.08-0.08c0.04,0,0.08,0.04,0.08,0.08
			c-0.01,0.16-0.01,0.33-0.02,0.49C21.46,333.32,21.42,333.36,21.38,333.36z M101.92,332.23c-0.04,0-0.07-0.03-0.08-0.07
			c-0.03-0.16-0.05-0.32-0.08-0.48c-0.01-0.04,0.02-0.09,0.07-0.09c0.05-0.01,0.09,0.02,0.09,0.07c0.03,0.16,0.05,0.32,0.08,0.48
			c0.01,0.04-0.02,0.09-0.07,0.09C101.92,332.23,101.92,332.23,101.92,332.23z M21.45,331.73
			C21.45,331.73,21.45,331.73,21.45,331.73c-0.05,0-0.08-0.04-0.08-0.09c0.01-0.16,0.02-0.33,0.03-0.49c0-0.04,0.04-0.08,0.09-0.08
			c0.04,0,0.08,0.04,0.08,0.09c-0.01,0.16-0.02,0.33-0.03,0.49C21.53,331.7,21.49,331.73,21.45,331.73z M101.65,330.62
			c-0.04,0-0.07-0.03-0.08-0.07c-0.03-0.16-0.06-0.32-0.09-0.48c-0.01-0.04,0.02-0.09,0.07-0.09c0.04-0.01,0.09,0.02,0.09,0.07
			c0.03,0.16,0.06,0.32,0.09,0.48c0.01,0.04-0.02,0.09-0.07,0.09C101.65,330.62,101.65,330.62,101.65,330.62z M21.55,330.1
			C21.55,330.1,21.55,330.1,21.55,330.1c-0.05,0-0.08-0.04-0.08-0.09c0.01-0.16,0.02-0.33,0.04-0.49c0-0.04,0.04-0.08,0.09-0.07
			c0.04,0,0.08,0.04,0.07,0.09c-0.01,0.16-0.03,0.32-0.04,0.49C21.63,330.07,21.6,330.1,21.55,330.1z M101.35,329.02
			c-0.04,0-0.07-0.03-0.08-0.07c-0.03-0.16-0.06-0.32-0.09-0.48c-0.01-0.04,0.02-0.09,0.06-0.1c0.04-0.01,0.09,0.02,0.1,0.06
			c0.03,0.16,0.06,0.32,0.09,0.48c0.01,0.04-0.02,0.09-0.06,0.1C101.36,329.02,101.36,329.02,101.35,329.02z M21.69,328.48
			C21.69,328.48,21.69,328.48,21.69,328.48c-0.05,0-0.09-0.04-0.08-0.09c0.02-0.16,0.03-0.33,0.05-0.49c0-0.04,0.04-0.08,0.09-0.07
			c0.04,0,0.08,0.04,0.07,0.09c-0.02,0.16-0.03,0.32-0.05,0.49C21.77,328.45,21.73,328.48,21.69,328.48z M101.04,327.42
			c-0.04,0-0.07-0.03-0.08-0.06c-0.03-0.17-0.07-0.33-0.1-0.48c-0.01-0.04,0.02-0.09,0.06-0.1c0.04-0.01,0.09,0.02,0.1,0.06
			c0.03,0.15,0.07,0.31,0.1,0.48c0.01,0.04-0.02,0.09-0.06,0.1C101.05,327.42,101.04,327.42,101.04,327.42z M21.87,326.86
			c0,0-0.01,0-0.01,0c-0.04-0.01-0.08-0.05-0.07-0.09c0.02-0.16,0.04-0.32,0.07-0.49c0.01-0.04,0.05-0.07,0.09-0.07
			c0.04,0.01,0.08,0.05,0.07,0.09c-0.02,0.16-0.04,0.32-0.07,0.48C21.95,326.83,21.92,326.86,21.87,326.86z M100.51,326
			C100.51,326,100.51,326,100.51,326c-0.17-0.02-0.33-0.04-0.49-0.06c-0.04,0-0.08-0.05-0.07-0.09c0-0.04,0.04-0.08,0.09-0.07
			c0.17,0.02,0.33,0.04,0.49,0.05c0.04,0.01,0.08,0.05,0.07,0.09C100.59,325.97,100.55,326,100.51,326z M98.89,325.83
			C98.89,325.83,98.89,325.83,98.89,325.83c-0.17-0.02-0.33-0.03-0.49-0.04c-0.04,0-0.08-0.04-0.07-0.09c0-0.04,0.04-0.08,0.09-0.07
			c0.17,0.01,0.33,0.03,0.49,0.04c0.04,0,0.08,0.04,0.07,0.09C98.97,325.8,98.94,325.83,98.89,325.83z M97.27,325.7
			C97.27,325.7,97.27,325.7,97.27,325.7c-0.17-0.01-0.33-0.02-0.49-0.04c-0.04,0-0.08-0.04-0.08-0.09c0-0.04,0.04-0.08,0.09-0.08
			c0.17,0.01,0.33,0.02,0.49,0.04c0.04,0,0.08,0.04,0.07,0.09C97.35,325.66,97.31,325.7,97.27,325.7z M95.65,325.58
			C95.65,325.58,95.64,325.58,95.65,325.58l-0.49-0.03c-0.04,0-0.08-0.04-0.08-0.09c0-0.04,0.04-0.08,0.09-0.08l0.49,0.03
			c0.04,0,0.08,0.04,0.08,0.09C95.73,325.55,95.69,325.58,95.65,325.58z M94.02,325.48C94.02,325.48,94.02,325.48,94.02,325.48
			l-0.49-0.03c-0.04,0-0.08-0.04-0.08-0.09c0-0.05,0.04-0.08,0.09-0.08l0.49,0.03c0.04,0,0.08,0.04,0.08,0.09
			C94.1,325.45,94.07,325.48,94.02,325.48z M92.4,325.4C92.4,325.4,92.39,325.4,92.4,325.4l-0.49-0.02c-0.04,0-0.08-0.04-0.08-0.09
			c0-0.04,0.04-0.08,0.09-0.08l0.49,0.02c0.04,0,0.08,0.04,0.08,0.09C92.48,325.36,92.44,325.4,92.4,325.4z M90.77,325.32
			L90.77,325.32l-0.49-0.02c-0.04,0-0.08-0.04-0.08-0.08c0-0.04,0.04-0.08,0.08-0.08l0.49,0.02c0.04,0,0.08,0.04,0.08,0.08
			C90.85,325.29,90.81,325.32,90.77,325.32z M89.14,325.25C89.14,325.25,89.14,325.25,89.14,325.25l-0.49-0.02
			c-0.04,0-0.08-0.04-0.08-0.08c0-0.04,0.04-0.08,0.08-0.08l0.49,0.02c0.04,0,0.08,0.04,0.08,0.08
			C89.22,325.22,89.19,325.25,89.14,325.25z M22.12,325.25c0,0-0.01,0-0.01,0c-0.04-0.01-0.07-0.05-0.07-0.09l0.03-0.15
			c0.02-0.14,0.14-0.24,0.28-0.24l0.04,0c0.05-0.01,0.08,0.04,0.08,0.08c0,0.04-0.04,0.08-0.08,0.08l-0.04,0
			c-0.06,0-0.11,0.04-0.12,0.11l-0.03,0.15C22.19,325.22,22.16,325.25,22.12,325.25z M87.52,325.19L87.52,325.19l-0.49-0.02
			c-0.04,0-0.08-0.04-0.08-0.08c0-0.04,0.04-0.08,0.08-0.08l0.49,0.02c0.04,0,0.08,0.04,0.08,0.08
			C87.6,325.16,87.56,325.19,87.52,325.19z M85.89,325.14C85.89,325.14,85.89,325.14,85.89,325.14l-0.49-0.02
			c-0.04,0-0.08-0.04-0.08-0.08c0-0.04,0.04-0.08,0.08-0.08l0.49,0.02c0.04,0,0.08,0.04,0.08,0.08
			C85.97,325.1,85.93,325.14,85.89,325.14z M84.26,325.09C84.26,325.09,84.26,325.09,84.26,325.09l-0.49-0.01
			c-0.04,0-0.08-0.04-0.08-0.08c0-0.05,0.04-0.08,0.08-0.08l0.49,0.01c0.04,0,0.08,0.04,0.08,0.08
			C84.34,325.05,84.31,325.09,84.26,325.09z M82.63,325.04C82.63,325.04,82.63,325.04,82.63,325.04l-0.49-0.01
			c-0.04,0-0.08-0.04-0.08-0.08c0-0.04,0.03-0.08,0.08-0.08l0.49,0.01c0.04,0,0.08,0.04,0.08,0.08
			C82.71,325.01,82.68,325.04,82.63,325.04z M81.01,325L81.01,325l-0.49-0.01c-0.04,0-0.08-0.04-0.08-0.08
			c0-0.04,0.03-0.08,0.08-0.08l0.49,0.01c0.04,0,0.08,0.04,0.08,0.08C81.09,324.97,81.05,325,81.01,325z M79.38,324.97
			C79.38,324.97,79.38,324.97,79.38,324.97l-0.49-0.01c-0.04,0-0.08-0.04-0.08-0.08c0-0.04,0.04-0.08,0.08-0.08l0.49,0.01
			c0.04,0,0.08,0.04,0.08,0.08C79.46,324.93,79.42,324.97,79.38,324.97z M77.75,324.93L77.75,324.93l-0.49-0.01
			c-0.04,0-0.08-0.04-0.08-0.08c0-0.04,0.04-0.08,0.08-0.08l0.49,0.01c0.04,0,0.08,0.04,0.08,0.08
			C77.83,324.9,77.8,324.93,77.75,324.93z M23.53,324.91c-0.04,0-0.08-0.04-0.08-0.08c0-0.04,0.04-0.08,0.08-0.08l0.49-0.01
			c0.04,0,0.08,0.04,0.08,0.08c0,0.04-0.04,0.08-0.08,0.08L23.53,324.91L23.53,324.91z M76.12,324.91L76.12,324.91l-0.49-0.01
			c-0.04,0-0.08-0.04-0.08-0.08c0-0.04,0.04-0.08,0.08-0.08h0l0.49,0.01c0.04,0,0.08,0.04,0.08,0.08
			C76.2,324.87,76.17,324.91,76.12,324.91z M25.16,324.89c-0.04,0-0.08-0.04-0.08-0.08c0-0.05,0.04-0.08,0.08-0.08l0.49-0.01
			c0.05,0,0.08,0.04,0.08,0.08s-0.04,0.08-0.08,0.08L25.16,324.89L25.16,324.89z M74.5,324.88L74.5,324.88l-0.49-0.01
			c-0.04,0-0.08-0.04-0.08-0.08c0-0.04,0.03-0.08,0.08-0.08l0.49,0.01c0.04,0,0.08,0.04,0.08,0.08
			C74.58,324.84,74.54,324.88,74.5,324.88z M26.79,324.87c-0.04,0-0.08-0.04-0.08-0.08c0-0.04,0.04-0.08,0.08-0.08l0.49-0.01
			c0.05,0,0.08,0.04,0.08,0.08c0,0.04-0.04,0.08-0.08,0.08L26.79,324.87L26.79,324.87z M28.42,324.86c-0.04,0-0.08-0.04-0.08-0.08
			c0-0.04,0.04-0.08,0.08-0.08l0.49,0c0.05,0,0.08,0.04,0.08,0.08c0,0.04-0.04,0.08-0.08,0.08L28.42,324.86L28.42,324.86z
			 M72.87,324.85L72.87,324.85l-0.49-0.01c-0.04,0-0.08-0.04-0.08-0.08c0-0.04,0.04-0.08,0.08-0.08h0l0.49,0.01
			c0.04,0,0.08,0.04,0.08,0.08C72.95,324.82,72.91,324.85,72.87,324.85z M30.05,324.84c-0.04,0-0.08-0.04-0.08-0.08
			c0-0.05,0.04-0.08,0.08-0.08l0.49,0c0.05,0,0.08,0.04,0.08,0.08c0,0.04-0.04,0.08-0.08,0.08L30.05,324.84L30.05,324.84z
			 M71.24,324.83L71.24,324.83l-0.49-0.01c-0.04,0-0.08-0.04-0.08-0.08c0-0.05,0.04-0.08,0.08-0.08l0.49,0.01
			c0.04,0,0.08,0.04,0.08,0.08C71.32,324.8,71.28,324.83,71.24,324.83z M31.67,324.83c-0.04,0-0.08-0.04-0.08-0.08
			c0-0.04,0.04-0.08,0.08-0.08l0.49,0h0c0.04,0,0.08,0.04,0.08,0.08c0,0.04-0.04,0.08-0.08,0.08L31.67,324.83L31.67,324.83z
			 M69.61,324.81L69.61,324.81l-0.49-0.01c-0.04,0-0.08-0.04-0.08-0.08c0-0.04,0.04-0.08,0.08-0.08l0.49,0.01
			c0.04,0,0.08,0.04,0.08,0.08C69.69,324.78,69.66,324.81,69.61,324.81z M33.3,324.81c-0.04,0-0.08-0.04-0.08-0.08
			c0-0.04,0.04-0.08,0.08-0.08l0.49,0h0c0.04,0,0.08,0.04,0.08,0.08c0,0.04-0.04,0.08-0.08,0.08L33.3,324.81L33.3,324.81z
			 M34.93,324.8c-0.04,0-0.08-0.04-0.08-0.08c0-0.04,0.04-0.08,0.08-0.08l0.49,0h0c0.04,0,0.08,0.04,0.08,0.08
			c0,0.04-0.04,0.08-0.08,0.08L34.93,324.8C34.93,324.8,34.93,324.8,34.93,324.8z M67.98,324.8L67.98,324.8l-0.49,0
			c-0.04,0-0.08-0.04-0.08-0.08c0-0.04,0.04-0.08,0.08-0.08h0l0.49,0c0.05,0,0.08,0.04,0.08,0.08
			C68.06,324.76,68.03,324.8,67.98,324.8z M36.56,324.79c-0.04,0-0.08-0.04-0.08-0.08c0-0.04,0.04-0.08,0.08-0.08l0.49,0
			c0.04,0,0.08,0.04,0.08,0.08c0,0.04-0.04,0.08-0.08,0.08L36.56,324.79L36.56,324.79z M66.36,324.78L66.36,324.78l-0.49,0
			c-0.04,0-0.08-0.04-0.08-0.08c0-0.04,0.04-0.08,0.08-0.08h0l0.49,0c0.04,0,0.08,0.04,0.08,0.08
			C66.44,324.75,66.4,324.78,66.36,324.78z M38.19,324.78c-0.04,0-0.08-0.04-0.08-0.08c0-0.04,0.04-0.08,0.08-0.08l0.49,0h0
			c0.04,0,0.08,0.04,0.08,0.08c0,0.04-0.04,0.08-0.08,0.08L38.19,324.78L38.19,324.78z M64.73,324.77L64.73,324.77l-0.49,0
			c-0.04,0-0.08-0.04-0.08-0.08c0-0.05,0.04-0.09,0.08-0.08l0.49,0c0.04,0,0.08,0.04,0.08,0.08
			C64.81,324.73,64.77,324.77,64.73,324.77z M39.82,324.77c-0.04,0-0.08-0.04-0.08-0.08c0-0.04,0.04-0.08,0.08-0.08l0.49,0h0
			c0.04,0,0.08,0.04,0.08,0.08c0,0.04-0.04,0.08-0.08,0.08L39.82,324.77L39.82,324.77z M63.1,324.76L63.1,324.76l-0.49,0
			c-0.04,0-0.08-0.04-0.08-0.08c0-0.04,0.04-0.08,0.08-0.08l0.49,0c0.05,0,0.08,0.04,0.08,0.08
			C63.18,324.72,63.14,324.76,63.1,324.76z M41.45,324.76c-0.04,0-0.08-0.04-0.08-0.08c0-0.04,0.04-0.08,0.08-0.08l0.49,0h0
			c0.04,0,0.08,0.04,0.08,0.08c0,0.04-0.04,0.08-0.08,0.08L41.45,324.76L41.45,324.76z M61.47,324.75L61.47,324.75l-0.49,0
			c-0.04,0-0.08-0.04-0.08-0.08c0-0.04,0.04-0.08,0.08-0.08h0l0.49,0c0.04,0,0.08,0.04,0.08,0.08
			C61.55,324.71,61.52,324.75,61.47,324.75z M43.07,324.75c-0.04,0-0.08-0.04-0.08-0.08c0-0.04,0.04-0.08,0.08-0.08l0.49,0h0
			c0.04,0,0.08,0.04,0.08,0.08c0,0.04-0.04,0.08-0.08,0.08L43.07,324.75L43.07,324.75z M44.7,324.74c-0.04,0-0.08-0.04-0.08-0.08
			s0.04-0.08,0.08-0.08l0.49,0h0c0.04,0,0.08,0.04,0.08,0.08c0,0.04-0.04,0.08-0.08,0.08L44.7,324.74L44.7,324.74z M59.84,324.74
			L59.84,324.74l-0.49,0c-0.04,0-0.08-0.04-0.08-0.08c0-0.04,0.04-0.08,0.08-0.08h0l0.49,0c0.05,0,0.08,0.04,0.08,0.08
			C59.92,324.71,59.89,324.74,59.84,324.74z M46.33,324.74c-0.04,0-0.08-0.04-0.08-0.08c0-0.05,0.04-0.08,0.08-0.08l0.49,0h0
			c0.04,0,0.08,0.04,0.08,0.08c0,0.04-0.04,0.08-0.08,0.08L46.33,324.74L46.33,324.74z M58.22,324.74L58.22,324.74l-0.49,0
			c-0.05,0-0.08-0.04-0.08-0.08c0-0.04,0.04-0.08,0.08-0.08h0l0.49,0c0.04,0,0.08,0.04,0.08,0.08
			C58.3,324.7,58.26,324.74,58.22,324.74z M47.96,324.73c-0.04,0-0.08-0.04-0.08-0.08c0-0.04,0.04-0.08,0.08-0.08l0.49,0h0
			c0.04,0,0.08,0.04,0.08,0.08c0,0.05-0.04,0.08-0.08,0.08L47.96,324.73L47.96,324.73z M56.59,324.73L56.59,324.73l-0.49,0
			c-0.05,0-0.08-0.04-0.08-0.08c0-0.04,0.04-0.08,0.08-0.08h0l0.49,0c0.05,0,0.08,0.04,0.08,0.08
			C56.67,324.7,56.63,324.73,56.59,324.73z M49.59,324.73c-0.04,0-0.08-0.04-0.08-0.08c0-0.04,0.04-0.08,0.08-0.08l0.49,0
			c0.04,0,0.08,0.04,0.08,0.08c0,0.04-0.04,0.08-0.08,0.08L49.59,324.73L49.59,324.73z M54.96,324.73L54.96,324.73l-0.49,0
			c-0.04,0-0.08-0.04-0.08-0.08c0-0.04,0.04-0.08,0.08-0.08h0l0.49,0c0.04,0,0.08,0.04,0.08,0.08
			C55.04,324.69,55,324.73,54.96,324.73z M51.22,324.73c-0.04,0-0.08-0.04-0.08-0.08c0-0.04,0.04-0.08,0.08-0.08l0.49,0
			c0.04,0,0.08,0.04,0.08,0.08c0,0.04-0.04,0.08-0.08,0.08L51.22,324.73z M53.33,324.73L53.33,324.73l-0.49,0
			c-0.05,0-0.08-0.04-0.08-0.08c0-0.05,0.04-0.08,0.08-0.08l0.49,0c0.04,0,0.08,0.04,0.08,0.08
			C53.41,324.69,53.38,324.73,53.33,324.73z"/>
		
			<linearGradient id="SVGID_00000041294213326622312100000008530135117810797963_" gradientUnits="userSpaceOnUse" x1="60.0466" y1="267.1827" x2="61.58" y2="310.1191">
			<stop  offset="0" style="stop-color:#09005D"/>
			<stop  offset="1" style="stop-color:#1A0F91"/>
		</linearGradient>
		<path style="fill:url(#SVGID_00000041294213326622312100000008530135117810797963_);" d="M68.47,362.11H57.79
			c-1.4,0-2.58-1.04-2.74-2.42l-1.23-10.27c-0.2-1.64,1.09-3.08,2.74-3.08h12.82c1.62,0,2.89,1.38,2.75,2.99l-0.92,10.27
			C71.09,361.02,69.9,362.11,68.47,362.11z"/>
		<defs>
			<filter id="Adobe_OpacityMaskFilter" filterUnits="userSpaceOnUse" x="55.99" y="348.22" width="13.96" height="12">
				<feFlood  style="flood-color:white;flood-opacity:1" result="back"/>
				<feBlend  in="SourceGraphic" in2="back" mode="normal"/>
			</filter>
		</defs>
		
			<mask maskUnits="userSpaceOnUse" x="55.99" y="348.22" width="13.96" height="12" id="SVGID_00000062168169817210382350000015688685110749606071_">
			<g class="st44">
				<defs>
					
						<filter id="Adobe_OpacityMaskFilter_00000068645730246244123030000012703581268683910043_" filterUnits="userSpaceOnUse" x="55.99" y="348.22" width="13.96" height="12">
						<feFlood  style="flood-color:white;flood-opacity:1" result="back"/>
						<feBlend  in="SourceGraphic" in2="back" mode="normal"/>
					</filter>
				</defs>
				
					<mask maskUnits="userSpaceOnUse" x="55.99" y="348.22" width="13.96" height="12" id="SVGID_00000062168169817210382350000015688685110749606071_">
				</mask>
				
					<linearGradient id="SVGID_00000054949999387649506180000006969604388654262939_" gradientUnits="userSpaceOnUse" x1="55.9904" y1="354.2183" x2="69.9528" y2="354.2183">
					<stop  offset="0" style="stop-color:#FFFFFF"/>
					<stop  offset="1" style="stop-color:#000000"/>
				</linearGradient>
				
					<path style="mask:url(#SVGID_00000062168169817210382350000015688685110749606071_);fill:url(#SVGID_00000054949999387649506180000006969604388654262939_);" d="
					M67.15,360.22h-8.12c-1.06,0-1.96-0.79-2.09-1.84l-0.94-7.82c-0.15-1.25,0.83-2.34,2.09-2.34h9.76c1.23,0,2.2,1.05,2.09,2.28
					l-0.7,7.82C69.15,359.39,68.24,360.22,67.15,360.22z"/>
			</g>
		</mask>
		
			<linearGradient id="SVGID_00000060004738656434183930000014427530060606090936_" gradientUnits="userSpaceOnUse" x1="55.9904" y1="354.2183" x2="69.9528" y2="354.2183">
			<stop  offset="0" style="stop-color:#4F52FF"/>
			<stop  offset="1" style="stop-color:#4042E2"/>
		</linearGradient>
		<path style="fill:url(#SVGID_00000060004738656434183930000014427530060606090936_);" d="M67.15,360.22h-8.12
			c-1.06,0-1.96-0.79-2.09-1.84l-0.94-7.82c-0.15-1.25,0.83-2.34,2.09-2.34h9.76c1.23,0,2.2,1.05,2.09,2.28l-0.7,7.82
			C69.15,359.39,68.24,360.22,67.15,360.22z"/>
	</g>
	
		<linearGradient id="SVGID_00000062901498352671112340000008843830529968500373_" gradientUnits="userSpaceOnUse" x1="292.8574" y1="227.7495" x2="449.2843" y2="38.4595">
		<stop  offset="0" style="stop-color:#FF928E"/>
		<stop  offset="1" style="stop-color:#FE7062"/>
	</linearGradient>
	<polygon style="fill:url(#SVGID_00000062901498352671112340000008843830529968500373_);" points="301.26,176.68 326.66,227.76 
		359.31,155.2 325.39,192.75 	"/>
	<g>
		<g>
			
				<linearGradient id="SVGID_00000070800392163324352510000006386531969747253124_" gradientUnits="userSpaceOnUse" x1="-3068.9968" y1="176.8043" x2="-3058.272" y2="207.4467" gradientTransform="matrix(1 0 0 1 3269.4707 0)">
				<stop  offset="0" style="stop-color:#FEBBBA"/>
				<stop  offset="1" style="stop-color:#FF928E"/>
			</linearGradient>
			<path style="fill:url(#SVGID_00000070800392163324352510000006386531969747253124_);" d="M205.23,193.24
				c-0.17,0.52,1.75,1.32,2.87-0.82c0.04-1.03,0.66-5.43,0.05-6.27c-3.27-4.46-9.62-10.06-9.62-10.06c-1.07,1.06-0.19,2.1-0.19,2.1
				l3.08,3.21c-0.64,1.16-1.43,2.15-1.8,3.55c-0.28,1.07-0.11,2.2,0.43,3.17c0.54,0.97,1.28,2.24,1.97,3.23
				C203.35,193.23,205.23,193.24,205.23,193.24z"/>
			
				<linearGradient id="SVGID_00000069399700617006059930000015219106269224752524_" gradientUnits="userSpaceOnUse" x1="-3060.7578" y1="196.3817" x2="-3068.8364" y2="180.0853" gradientTransform="matrix(1 0 0 1 3269.4707 0)">
				<stop  offset="0" style="stop-color:#FEBBBA"/>
				<stop  offset="1" style="stop-color:#FF928E"/>
			</linearGradient>
			<path style="fill:url(#SVGID_00000069399700617006059930000015219106269224752524_);" d="M202.77,183.48l2.81,2.38l0.88,2.37
				l-2.5,2.77c0,0-0.84-4.7-1.47-5.71C201.87,184.27,202.19,183.77,202.77,183.48z"/>
		</g>
		<g>
			
				<linearGradient id="SVGID_00000053541759826668202090000018112198211540459407_" gradientUnits="userSpaceOnUse" x1="1541.7979" y1="362.8325" x2="1473.3643" y2="437.269" gradientTransform="matrix(-1 0 0 1 1780.5051 0)">
				<stop  offset="0" style="stop-color:#09005D"/>
				<stop  offset="1" style="stop-color:#1A0F91"/>
			</linearGradient>
			<path style="fill:url(#SVGID_00000053541759826668202090000018112198211540459407_);" d="M260.34,368.38c0,0,0.71,4.01,1.06,7.98
				c0.14,1.55-1.06,2.9-2.62,2.96c-5.29,0.22-16.6,0.65-20.66,0.47c-0.61-0.03-1.01-0.65-0.78-1.22c0.19-0.48,0.55-0.86,1.02-1.07
				l18.69-8.59L260.34,368.38z"/>
			
				<linearGradient id="SVGID_00000036228545092230575630000001622484279447846826_" gradientUnits="userSpaceOnUse" x1="1519.5853" y1="368.3609" x2="1525.6639" y2="368.3609" gradientTransform="matrix(-1 0 0 1 1780.5051 0)">
				<stop  offset="0" style="stop-color:#FEBBBA"/>
				<stop  offset="1" style="stop-color:#FF928E"/>
			</linearGradient>
			<path style="fill:url(#SVGID_00000036228545092230575630000001622484279447846826_);" d="M260.92,366.02l-0.57,4.8
				c0,0-3.27,1.52-5.51-0.19l1.36-5.35L260.92,366.02z"/>
			
				<linearGradient id="SVGID_00000005947999374802297860000002830747017077975453_" gradientUnits="userSpaceOnUse" x1="513.048" y1="38.6777" x2="164.7021" y2="430.4022">
				<stop  offset="0" style="stop-color:#09005D"/>
				<stop  offset="1" style="stop-color:#1A0F91"/>
			</linearGradient>
			<path style="fill:url(#SVGID_00000005947999374802297860000002830747017077975453_);" d="M260.49,275.8
				c0.25,1.25,1.32,62.54-5.23,90c-0.11,0.45,0.12,0.91,0.55,1.08c1,0.41,2.97,1.01,5.34,1.08c0.73,0.02,1.39-0.45,1.59-1.15
				c1.87-6.37,10.85-38.3,12.02-68.8c1.31-34.08,0-1.16,0-1.16l-0.77-21.07L260.49,275.8z"/>
			
				<linearGradient id="SVGID_00000152237747135648546500000018061824425642718112_" gradientUnits="userSpaceOnUse" x1="1526.4457" y1="348.7188" x2="1458.0126" y2="423.1549" gradientTransform="matrix(-1 0 0 1 1780.5051 0)">
				<stop  offset="0" style="stop-color:#09005D"/>
				<stop  offset="1" style="stop-color:#1A0F91"/>
			</linearGradient>
			<path style="fill:url(#SVGID_00000152237747135648546500000018061824425642718112_);" d="M281.84,370.47c0,0,1.13,2.03,2.22,7.41
				c0.2,0.97-0.48,1.9-1.47,2c-1.75,0.17-4.43,0.39-6.59,0.38c-0.99-0.01-1.77-0.87-1.65-1.86c0.24-1.96,0.98-5.19,3.28-7.7
				L281.84,370.47z"/>
			
				<linearGradient id="SVGID_00000158735871246470211890000002062898985822302609_" gradientUnits="userSpaceOnUse" x1="1497.6781" y1="368.0493" x2="1502.9264" y2="368.0493" gradientTransform="matrix(-1 0 0 1 1780.5051 0)">
				<stop  offset="0" style="stop-color:#FEBBBA"/>
				<stop  offset="1" style="stop-color:#FF928E"/>
			</linearGradient>
			<path style="fill:url(#SVGID_00000158735871246470211890000002062898985822302609_);" d="M282.83,364.3l-1.33,7.26
				c0,0-1.32,0.98-3.92,0.27l0.64-7.81L282.83,364.3z"/>
			
				<linearGradient id="SVGID_00000035518375597792991890000011931102806834771332_" gradientUnits="userSpaceOnUse" x1="518.2278" y1="43.2835" x2="169.8818" y2="435.0081">
				<stop  offset="0" style="stop-color:#09005D"/>
				<stop  offset="1" style="stop-color:#1A0F91"/>
			</linearGradient>
			<path style="fill:url(#SVGID_00000035518375597792991890000011931102806834771332_);" d="M286.42,277.68
				c5.36,32.34-1.16,79.92-3.36,89.23c-0.13,0.57-0.59,1.01-1.17,1.1c-0.98,0.16-2.6,0.3-4.19-0.17c-0.55-0.16-0.93-0.65-0.96-1.23
				c-0.3-7.53,0.24-53.75-4.76-72.02c-0.25-0.93-0.82-1.73-1.6-2.29l-9.69-6.89l-0.74-11.13L286.42,277.68z"/>
			<g>
				
					<linearGradient id="SVGID_00000183235062572261542170000004861790136556660879_" gradientUnits="userSpaceOnUse" x1="319.5401" y1="66.9597" x2="261.7073" y2="243.087">
					<stop  offset="0" style="stop-color:#FF928E"/>
					<stop  offset="1" style="stop-color:#FE7062"/>
				</linearGradient>
				<path style="fill:url(#SVGID_00000183235062572261542170000004861790136556660879_);" d="M252.28,216.41
					c16.06-0.27,33.77,4.22,33.77,4.22c4.79,27.93,0.84,60.14,0.84,60.14c-12.43,3.26-26.45-1.99-26.45-1.99
					c-2.07-11.67-11.71-44.52-11.71-44.52c-7.85-0.97-14.31-3.24-19.63-6.23c4.06-4.71,5.97-10.69,6.8-14.23
					C241.58,215.55,247.33,216.49,252.28,216.41z"/>
				
					<linearGradient id="SVGID_00000126291123201560543150000005059458610663145646_" gradientUnits="userSpaceOnUse" x1="-3059.8301" y1="173.5959" x2="-3049.1052" y2="204.2385" gradientTransform="matrix(1 0 0 1 3269.4707 0)">
					<stop  offset="0" style="stop-color:#FEBBBA"/>
					<stop  offset="1" style="stop-color:#FF928E"/>
				</linearGradient>
				<path style="fill:url(#SVGID_00000126291123201560543150000005059458610663145646_);" d="M204.85,192.76
					c1.58-1.91,3.57-1,3.57-1c2.36,9.98,14.75,18.07,27.48,22.03c-0.83,3.54-2.75,9.53-6.8,14.23
					C207.98,216.14,204.85,192.76,204.85,192.76z"/>
			</g>
			
				<linearGradient id="SVGID_00000067914560851579988290000012619544971939185827_" gradientUnits="userSpaceOnUse" x1="345.6907" y1="75.5463" x2="287.858" y2="251.6734">
				<stop  offset="0" style="stop-color:#FF928E"/>
				<stop  offset="1" style="stop-color:#FE7062"/>
			</linearGradient>
			<path style="fill:url(#SVGID_00000067914560851579988290000012619544971939185827_);" d="M279.9,236.17l6.16-15.55
				c0,0,15,10.19,17.46,23.11c-2.83,0.21-7.99,0.95-13.04,3.49C289.37,241.13,279.9,236.17,279.9,236.17z"/>
			
				<linearGradient id="SVGID_00000118358078859354024090000005153291910662964104_" gradientUnits="userSpaceOnUse" x1="1506.8218" y1="211.7518" x2="1522.3596" y2="211.7518" gradientTransform="matrix(-1 0 0 1 1780.5051 0)">
				<stop  offset="0" style="stop-color:#FEBBBA"/>
				<stop  offset="1" style="stop-color:#FF928E"/>
			</linearGradient>
			<path style="fill:url(#SVGID_00000118358078859354024090000005153291910662964104_);" d="M268.54,203.37l5.11,14.77
				c0.08,0.24-0.02,0.52-0.24,0.64c-1.39,0.77-6.41,3-12.46-0.84c-0.63-0.4-1.06-1.05-1.15-1.79l-1.65-12.79H268.54z"/>
			<g>
				
					<linearGradient id="SVGID_00000109004228407834490630000016519018763151113604_" gradientUnits="userSpaceOnUse" x1="-5358.8896" y1="53.5753" x2="-5364.6958" y2="34.4248" gradientTransform="matrix(-0.746 -0.6659 -0.6659 0.746 -3707.6057 -3406.5847)">
					<stop  offset="0" style="stop-color:#FEBBBA"/>
					<stop  offset="1" style="stop-color:#FF928E"/>
				</linearGradient>
				<path style="fill:url(#SVGID_00000109004228407834490630000016519018763151113604_);" d="M257.43,189.69
					c0,0-5.61,10.56-4.89,14.83c0.72,4.27,7.67,3.96,13.74,0.49l4.24-11.4L257.43,189.69z"/>
				
					<linearGradient id="SVGID_00000163755660534283459080000014965698182341972414_" gradientUnits="userSpaceOnUse" x1="-5364.1279" y1="20.2082" x2="-5359.271" y2="47.9108" gradientTransform="matrix(-0.746 -0.6659 -0.6659 0.746 -3707.6057 -3406.5847)">
					<stop  offset="0" style="stop-color:#09005D"/>
					<stop  offset="1" style="stop-color:#1A0F91"/>
				</linearGradient>
				<path style="fill:url(#SVGID_00000163755660534283459080000014965698182341972414_);" d="M266.01,199.41
					c-0.25-0.11-0.34-0.41-0.19-0.64c0.45-0.69,1.29-2.09,1.56-3.31c0,0,1.01-0.65-2.57-1.5c-3.58-0.86-8.91-2.18-10.03-5.23
					c-1.09-2.97,1.78-10.43,6.36-4.48c0.17,0.23,0.52,0.23,0.69,0c0.75-0.98,2.73-3.01,5.47-1.78c2.56,1.15,2.85,3.03,2.82,3.98
					c-0.01,0.28,0.24,0.5,0.51,0.44c1.3-0.25,4.41-0.46,5.86,2.73c1.2,2.63,0.42,4.12-0.29,4.85c-0.23,0.24-0.13,0.62,0.19,0.72
					c0.85,0.26,1.95,0.98,1.84,2.98c-0.15,2.76-3.24,2.52-4.12,2.39c-0.14-0.02-0.29,0.03-0.39,0.14c-0.75,0.83-4.15,4.37-7.82,4.8
					c-0.32,0.04-0.56-0.28-0.46-0.58l1.59-4.62c0.07-0.21-0.03-0.45-0.24-0.54L266.01,199.41z"/>
				
					<linearGradient id="SVGID_00000164496257727850819770000005213723580045839266_" gradientUnits="userSpaceOnUse" x1="-5364.8247" y1="53.4861" x2="-5370.0488" y2="36.256" gradientTransform="matrix(-0.746 -0.6659 -0.6659 0.746 -3707.6057 -3406.5847)">
					<stop  offset="0" style="stop-color:#FEBBBA"/>
					<stop  offset="1" style="stop-color:#FF928E"/>
				</linearGradient>
				<path style="fill:url(#SVGID_00000164496257727850819770000005213723580045839266_);" d="M265.37,200.07
					c0,0,3.99-2.74,4.29-0.43c0.29,2.31-3.6,3.34-5.52,2.48L265.37,200.07z"/>
			</g>
			
				<linearGradient id="SVGID_00000032631078215858757940000015913358883962257297_" gradientUnits="userSpaceOnUse" x1="-4604.8687" y1="325.9969" x2="-4617.5005" y2="235.2763" gradientTransform="matrix(-1 0 0 1 -4318.1748 0)">
				<stop  offset="0" style="stop-color:#FEBBBA"/>
				<stop  offset="1" style="stop-color:#FF928E"/>
			</linearGradient>
			<path style="fill:url(#SVGID_00000032631078215858757940000015913358883962257297_);" d="M290.48,247.23
				c0,0,5.24,23.65,0.49,36.94c5.82,2.7,4.75,2.19,4.75,2.19s11.52-33.65,7.8-42.63C296.19,242.96,292.55,244.93,290.48,247.23z"/>
			
				<linearGradient id="SVGID_00000034058075720953630720000005518631780332366978_" gradientUnits="userSpaceOnUse" x1="-4606.3726" y1="317.2699" x2="-4616.4531" y2="244.8748" gradientTransform="matrix(-1 0 0 1 -4318.1748 0)">
				<stop  offset="0" style="stop-color:#FEBBBA"/>
				<stop  offset="1" style="stop-color:#FF928E"/>
			</linearGradient>
			<path style="fill:url(#SVGID_00000034058075720953630720000005518631780332366978_);" d="M290.97,284.17c0,0-3,3.88-2.76,5.43
				c0.24,1.55,0.3,2.18,0.3,2.18s1.51-1.03,1.41-2.35c-0.21,4.18-1.61,8.93-0.34,8.71c1.27-0.23,7.86-6.3,6.37-12.77
				C292.58,283.01,291.63,283.27,290.97,284.17z"/>
		</g>
	</g>
</g>
</svg>
