<?xml version="1.0" encoding="utf-8"?>
<!-- Generator: Adobe Illustrator 26.3.1, SVG Export Plug-In . SVG Version: 6.00 Build 0)  -->
<svg version="1.1" id="Capa_1" xmlns="http://www.w3.org/2000/svg" xmlns:xlink="http://www.w3.org/1999/xlink" x="0px" y="0px"
	 viewBox="0 0 400 400" style="enable-background:new 0 0 400 400;" xml:space="preserve">
<style type="text/css">
	.st0{fill:#F3F4F6;}
	.st1{opacity:0.6;fill:#FFFFFF;}
	.st2{clip-path:url(#SVGID_00000109009949567221452460000007918034489547693729_);}
	.st3{clip-path:url(#SVGID_00000060016841181424950620000002153163348271681665_);}
	.st4{fill:none;stroke:#8004E2;stroke-width:2;stroke-linecap:round;stroke-miterlimit:10;}
	.st5{fill:#130364;}
	.st6{fill:#8004E2;}
	
		.st7{clip-path:url(#SVGID_00000032626628047308141680000011665864426390186924_);fill:url(#SVGID_00000073699911695204992270000009150129587188980884_);}
	
		.st8{clip-path:url(#SVGID_00000127007371288570388990000009959618720729689258_);fill:url(#SVGID_00000029734788155106193860000008552875399948687532_);}
	
		.st9{clip-path:url(#SVGID_00000152973810437678034870000004362017048616165535_);fill:url(#SVGID_00000062181999560605970590000016611903064861849774_);}
	.st10{opacity:0.2;}
	.st11{fill:#FFFFFF;}
	.st12{clip-path:url(#SVGID_00000154423679532371643960000009663174208180812690_);fill:#FFFFFF;}
	.st13{clip-path:url(#SVGID_00000145759288846053485500000007818062068245149628_);fill:#FFFFFF;}
	.st14{clip-path:url(#SVGID_00000094604646956878097970000007989503367205166988_);fill:#FFFFFF;}
	.st15{clip-path:url(#SVGID_00000032612640770219866120000015716310351071544726_);}
	.st16{fill:none;stroke:#FFFFFF;stroke-miterlimit:10;}
	.st17{fill:#C7C7C7;}
	.st18{fill:#949494;}
	.st19{opacity:0.6;}
	.st20{fill:#CCCCCC;}
	.st21{fill:#6B6B6B;}
	.st22{fill:#B6CD01;}
	.st23{fill:#5C7128;}
	.st24{fill:#FFD115;}
	.st25{fill:#886C1D;}
	.st26{fill:#66B54A;}
	.st27{fill:#2B672D;}
	.st28{fill:#EF7812;}
	.st29{fill:#874115;}
	.st30{fill:#E42943;}
	.st31{fill:#7B1E24;}
</style>
<g>
	<path class="st20" d="M35.2,200c0,91.02,73.78,164.8,164.8,164.8c91.02,0,164.8-73.78,164.8-164.8S291.02,35.2,200,35.2
		C108.98,35.2,35.2,108.98,35.2,200L35.2,200z"/>
	<path class="st21" d="M278.59,159.38c0,11-8.92,19.92-19.92,19.92c-11,0-19.92-8.92-19.92-19.92c0-11,8.92-19.92,19.92-19.92
		C269.68,139.46,278.59,148.38,278.59,159.38L278.59,159.38z"/>
	<path class="st21" d="M161.25,159.38c0,11-8.92,19.92-19.92,19.92c-11,0-19.92-8.92-19.92-19.92c0-11,8.92-19.92,19.92-19.92
		C152.33,139.46,161.25,148.38,161.25,159.38L161.25,159.38z"/>
	<path class="st21" d="M200,241.35C200,241.35,200,241.35,200,241.35c-25.48,0-48.68,11.82-63.66,32.43
		c-2.03,2.79-1.41,6.7,1.38,8.72c2.81,2.03,6.7,1.41,8.72-1.38c12.6-17.34,32.12-27.28,53.55-27.28c21.43,0,40.95,9.94,53.55,27.28
		c1.22,1.68,3.12,2.58,5.06,2.58c1.27,0,2.55-0.39,3.66-1.2c2.79-2.03,3.41-5.93,1.38-8.72C248.68,253.17,225.48,241.35,200,241.35
		L200,241.35z"/>
</g>
</svg>
