<?xml version="1.0" encoding="utf-8"?>
<!-- Generator: Adobe Illustrator 26.3.1, SVG Export Plug-In . SVG Version: 6.00 Build 0)  -->
<svg version="1.1" id="Capa_1" xmlns="http://www.w3.org/2000/svg" xmlns:xlink="http://www.w3.org/1999/xlink" x="0px" y="0px"
	 viewBox="0 0 400 400" style="enable-background:new 0 0 400 400;" xml:space="preserve">
<style type="text/css">
	.st0{fill:#F3F4F6;}
	.st1{opacity:0.6;fill:#FFFFFF;}
	.st2{clip-path:url(#SVGID_00000053533603828138260930000002550018136856701575_);}
	.st3{clip-path:url(#SVGID_00000147192141982150213520000017890298736345774209_);}
	.st4{fill:none;stroke:#8004E2;stroke-width:2;stroke-linecap:round;stroke-miterlimit:10;}
	.st5{fill:#130364;}
	.st6{fill:#8004E2;}
	
		.st7{clip-path:url(#SVGID_00000182514718177298512440000017104204827770969473_);fill:url(#SVGID_00000111894470993504384980000016967288906846979723_);}
	
		.st8{clip-path:url(#SVGID_00000039117409290952348630000010410692316571988883_);fill:url(#SVGID_00000108273784065811631090000005435004480456640921_);}
	
		.st9{clip-path:url(#SVGID_00000014610170498734878140000006069991593334465715_);fill:url(#SVGID_00000177452140638683490630000005372996538058086046_);}
	.st10{opacity:0.2;}
	.st11{fill:#FFFFFF;}
	.st12{clip-path:url(#SVGID_00000111907290451206767780000013297930329037520021_);fill:#FFFFFF;}
	.st13{clip-path:url(#SVGID_00000139295038125247999520000016598218023571488161_);fill:#FFFFFF;}
	.st14{clip-path:url(#SVGID_00000077288952406742043540000000497740311882721938_);fill:#FFFFFF;}
	.st15{clip-path:url(#SVGID_00000168105724702546708100000001307651968472720047_);}
	.st16{fill:none;stroke:#FFFFFF;stroke-miterlimit:10;}
	.st17{fill:#C7C7C7;}
	.st18{fill:#949494;}
	.st19{opacity:0.6;}
	.st20{fill:#CCCCCC;}
	.st21{fill:#6B6B6B;}
	.st22{fill:#B6CD01;}
	.st23{fill:#5C7128;}
	.st24{fill:#FFD115;}
	.st25{fill:#886C1D;}
	.st26{fill:#66B54A;}
	.st27{fill:#2B672D;}
	.st28{fill:#EF7812;}
	.st29{fill:#874115;}
	.st30{fill:#E42943;}
	.st31{fill:#7B1E24;}
</style>
<g>
	<path class="st22" d="M35.2,200c0,91.02,73.78,164.8,164.8,164.8c91.02,0,164.8-73.78,164.8-164.8S291.02,35.2,200,35.2
		C108.98,35.2,35.2,108.98,35.2,200L35.2,200z"/>
	<path class="st23" d="M278.59,159.38c0,11-8.92,19.92-19.92,19.92c-11,0-19.92-8.92-19.92-19.92c0-11,8.92-19.92,19.92-19.92
		C269.68,139.46,278.59,148.38,278.59,159.38L278.59,159.38z"/>
	<path class="st23" d="M161.25,159.38c0,11-8.92,19.92-19.92,19.92c-11,0-19.92-8.92-19.92-19.92c0-11,8.92-19.92,19.92-19.92
		C152.33,139.46,161.25,148.38,161.25,159.38L161.25,159.38z"/>
	<path class="st23" d="M255.8,242.01c-34.94,17.79-76.66,17.79-111.6,0c-3.09-1.58-6.84-0.35-8.4,2.73
		c-1.56,3.07-0.34,6.84,2.73,8.4c19.25,9.81,40.36,14.71,61.47,14.71c21.11,0,42.22-4.9,61.47-14.71c3.07-1.56,4.29-5.32,2.73-8.4
		C262.63,241.66,258.88,240.43,255.8,242.01L255.8,242.01z"/>
</g>
</svg>
