<?xml version="1.0" encoding="utf-8"?>
<!-- Generator: Adobe Illustrator 26.3.1, SVG Export Plug-In . SVG Version: 6.00 Build 0)  -->
<svg version="1.1" id="Capa_1" xmlns="http://www.w3.org/2000/svg" xmlns:xlink="http://www.w3.org/1999/xlink" x="0px" y="0px"
	 viewBox="0 0 400 400" style="enable-background:new 0 0 400 400;" xml:space="preserve">
<style type="text/css">
	.st0{fill:#F3F4F6;}
	.st1{opacity:0.6;fill:#FFFFFF;}
	.st2{clip-path:url(#SVGID_00000096040143614261695430000005164358722667257530_);}
	.st3{clip-path:url(#SVGID_00000121962294453195294700000017836071049555169949_);}
	.st4{fill:none;stroke:#8004E2;stroke-width:2;stroke-linecap:round;stroke-miterlimit:10;}
	.st5{fill:#130364;}
	.st6{fill:#8004E2;}
	
		.st7{clip-path:url(#SVGID_00000120555665629938726500000010258334894912834721_);fill:url(#SVGID_00000142161521323386822960000005125366208712199808_);}
	
		.st8{clip-path:url(#SVGID_00000175314141167751409050000008553441393845496479_);fill:url(#SVGID_00000136404502409783183050000014798467069633157255_);}
	
		.st9{clip-path:url(#SVGID_00000116235429862409101310000001337718585583291820_);fill:url(#SVGID_00000142174799318944698920000001113460103243952789_);}
	.st10{opacity:0.2;}
	.st11{fill:#FFFFFF;}
	.st12{clip-path:url(#SVGID_00000170236770536612718410000007265294591081936804_);fill:#FFFFFF;}
	.st13{clip-path:url(#SVGID_00000161626051024634909530000001744196462121519800_);fill:#FFFFFF;}
	.st14{clip-path:url(#SVGID_00000044159362365106070740000014626156790115921338_);fill:#FFFFFF;}
	.st15{clip-path:url(#SVGID_00000075152796864808670450000009291686779625630850_);}
	.st16{fill:none;stroke:#FFFFFF;stroke-miterlimit:10;}
	.st17{fill:#C7C7C7;}
	.st18{fill:#949494;}
	.st19{opacity:0.6;}
	.st20{fill:#CCCCCC;}
	.st21{fill:#6B6B6B;}
	.st22{fill:#B6CD01;}
	.st23{fill:#5C7128;}
	.st24{fill:#FFD115;}
	.st25{fill:#886C1D;}
	.st26{fill:#66B54A;}
	.st27{fill:#2B672D;}
	.st28{fill:#EF7812;}
	.st29{fill:#874115;}
	.st30{fill:#E42943;}
	.st31{fill:#7B1E24;}
</style>
<g>
	<path class="st28" d="M35.2,200c0,91.02,73.78,164.8,164.8,164.8S364.8,291.02,364.8,200S291.02,35.2,200,35.2
		S35.2,108.98,35.2,200L35.2,200z"/>
	<path class="st29" d="M278.59,159.38c0,11-8.92,19.92-19.92,19.92c-11,0-19.92-8.92-19.92-19.92c0-11,8.92-19.92,19.92-19.92
		C269.68,139.46,278.59,148.38,278.59,159.38L278.59,159.38z"/>
	<path class="st29" d="M161.25,159.38c0,11-8.92,19.92-19.92,19.92c-11,0-19.92-8.92-19.92-19.92c0-11,8.92-19.92,19.92-19.92
		C152.33,139.46,161.25,148.38,161.25,159.38L161.25,159.38z"/>
	<path class="st29" d="M144.2,267.15c34.94-17.79,76.66-17.79,111.6,0c3.09,1.58,6.84,0.35,8.4-2.73c1.56-3.07,0.34-6.84-2.73-8.4
		c-19.25-9.81-40.36-14.71-61.47-14.71s-42.22,4.9-61.47,14.71c-3.07,1.56-4.29,5.32-2.73,8.4
		C137.37,267.5,141.12,268.74,144.2,267.15L144.2,267.15z"/>
</g>
</svg>
