<?xml version="1.0" encoding="utf-8"?>
<!-- Generator: Adobe Illustrator 26.3.1, SVG Export Plug-In . SVG Version: 6.00 Build 0)  -->
<svg version="1.1" id="Capa_1" xmlns="http://www.w3.org/2000/svg" xmlns:xlink="http://www.w3.org/1999/xlink" x="0px" y="0px"
	 viewBox="0 0 400 400" style="enable-background:new 0 0 400 400;" xml:space="preserve">
<style type="text/css">
	.st0{fill:#F3F4F6;}
	.st1{opacity:0.6;fill:#FFFFFF;}
	.st2{clip-path:url(#SVGID_00000072240371417901686110000007192571148606415242_);}
	.st3{clip-path:url(#SVGID_00000078033639685053266740000013896831616836652195_);}
	.st4{fill:none;stroke:#8004E2;stroke-width:2;stroke-linecap:round;stroke-miterlimit:10;}
	.st5{fill:#130364;}
	.st6{fill:#8004E2;}
	
		.st7{clip-path:url(#SVGID_00000046301561765032803170000011490074170220969645_);fill:url(#SVGID_00000088124337191257879570000017802703093014266810_);}
	
		.st8{clip-path:url(#SVGID_00000016773717510834269470000004335710450002023313_);fill:url(#SVGID_00000079449933909154665700000006650954253517068721_);}
	
		.st9{clip-path:url(#SVGID_00000183950324122736218790000000521574016765293977_);fill:url(#SVGID_00000002369137671486217130000004665464248175873934_);}
	.st10{opacity:0.2;}
	.st11{fill:#FFFFFF;}
	.st12{clip-path:url(#SVGID_00000149351038357426429070000010956234252076304813_);fill:#FFFFFF;}
	.st13{clip-path:url(#SVGID_00000133514326756836112180000001234343132224830887_);fill:#FFFFFF;}
	.st14{clip-path:url(#SVGID_00000018926795817733695210000006497191673766512770_);fill:#FFFFFF;}
	.st15{clip-path:url(#SVGID_00000057118176338702683270000007636401593815978414_);}
	.st16{fill:none;stroke:#FFFFFF;stroke-miterlimit:10;}
	.st17{fill:#C7C7C7;}
	.st18{fill:#949494;}
	.st19{opacity:0.6;}
	.st20{fill:#CCCCCC;}
	.st21{fill:#6B6B6B;}
	.st22{fill:#B6CD01;}
	.st23{fill:#5C7128;}
	.st24{fill:#FFD115;}
	.st25{fill:#886C1D;}
	.st26{fill:#66B54A;}
	.st27{fill:#2B672D;}
	.st28{fill:#EF7812;}
	.st29{fill:#874115;}
	.st30{fill:#E42943;}
	.st31{fill:#7B1E24;}
</style>
<g>
	<path class="st26" d="M35.2,200c0,91.02,73.78,164.8,164.8,164.8c91.01,0,164.8-73.78,164.8-164.8S291.01,35.2,200,35.2
		C108.98,35.2,35.2,108.98,35.2,200L35.2,200z"/>
	<path class="st27" d="M278.59,159.38c0,11-8.92,19.92-19.92,19.92c-11,0-19.92-8.92-19.92-19.92c0-11,8.92-19.92,19.92-19.92
		C269.68,139.46,278.59,148.38,278.59,159.38L278.59,159.38z"/>
	<path class="st27" d="M161.25,159.38c0,11-8.92,19.92-19.92,19.92c-11,0-19.92-8.92-19.92-19.92c0-11,8.92-19.92,19.92-19.92
		C152.33,139.46,161.25,148.38,161.25,159.38L161.25,159.38z"/>
	<path class="st27" d="M262.27,242.55c-2.8-2.03-6.7-1.41-8.72,1.38c-12.6,17.34-32.11,27.29-53.55,27.29
		c-21.44,0-40.96-9.95-53.55-27.29c-2.03-2.79-5.93-3.41-8.72-1.38c-2.79,2.02-3.41,5.93-1.38,8.72
		c14.98,20.61,38.18,32.43,63.66,32.43c25.48,0,48.68-11.82,63.65-32.43C265.68,248.47,265.06,244.57,262.27,242.55L262.27,242.55z"
		/>
</g>
</svg>
