<?xml version="1.0" encoding="utf-8"?>
<!-- Generator: Adobe Illustrator 26.3.1, SVG Export Plug-In . SVG Version: 6.00 Build 0)  -->
<svg version="1.1" id="Capa_1" xmlns="http://www.w3.org/2000/svg" xmlns:xlink="http://www.w3.org/1999/xlink" x="0px" y="0px"
	 viewBox="0 0 400 400" style="enable-background:new 0 0 400 400;" xml:space="preserve">
<style type="text/css">
	.st0{fill:#F3F4F6;}
	.st1{opacity:0.6;fill:#FFFFFF;}
	.st2{clip-path:url(#SVGID_00000067916170116521449620000007571576005477319581_);}
	.st3{clip-path:url(#SVGID_00000121237617422054290800000002936823878995077558_);}
	.st4{fill:none;stroke:#8004E2;stroke-width:2;stroke-linecap:round;stroke-miterlimit:10;}
	.st5{fill:#130364;}
	.st6{fill:#8004E2;}
	
		.st7{clip-path:url(#SVGID_00000085252198538337928900000008048980307203307443_);fill:url(#SVGID_00000005954167591227389620000017303571904617776293_);}
	
		.st8{clip-path:url(#SVGID_00000182503878407305530070000011555462523426500751_);fill:url(#SVGID_00000039845817548652179210000004058681337112248727_);}
	
		.st9{clip-path:url(#SVGID_00000070077838015194183750000015856214729588497545_);fill:url(#SVGID_00000119112110224784324710000005129601633053105327_);}
	.st10{opacity:0.2;}
	.st11{fill:#FFFFFF;}
	.st12{clip-path:url(#SVGID_00000044886462120618341840000004286841668784223131_);fill:#FFFFFF;}
	.st13{clip-path:url(#SVGID_00000129182784818684045140000017806010199454347910_);fill:#FFFFFF;}
	.st14{clip-path:url(#SVGID_00000176761086113842759900000004440576502918242724_);fill:#FFFFFF;}
	.st15{clip-path:url(#SVGID_00000071545941110158842530000006519954958818264748_);}
	.st16{fill:none;stroke:#FFFFFF;stroke-miterlimit:10;}
	.st17{fill:#C7C7C7;}
	.st18{fill:#949494;}
	.st19{opacity:0.6;}
	.st20{fill:#CCCCCC;}
	.st21{fill:#6B6B6B;}
	.st22{fill:#B6CD01;}
	.st23{fill:#5C7128;}
	.st24{fill:#FFD115;}
	.st25{fill:#886C1D;}
	.st26{fill:#66B54A;}
	.st27{fill:#2B672D;}
	.st28{fill:#EF7812;}
	.st29{fill:#874115;}
	.st30{fill:#E42943;}
	.st31{fill:#7B1E24;}
</style>
<g>
	<path class="st30" d="M35.2,200c0,91.02,73.78,164.8,164.8,164.8c91.02,0,164.8-73.78,164.8-164.8S291.02,35.2,200,35.2
		C108.98,35.2,35.2,108.98,35.2,200L35.2,200z"/>
	<path class="st31" d="M278.59,159.38c0,11-8.92,19.92-19.92,19.92c-11,0-19.92-8.92-19.92-19.92c0-11,8.92-19.92,19.92-19.92
		C269.68,139.46,278.59,148.38,278.59,159.38L278.59,159.38z"/>
	<path class="st31" d="M161.25,159.38c0,11-8.92,19.92-19.92,19.92c-11,0-19.92-8.92-19.92-19.92c0-11,8.92-19.92,19.92-19.92
		C152.33,139.46,161.25,148.38,161.25,159.38L161.25,159.38z"/>
	<path class="st31" d="M200,241.35C200,241.35,200,241.35,200,241.35c-25.48,0-48.68,11.82-63.66,32.43
		c-2.03,2.79-1.41,6.7,1.38,8.72c2.81,2.03,6.7,1.41,8.72-1.38c12.6-17.34,32.12-27.28,53.55-27.28c21.43,0,40.95,9.94,53.55,27.28
		c1.22,1.68,3.12,2.58,5.06,2.58c1.27,0,2.55-0.39,3.66-1.2c2.79-2.03,3.41-5.93,1.38-8.72C248.68,253.17,225.48,241.35,200,241.35
		L200,241.35z"/>
</g>
</svg>
