<?xml version="1.0" encoding="utf-8"?>
<!-- Generator: Adobe Illustrator 26.3.1, SVG Export Plug-In . SVG Version: 6.00 Build 0)  -->
<svg version="1.1" id="Capa_1" xmlns="http://www.w3.org/2000/svg" xmlns:xlink="http://www.w3.org/1999/xlink" x="0px" y="0px"
	 viewBox="0 0 400 400" style="enable-background:new 0 0 400 400;" xml:space="preserve">
<style type="text/css">
	.st0{fill:#F3F4F6;}
	.st1{opacity:0.6;fill:#FFFFFF;}
	.st2{clip-path:url(#SVGID_00000075120517637371987690000013946892295856082076_);}
	.st3{clip-path:url(#SVGID_00000026151761121376023900000017143274584007413411_);}
	.st4{fill:none;stroke:#8004E2;stroke-width:2;stroke-linecap:round;stroke-miterlimit:10;}
	.st5{fill:#130364;}
	.st6{fill:#8004E2;}
	
		.st7{clip-path:url(#SVGID_00000072270512566555135060000018159494416958511232_);fill:url(#SVGID_00000135651744041578541170000005448084672737403794_);}
	
		.st8{clip-path:url(#SVGID_00000161599685566752327520000008433440303830689212_);fill:url(#SVGID_00000121256296085749937380000008610682473376185005_);}
	
		.st9{clip-path:url(#SVGID_00000155846352941231897760000001853669822539113384_);fill:url(#SVGID_00000024692157541948450210000013674907131687513244_);}
	.st10{opacity:0.2;}
	.st11{fill:#FFFFFF;}
	.st12{clip-path:url(#SVGID_00000123427408295517173130000004708402550629985976_);fill:#FFFFFF;}
	.st13{clip-path:url(#SVGID_00000150815971536359226520000006057408844290837387_);fill:#FFFFFF;}
	.st14{clip-path:url(#SVGID_00000078024848691229516830000015740296093501975696_);fill:#FFFFFF;}
	.st15{clip-path:url(#SVGID_00000070821116773816224630000001527052848023689394_);}
	.st16{fill:none;stroke:#FFFFFF;stroke-miterlimit:10;}
	.st17{fill:#C7C7C7;}
	.st18{fill:#949494;}
	.st19{opacity:0.6;}
	.st20{fill:#CCCCCC;}
	.st21{fill:#6B6B6B;}
	.st22{fill:#B6CD01;}
	.st23{fill:#5C7128;}
	.st24{fill:#FFD115;}
	.st25{fill:#886C1D;}
	.st26{fill:#66B54A;}
	.st27{fill:#2B672D;}
	.st28{fill:#EF7812;}
	.st29{fill:#874115;}
	.st30{fill:#E42943;}
	.st31{fill:#7B1E24;}
</style>
<g>
	<path class="st24" d="M35.2,200c0,91.02,73.78,164.8,164.8,164.8c91.02,0,164.8-73.78,164.8-164.8S291.02,35.2,200,35.2
		C108.98,35.2,35.2,108.98,35.2,200L35.2,200z"/>
	<path class="st25" d="M278.59,159.38c0,11-8.92,19.92-19.92,19.92c-11,0-19.92-8.92-19.92-19.92c0-11,8.92-19.92,19.92-19.92
		C269.68,139.46,278.59,148.38,278.59,159.38L278.59,159.38z"/>
	<path class="st25" d="M161.25,159.38c0,11-8.92,19.92-19.92,19.92c-11,0-19.92-8.92-19.92-19.92c0-11,8.92-19.92,19.92-19.92
		C152.33,139.46,161.25,148.38,161.25,159.38L161.25,159.38z"/>
	<path class="st25" d="M258.67,245.39H141.33c-3.45,0-6.25,2.79-6.25,6.24c0,3.45,2.8,6.25,6.25,6.25h117.34
		c3.45,0,6.24-2.79,6.24-6.25C264.92,248.18,262.12,245.39,258.67,245.39L258.67,245.39z"/>
</g>
</svg>
