<?xml version="1.0" encoding="utf-8"?>
<!-- Generator: Adobe Illustrator 26.3.1, SVG Export Plug-In . SVG Version: 6.00 Build 0)  -->
<svg version="1.1" id="Capa_1" xmlns="http://www.w3.org/2000/svg" xmlns:xlink="http://www.w3.org/1999/xlink" x="0px" y="0px"
	 viewBox="0 0 400 400" style="enable-background:new 0 0 400 400;" xml:space="preserve">
<style type="text/css">
	.st0{fill:#F3F4F6;}
	.st1{opacity:0.6;fill:#FFFFFF;}
	.st2{clip-path:url(#SVGID_00000001626513839300025330000007477670283369065874_);}
	.st3{clip-path:url(#SVGID_00000173135633581296251530000003334660383816166795_);}
	.st4{fill:none;stroke:#8004E2;stroke-width:2;stroke-linecap:round;stroke-miterlimit:10;}
	.st5{fill:#130364;}
	.st6{fill:#8004E2;}
	
		.st7{clip-path:url(#SVGID_00000060724121542364142640000015209908376324445601_);fill:url(#SVGID_00000137813030587589919810000005640540127578507686_);}
	
		.st8{clip-path:url(#SVGID_00000057847053034501588520000007326684873238503090_);fill:url(#SVGID_00000137098429043314213000000000612719649886991251_);}
	
		.st9{clip-path:url(#SVGID_00000158014786738598736270000007105241882813393794_);fill:url(#SVGID_00000001661547358330815380000004937546319136592020_);}
	.st10{opacity:0.2;}
	.st11{fill:#FFFFFF;}
	.st12{clip-path:url(#SVGID_00000049931959632834747510000018119056197871628445_);fill:#FFFFFF;}
	.st13{clip-path:url(#SVGID_00000181808942495151313040000016200189153881684138_);fill:#FFFFFF;}
	.st14{clip-path:url(#SVGID_00000083074274105324976520000002683694364404500629_);fill:#FFFFFF;}
	.st15{clip-path:url(#SVGID_00000155123867419260070760000005921599169094465955_);}
	.st16{fill:none;stroke:#FFFFFF;stroke-miterlimit:10;}
	.st17{fill:#C7C7C7;}
	.st18{fill:#949494;}
	.st19{opacity:0.6;}
	.st20{fill:#CCCCCC;}
	.st21{fill:#6B6B6B;}
	.st22{fill:#B6CD01;}
	.st23{fill:#5C7128;}
	.st24{fill:#FFD115;}
	.st25{fill:#886C1D;}
	.st26{fill:#66B54A;}
	.st27{fill:#2B672D;}
	.st28{fill:#EF7812;}
	.st29{fill:#874115;}
	.st30{fill:#E42943;}
	.st31{fill:#7B1E24;}
</style>
<g>
	<path class="st20" d="M35.2,200c0,91.02,73.78,164.8,164.8,164.8c91.01,0,164.8-73.78,164.8-164.8S291.01,35.2,200,35.2
		C108.98,35.2,35.2,108.98,35.2,200L35.2,200z"/>
	<path class="st21" d="M278.59,159.38c0,11-8.92,19.92-19.92,19.92c-11,0-19.92-8.92-19.92-19.92c0-11,8.92-19.92,19.92-19.92
		C269.68,139.46,278.59,148.38,278.59,159.38L278.59,159.38z"/>
	<path class="st21" d="M161.25,159.38c0,11-8.92,19.92-19.92,19.92c-11,0-19.92-8.92-19.92-19.92c0-11,8.92-19.92,19.92-19.92
		C152.33,139.46,161.25,148.38,161.25,159.38L161.25,159.38z"/>
	<path class="st21" d="M262.27,242.55c-2.8-2.03-6.7-1.41-8.72,1.38c-12.6,17.34-32.11,27.29-53.55,27.29
		c-21.44,0-40.96-9.95-53.55-27.29c-2.03-2.79-5.93-3.41-8.72-1.38c-2.79,2.02-3.41,5.93-1.38,8.72
		c14.98,20.61,38.18,32.43,63.66,32.43c25.48,0,48.68-11.82,63.65-32.43C265.68,248.47,265.06,244.57,262.27,242.55L262.27,242.55z"
		/>
</g>
</svg>
