<?xml version="1.0" encoding="utf-8"?>
<!-- Generator: Adobe Illustrator 26.3.1, SVG Export Plug-In . SVG Version: 6.00 Build 0)  -->
<svg version="1.1" id="Capa_1" xmlns="http://www.w3.org/2000/svg" xmlns:xlink="http://www.w3.org/1999/xlink" x="0px" y="0px"
	 viewBox="0 0 400 400" style="enable-background:new 0 0 400 400;" xml:space="preserve">
<style type="text/css">
	.st0{fill:#F3F4F6;}
	.st1{opacity:0.6;fill:#FFFFFF;}
	.st2{clip-path:url(#SVGID_00000140002329568533275920000008510022556235614634_);}
	.st3{clip-path:url(#SVGID_00000139272425079040921030000002483710644794640522_);}
	.st4{fill:none;stroke:#8004E2;stroke-width:2;stroke-linecap:round;stroke-miterlimit:10;}
	.st5{fill:#130364;}
	.st6{fill:#8004E2;}
	
		.st7{clip-path:url(#SVGID_00000150085531507114709920000004792515747541611182_);fill:url(#SVGID_00000057150352514082255250000010196477647929081237_);}
	
		.st8{clip-path:url(#SVGID_00000155835549263324808020000011530596968899258253_);fill:url(#SVGID_00000011014459078137526250000007279425446821278360_);}
	
		.st9{clip-path:url(#SVGID_00000065773780777862859740000001520808081829389976_);fill:url(#SVGID_00000043419945741145397230000000681793676550813837_);}
	.st10{opacity:0.2;}
	.st11{fill:#FFFFFF;}
	.st12{clip-path:url(#SVGID_00000162335606534499228800000007948131969069518976_);fill:#FFFFFF;}
	.st13{clip-path:url(#SVGID_00000075859323150897161610000017916621442067266437_);fill:#FFFFFF;}
	.st14{clip-path:url(#SVGID_00000077299789204170505500000003670511022108783237_);fill:#FFFFFF;}
	.st15{clip-path:url(#SVGID_00000178913282426679274440000007439815281583724217_);}
	.st16{fill:none;stroke:#FFFFFF;stroke-miterlimit:10;}
	.st17{fill:#C7C7C7;}
	.st18{fill:#949494;}
	.st19{opacity:0.6;}
	.st20{fill:#CCCCCC;}
	.st21{fill:#6B6B6B;}
	.st22{fill:#B6CD01;}
	.st23{fill:#5C7128;}
	.st24{fill:#FFD115;}
	.st25{fill:#886C1D;}
	.st26{fill:#66B54A;}
	.st27{fill:#2B672D;}
	.st28{fill:#EF7812;}
	.st29{fill:#874115;}
	.st30{fill:#E42943;}
	.st31{fill:#7B1E24;}
</style>
<g>
	<path class="st20" d="M35.2,200c0,91.02,73.78,164.8,164.8,164.8c91.02,0,164.8-73.78,164.8-164.8S291.02,35.2,200,35.2
		C108.98,35.2,35.2,108.98,35.2,200L35.2,200z"/>
	<path class="st21" d="M278.59,159.38c0,11-8.92,19.92-19.92,19.92c-11,0-19.92-8.92-19.92-19.92c0-11,8.92-19.92,19.92-19.92
		C269.68,139.46,278.59,148.38,278.59,159.38L278.59,159.38z"/>
	<path class="st21" d="M161.25,159.38c0,11-8.92,19.92-19.92,19.92c-11,0-19.92-8.92-19.92-19.92c0-11,8.92-19.92,19.92-19.92
		C152.33,139.46,161.25,148.38,161.25,159.38L161.25,159.38z"/>
	<path class="st21" d="M258.67,245.39H141.33c-3.45,0-6.25,2.79-6.25,6.24c0,3.45,2.8,6.25,6.25,6.25h117.34
		c3.45,0,6.24-2.79,6.24-6.25C264.92,248.18,262.12,245.39,258.67,245.39L258.67,245.39z"/>
</g>
</svg>
