<?xml version="1.0" encoding="utf-8"?>
<!-- Generator: Adobe Illustrator 26.3.1, SVG Export Plug-In . SVG Version: 6.00 Build 0)  -->
<svg version="1.1" id="Capa_1" xmlns="http://www.w3.org/2000/svg" xmlns:xlink="http://www.w3.org/1999/xlink" x="0px" y="0px"
	 viewBox="0 0 400 400" style="enable-background:new 0 0 400 400;" xml:space="preserve">
<style type="text/css">
	.st0{fill:#F3F4F6;}
	.st1{opacity:0.6;fill:#FFFFFF;}
	.st2{clip-path:url(#SVGID_00000084488320845005035790000010771220921359215772_);}
	.st3{clip-path:url(#SVGID_00000086679711639348473060000006916703233253438622_);}
	.st4{fill:none;stroke:#8004E2;stroke-width:2;stroke-linecap:round;stroke-miterlimit:10;}
	.st5{fill:#130364;}
	.st6{fill:#8004E2;}
	
		.st7{clip-path:url(#SVGID_00000047744281149800095700000002931037573719326140_);fill:url(#SVGID_00000118376846154226039490000008195221940373243322_);}
	
		.st8{clip-path:url(#SVGID_00000169547712121587158070000013563924520508069269_);fill:url(#SVGID_00000163758312560529764040000013514264383919442357_);}
	
		.st9{clip-path:url(#SVGID_00000080903012631078353860000002151086071099349137_);fill:url(#SVGID_00000058556327698566715050000005545406105125902501_);}
	.st10{opacity:0.2;}
	.st11{fill:#FFFFFF;}
	.st12{clip-path:url(#SVGID_00000094588873295212483730000010771168803149638061_);fill:#FFFFFF;}
	.st13{clip-path:url(#SVGID_00000136370845685970458990000012450415644888849552_);fill:#FFFFFF;}
	.st14{clip-path:url(#SVGID_00000069370394793635313130000004628782016703630526_);fill:#FFFFFF;}
	.st15{clip-path:url(#SVGID_00000168083626909593979320000002508314217009692071_);}
	.st16{fill:none;stroke:#FFFFFF;stroke-miterlimit:10;}
	.st17{fill:#C7C7C7;}
	.st18{fill:#949494;}
	.st19{opacity:0.6;}
	.st20{fill:#CCCCCC;}
	.st21{fill:#6B6B6B;}
	.st22{fill:#B6CD01;}
	.st23{fill:#5C7128;}
	.st24{fill:#FFD115;}
	.st25{fill:#886C1D;}
	.st26{fill:#66B54A;}
	.st27{fill:#2B672D;}
	.st28{fill:#EF7812;}
	.st29{fill:#874115;}
	.st30{fill:#E42943;}
	.st31{fill:#7B1E24;}
</style>
<g>
	<path class="st20" d="M35.2,200c0,91.02,73.78,164.8,164.8,164.8S364.8,291.02,364.8,200S291.02,35.2,200,35.2
		S35.2,108.98,35.2,200L35.2,200z"/>
	<path class="st21" d="M278.59,159.38c0,11-8.92,19.92-19.92,19.92c-11,0-19.92-8.92-19.92-19.92c0-11,8.92-19.92,19.92-19.92
		C269.68,139.46,278.59,148.38,278.59,159.38L278.59,159.38z"/>
	<path class="st21" d="M161.25,159.38c0,11-8.92,19.92-19.92,19.92c-11,0-19.92-8.92-19.92-19.92c0-11,8.92-19.92,19.92-19.92
		C152.33,139.46,161.25,148.38,161.25,159.38L161.25,159.38z"/>
	<path class="st21" d="M144.2,267.15c34.94-17.79,76.66-17.79,111.6,0c3.09,1.58,6.84,0.35,8.4-2.73c1.56-3.07,0.34-6.84-2.73-8.4
		c-19.25-9.81-40.36-14.71-61.47-14.71s-42.22,4.9-61.47,14.71c-3.07,1.56-4.29,5.32-2.73,8.4
		C137.37,267.5,141.12,268.74,144.2,267.15L144.2,267.15z"/>
</g>
</svg>
