<?xml version="1.0" encoding="utf-8"?>
<!-- Generator: Adobe Illustrator 26.3.1, SVG Export Plug-In . SVG Version: 6.00 Build 0)  -->
<svg version="1.1" id="Capa_1" xmlns="http://www.w3.org/2000/svg" xmlns:xlink="http://www.w3.org/1999/xlink" x="0px" y="0px"
	 viewBox="0 0 400 400" style="enable-background:new 0 0 400 400;" xml:space="preserve">
<style type="text/css">
	.st0{fill:#F3F4F6;}
	.st1{opacity:0.6;fill:#FFFFFF;}
	.st2{clip-path:url(#SVGID_00000044157297653999687020000005103257801322155150_);}
	.st3{clip-path:url(#SVGID_00000067219162089885849250000004270429474254338724_);}
	.st4{fill:none;stroke:#8004E2;stroke-width:2;stroke-linecap:round;stroke-miterlimit:10;}
	.st5{fill:#130364;}
	.st6{fill:#8004E2;}
	
		.st7{clip-path:url(#SVGID_00000047024463757430326440000011379785099036954523_);fill:url(#SVGID_00000036214089738080446000000001992732680593501064_);}
	
		.st8{clip-path:url(#SVGID_00000067228013966321358740000009676093635057413266_);fill:url(#SVGID_00000028284760084032388370000017089315723510064044_);}
	
		.st9{clip-path:url(#SVGID_00000049929549486741886200000009503886036781702069_);fill:url(#SVGID_00000021821275250339870760000010290888005395595683_);}
	.st10{opacity:0.2;}
	.st11{fill:#FFFFFF;}
	.st12{clip-path:url(#SVGID_00000035489061091164459740000018121002356193930422_);fill:#FFFFFF;}
	.st13{clip-path:url(#SVGID_00000182487520215701396730000002815865275584646055_);fill:#FFFFFF;}
	.st14{clip-path:url(#SVGID_00000114790984431151399490000007821767743716183966_);fill:#FFFFFF;}
	.st15{clip-path:url(#SVGID_00000072966980579741848960000008893007282820253848_);}
	.st16{fill:none;stroke:#FFFFFF;stroke-miterlimit:10;}
	.st17{fill:#C7C7C7;}
	.st18{fill:#949494;}
	.st19{opacity:0.6;}
	.st20{fill:#CCCCCC;}
	.st21{fill:#6B6B6B;}
	.st22{fill:#B6CD01;}
	.st23{fill:#5C7128;}
	.st24{fill:#FFD115;}
	.st25{fill:#886C1D;}
	.st26{fill:#66B54A;}
	.st27{fill:#2B672D;}
	.st28{fill:#EF7812;}
	.st29{fill:#874115;}
	.st30{fill:#E42943;}
	.st31{fill:#7B1E24;}
</style>
<g>
	<path class="st20" d="M35.2,200c0,91.02,73.78,164.8,164.8,164.8c91.02,0,164.8-73.78,164.8-164.8S291.02,35.2,200,35.2
		C108.98,35.2,35.2,108.98,35.2,200L35.2,200z"/>
	<path class="st21" d="M278.59,159.38c0,11-8.92,19.92-19.92,19.92c-11,0-19.92-8.92-19.92-19.92c0-11,8.92-19.92,19.92-19.92
		C269.68,139.46,278.59,148.38,278.59,159.38L278.59,159.38z"/>
	<path class="st21" d="M161.25,159.38c0,11-8.92,19.92-19.92,19.92c-11,0-19.92-8.92-19.92-19.92c0-11,8.92-19.92,19.92-19.92
		C152.33,139.46,161.25,148.38,161.25,159.38L161.25,159.38z"/>
	<path class="st21" d="M255.8,242.01c-34.94,17.79-76.66,17.79-111.6,0c-3.09-1.58-6.84-0.35-8.4,2.73
		c-1.56,3.07-0.34,6.84,2.73,8.4c19.25,9.81,40.36,14.71,61.47,14.71c21.11,0,42.22-4.9,61.47-14.71c3.07-1.56,4.29-5.32,2.73-8.4
		C262.63,241.66,258.88,240.43,255.8,242.01L255.8,242.01z"/>
</g>
</svg>
