<?xml version="1.0" encoding="UTF-8"?>
<svg id="a" data-name="Capa 1" xmlns="http://www.w3.org/2000/svg" xmlns:xlink="http://www.w3.org/1999/xlink" viewBox="0 0 340.27 340.28">
  <defs>
    <style>
      .c, .d {
        fill: none;
      }

      .e {
        opacity: .24;
      }

      .f {
        clip-path: url(#b);
      }

      .d {
        stroke: #c85ce1;
        stroke-miterlimit: 10;
        stroke-width: .68px;
      }
    </style>
    <clipPath id="b">
      <rect class="c" width="340.27" height="340.28"/>
    </clipPath>
  </defs>
  <g class="e">
    <g class="f">
      <path class="d" d="M238.91,15.58L15.02,237.65c.63,1.44,1.27,2.87,1.94,4.29L243.19,17.55c-1.41-.68-2.84-1.33-4.28-1.97Z"/>
      <path class="d" d="M243.19,17.55L16.96,241.94c.66,1.41,1.34,2.81,2.04,4.19L247.36,19.62c-1.38-.71-2.77-1.4-4.17-2.07Z"/>
      <path class="d" d="M247.36,19.62L18.99,246.13c.7,1.38,1.4,2.74,2.13,4.1L251.44,21.8c-1.35-.74-2.7-1.47-4.08-2.17Z"/>
      <path class="d" d="M251.44,21.8L21.13,250.23c.72,1.34,1.46,2.68,2.22,4.01L255.42,24.06c-1.32-.77-2.64-1.53-3.98-2.26Z"/>
      <path class="d" d="M234.54,13.71L13.18,233.26c.59,1.47,1.21,2.94,1.84,4.39L238.91,15.58c-1.45-.65-2.91-1.27-4.38-1.87Z"/>
      <path class="d" d="M220.78,8.72L8.3,219.46c.48,1.58,.98,3.16,1.51,4.72L225.47,10.27c-1.56-.54-3.12-1.06-4.7-1.56Z"/>
      <path class="d" d="M215.95,7.29L6.92,214.62c.44,1.62,.9,3.24,1.39,4.84L220.77,8.72c-1.6-.5-3.21-.98-4.82-1.43Z"/>
      <path class="d" d="M230.06,11.94L11.44,228.77c.56,1.51,1.14,3,1.74,4.49L234.54,13.71c-1.48-.61-2.98-1.2-4.48-1.77Z"/>
      <path class="d" d="M225.47,10.27L9.81,224.17c.52,1.55,1.06,3.08,1.63,4.6L230.06,11.94c-1.52-.58-3.05-1.13-4.59-1.66Z"/>
      <path class="d" d="M255.42,24.06L23.35,254.24c.75,1.31,1.53,2.62,2.32,3.91L259.32,26.41c-1.29-.8-2.59-1.58-3.89-2.35Z"/>
      <path class="d" d="M280.88,42.3L41.39,279.83c.96,1.12,1.93,2.23,2.91,3.33L284.18,45.24c-1.09-.99-2.18-1.98-3.3-2.94Z"/>
      <path class="d" d="M274.03,36.67L35.82,272.94c.9,1.18,1.82,2.34,2.75,3.49L277.5,39.44c-1.14-.94-2.3-1.86-3.47-2.77Z"/>
      <path class="d" d="M211,5.98L5.65,209.66c.4,1.66,.82,3.31,1.27,4.95L215.95,7.29c-1.64-.46-3.29-.89-4.95-1.3Z"/>
      <path class="d" d="M284.18,45.24L44.31,283.16c.98,1.1,1.98,2.18,2.99,3.25L287.4,48.26c-1.06-1.02-2.13-2.03-3.22-3.02Z"/>
      <path class="d" d="M277.5,39.44L38.57,276.43c.93,1.15,1.87,2.29,2.83,3.41L280.88,42.3c-1.12-.97-2.25-1.92-3.39-2.86Z"/>
      <path class="d" d="M259.32,26.41L25.67,258.15c.78,1.29,1.59,2.56,2.41,3.82L263.12,28.85c-1.26-.83-2.53-1.64-3.81-2.44Z"/>
      <path class="d" d="M270.48,33.98L33.16,269.37c.87,1.2,1.76,2.39,2.66,3.57L274.03,36.67c-1.17-.91-2.36-1.81-3.55-2.69Z"/>
      <path class="d" d="M263.12,28.85L28.08,261.97c.82,1.26,1.65,2.5,2.5,3.74L266.84,31.37c-1.23-.86-2.47-1.7-3.72-2.52Z"/>
      <path class="d" d="M266.84,31.37L30.58,265.71c.84,1.23,1.7,2.45,2.58,3.65L270.48,33.98c-1.2-.89-2.41-1.75-3.63-2.61Z"/>
      <path class="d" d="M170.13,1c-1.43,0-2.86,.02-4.28,.05L1.1,164.47c-.06,1.88-.11,3.77-.11,5.67,0,.21,0,.42,0,.64L172.15,1.03c-.67,0-1.34-.03-2.01-.03Z"/>
      <path class="d" d="M121.01,8.26L8.64,119.7c-.89,2.84-1.7,5.72-2.44,8.63L129.66,5.89c-2.92,.71-5.8,1.51-8.65,2.37Z"/>
      <path class="d" d="M137.71,4.12L4.37,136.37c-.51,2.5-.96,5.02-1.35,7.55L145.28,2.82c-2.54,.37-5.07,.81-7.57,1.29Z"/>
      <path class="d" d="M152.46,1.92L2.07,151.08c-.25,2.27-.47,4.55-.63,6.84L159.29,1.36c-2.29,.14-4.57,.33-6.83,.56Z"/>
      <path class="d" d="M145.28,2.82L3.02,143.92c-.37,2.37-.68,4.76-.95,7.16L152.46,1.92c-2.41,.25-4.8,.56-7.18,.91Z"/>
      <path class="d" d="M129.66,5.89L6.21,128.34c-.68,2.66-1.29,5.33-1.84,8.04L137.71,4.12c-2.7,.53-5.39,1.12-8.05,1.77Z"/>
      <path class="d" d="M88.22,22.14L22.81,87.01c-2.32,4.1-4.47,8.31-6.45,12.61L100.89,15.78c-4.33,1.94-8.55,4.07-12.67,6.35Z"/>
      <path class="d" d="M34.15,69.55l36.49-36.19c-13.92,10.14-26.24,22.36-36.49,36.19Z"/>
      <path class="d" d="M100.89,15.78L16.36,99.62c-1.6,3.48-3.08,7.02-4.44,10.62L111.54,11.43c-3.61,1.33-7.17,2.78-10.65,4.35Z"/>
      <path class="d" d="M205.92,4.81L4.51,204.58c.35,1.7,.74,3.4,1.14,5.08L211,5.98c-1.68-.42-3.38-.81-5.08-1.18Z"/>
      <path class="d" d="M111.54,11.43L11.92,110.24c-1.18,3.11-2.28,6.27-3.28,9.46L121.01,8.26c-3.2,.97-6.35,2.02-9.46,3.17Z"/>
      <path class="d" d="M189.81,2.15L1.98,188.44c.2,1.85,.43,3.7,.69,5.53L195.35,2.87c-1.83-.27-3.68-.51-5.53-.73Z"/>
      <path class="d" d="M195.34,2.87L2.67,193.97c.25,1.8,.53,3.6,.84,5.38L200.71,3.76c-1.78-.33-3.57-.62-5.37-.89Z"/>
      <path class="d" d="M200.71,3.76L3.51,199.35c.31,1.75,.63,3.5,.99,5.23L205.92,4.81c-1.73-.37-3.47-.72-5.21-1.04Z"/>
      <path class="d" d="M184.12,1.58L1.46,182.75c.14,1.91,.32,3.81,.52,5.7L189.81,2.15c-1.89-.22-3.79-.41-5.69-.57Z"/>
      <path class="d" d="M287.4,48.26L47.3,286.41c1.01,1.07,2.04,2.12,3.07,3.17L290.54,51.36c-1.03-1.05-2.08-2.08-3.14-3.1Z"/>
      <path class="d" d="M178.24,1.2L1.14,176.86c.08,1.97,.18,3.94,.32,5.89L184.12,1.58c-1.95-.16-3.91-.29-5.88-.38Z"/>
      <path class="d" d="M159.29,1.36L1.44,157.92c-.15,2.17-.27,4.36-.34,6.55L165.86,1.05c-2.2,.06-4.39,.16-6.57,.3Z"/>
      <path class="d" d="M172.15,1.03L1,170.78c0,2.04,.06,4.06,.14,6.08L178.24,1.2c-2.02-.1-4.05-.15-6.09-.17Z"/>
      <path class="d" d="M70.64,33.36l-36.49,36.19c-4.13,5.57-7.92,11.4-11.35,17.47L88.22,22.14c-6.1,3.38-11.97,7.13-17.58,11.22Z"/>
      <path class="d" d="M339.27,170.79l-169.86,168.48c.24,0,.49,0,.73,0,1.88,0,3.76-.04,5.63-.1l163.36-162.03c.09-2.11,.14-4.23,.15-6.36Z"/>
      <path class="d" d="M339.28,170.14c0-1.83-.04-3.65-.1-5.47l-175.9,174.46c2.03,.08,4.07,.13,6.12,.14l169.86-168.48c0-.22,0-.43,0-.65Z"/>
      <path class="d" d="M338.88,158.75l-181.54,180.06c1.97,.15,3.95,.25,5.93,.33l175.9-174.46c-.06-1.98-.16-3.96-.29-5.92Z"/>
      <path class="d" d="M290.54,51.36L50.37,289.57c1.04,1.04,2.09,2.07,3.15,3.08L293.59,54.54c-1-1.07-2.02-2.13-3.06-3.18Z"/>
      <path class="d" d="M339.12,177.15l-163.36,162.03c2.21-.07,4.42-.18,6.61-.34l156.36-155.08c.17-2.19,.3-4.39,.39-6.6Z"/>
      <path class="d" d="M335.98,136.78l-200.57,198.93c1.74,.36,3.49,.7,5.25,1.01l196.28-194.68c-.3-1.76-.61-3.52-.96-5.26Z"/>
      <path class="d" d="M336.94,142.04l-196.28,194.68c1.79,.31,3.59,.59,5.41,.85l191.69-190.13c-.24-1.81-.52-3.61-.82-5.4Z"/>
      <path class="d" d="M338.42,153l-186.79,185.27c1.9,.21,3.81,.39,5.73,.53l181.54-180.06c-.13-1.92-.28-3.84-.47-5.75Z"/>
      <path class="d" d="M337.75,147.44l-191.69,190.13c1.84,.26,3.7,.5,5.56,.7l186.79-185.27c-.19-1.86-.41-3.71-.66-5.56Z"/>
      <path class="d" d="M327.56,232.11l-96.73,95.94c3.73-1.43,7.39-2.99,10.98-4.68l80.98-80.32c1.71-3.58,3.31-7.23,4.77-10.95Z"/>
      <path class="d" d="M334.87,131.66l-204.56,202.9c1.69,.41,3.39,.8,5.1,1.15l200.57-198.93c-.34-1.72-.71-3.42-1.1-5.12Z"/>
      <path class="d" d="M301.81,276.29l-26.64,26.42c9.83-7.8,18.76-16.67,26.64-26.42Z"/>
      <path class="d" d="M322.79,243.06l-80.98,80.32c4.54-2.12,8.96-4.44,13.27-6.95l60.62-60.13c2.55-4.3,4.92-8.71,7.09-13.24Z"/>
      <path class="d" d="M338.03,190.66l-148.75,147.54c2.43-.27,4.84-.59,7.24-.97l140.47-139.33c.4-2.4,.74-4.81,1.04-7.24Z"/>
      <path class="d" d="M301.81,276.29c5.09-6.31,9.74-12.99,13.89-19.99l-60.62,60.13c7.03-4.09,13.74-8.68,20.09-13.71l26.64-26.42Z"/>
      <path class="d" d="M335.55,205.54l-131.38,130.31c2.74-.56,5.47-1.19,8.16-1.88l121.27-120.28c.71-2.69,1.36-5.41,1.95-8.15Z"/>
      <path class="d" d="M336.99,197.9l-140.47,139.33c2.57-.4,5.12-.86,7.65-1.37l131.38-130.31c.54-2.53,1.02-5.08,1.44-7.64Z"/>
      <path class="d" d="M333.6,213.69l-121.27,120.29c2.97-.76,5.91-1.61,8.82-2.53l109.86-108.97c.94-2.9,1.81-5.82,2.6-8.79Z"/>
      <path class="d" d="M331.01,222.48l-109.86,108.97c3.27-1.03,6.5-2.17,9.69-3.39l96.73-95.94c1.25-3.16,2.39-6.38,3.45-9.63Z"/>
      <path class="d" d="M338.73,183.75l-156.36,155.09c2.32-.17,4.62-.38,6.91-.64l148.75-147.54c.28-2.29,.51-4.59,.7-6.9Z"/>
      <path class="d" d="M305.01,68.08L66.97,304.17c1.18,.91,2.37,1.8,3.57,2.68L307.66,71.66c-.87-1.21-1.75-2.4-2.65-3.59Z"/>
      <path class="d" d="M310.22,75.33L74.19,309.44c1.24,.85,2.48,1.69,3.74,2.51L312.7,79.09c-.81-1.27-1.63-2.52-2.48-3.76Z"/>
      <path class="d" d="M307.66,71.66L70.54,306.85c1.21,.88,2.42,1.74,3.65,2.59L310.22,75.33c-.84-1.24-1.69-2.46-2.56-3.67Z"/>
      <path class="d" d="M312.7,79.09L77.92,311.95c1.27,.82,2.54,1.63,3.82,2.42L315.08,82.94c-.78-1.29-1.57-2.58-2.39-3.85Z"/>
      <path class="d" d="M296.57,57.81L56.76,295.66c1.09,.99,2.2,1.96,3.32,2.92L299.47,61.15c-.95-1.13-1.92-2.24-2.9-3.34Z"/>
      <path class="d" d="M302.28,64.57L63.49,301.42c1.15,.93,2.31,1.85,3.49,2.76L305.01,68.08c-.89-1.18-1.81-2.35-2.73-3.51Z"/>
      <path class="d" d="M293.59,54.54L53.52,292.66c1.07,1.01,2.15,2.01,3.24,3L296.57,57.81c-.98-1.1-1.97-2.19-2.97-3.26Z"/>
      <path class="d" d="M315.08,82.94L81.75,314.37c1.29,.79,2.6,1.57,3.91,2.33L317.38,86.87c-.75-1.32-1.51-2.64-2.3-3.94Z"/>
      <path class="d" d="M299.47,61.15L60.08,298.58c1.12,.96,2.26,1.91,3.4,2.84L302.28,64.57c-.92-1.15-1.86-2.3-2.81-3.42Z"/>
      <path class="d" d="M317.38,86.87L85.66,316.71c1.32,.76,2.66,1.51,4,2.24L319.59,90.9c-.72-1.35-1.45-2.69-2.21-4.03Z"/>
      <path class="d" d="M327.47,107.94L106.65,326.95c1.49,.6,2.99,1.19,4.5,1.75L329.18,112.45c-.55-1.52-1.12-3.02-1.71-4.52Z"/>
      <path class="d" d="M330.77,117.08L115.75,330.35c1.57,.53,3.15,1.03,4.73,1.52L332.26,121.82c-.47-1.59-.97-3.17-1.49-4.74Z"/>
      <path class="d" d="M329.18,112.45L111.15,328.7c1.53,.57,3.06,1.12,4.61,1.65L330.77,117.08c-.51-1.55-1.04-3.1-1.6-4.63Z"/>
      <path class="d" d="M332.26,121.82L120.48,331.87c1.61,.49,3.23,.96,4.85,1.4L333.63,126.68c-.43-1.63-.89-3.25-1.37-4.86Z"/>
      <path class="d" d="M319.59,90.9L89.66,318.95c1.35,.73,2.72,1.45,4.1,2.14L321.7,95.01c-.69-1.38-1.39-2.76-2.11-4.12Z"/>
      <path class="d" d="M333.63,126.68L125.34,333.27c1.65,.45,3.3,.88,4.97,1.28l204.57-202.9c-.39-1.67-.81-3.33-1.25-4.98Z"/>
      <path class="d" d="M321.7,95.01L93.77,321.09c1.39,.71,2.79,1.39,4.2,2.05L323.72,99.22c-.65-1.41-1.33-2.82-2.02-4.21Z"/>
      <path class="d" d="M323.72,99.22L97.96,323.14c1.42,.67,2.85,1.32,4.29,1.95L325.64,103.53c-.62-1.45-1.26-2.88-1.92-4.31Z"/>
      <path class="d" d="M325.64,103.53L102.26,325.1c1.46,.64,2.92,1.26,4.39,1.85L327.47,107.94c-.59-1.48-1.2-2.95-1.82-4.41Z"/>
    </g>
  </g>
</svg>