<?xml version="1.0" encoding="UTF-8"?>
<svg xmlns="http://www.w3.org/2000/svg" xmlns:xlink="http://www.w3.org/1999/xlink" viewBox="0 0 611.32 241.59">
  <defs>
    <style>
      .c {
        fill: none;
      }

      .d {
        fill: #130364;
      }

      .e {
        clip-path: url(#b);
      }

      .f {
        isolation: isolate;
      }

      .g {
        mix-blend-mode: multiply;
        opacity: .18;
      }
    </style>
    <clipPath id="b">
      <rect class="c" x="3.22" y="1.79" width="605.24" height="236.44"/>
    </clipPath>
  </defs>
  <g class="f">
    <g id="a" data-name="Capa 1">
      <g class="g">
        <g class="e">
          <path class="d" d="M602.26,153.86l-21.22,13.15-25.13,15.57c-6.09,3.77-13.97,2.16-18.34-3.49-58.47-75.56-143.71-106.44-223.19-94.9-75.91,13-145.79,60.47-180.07,145.24-2.67,6.6-9.82,10.27-16.71,8.26l-27.04,.48-77.83-3.08c-7.04-2.05-10.97-9.35-9-16.35C56.79,30.11,350.35-56.6,514.34,44.39c37.28,22.96,69.36,54.07,92.14,91.32,3.8,6.21,2,14.29-4.22,18.15"/>
        </g>
      </g>
    </g>
  </g>
</svg>