<?xml version="1.0" encoding="utf-8"?>
<!-- Generator: Adobe Illustrator 26.3.1, SVG Export Plug-In . SVG Version: 6.00 Build 0)  -->
<svg version="1.1" id="Capa_1" xmlns="http://www.w3.org/2000/svg" xmlns:xlink="http://www.w3.org/1999/xlink" x="0px" y="0px"
	 viewBox="0 0 200 200" style="enable-background:new 0 0 200 200;" xml:space="preserve">
<style type="text/css">
	.st0{fill:#FFFFFF;}
	.st1{fill:#130364;}
	.st2{fill:#C7C7C7;}
	.st3{fill:#949494;}
	.st4{opacity:0.8;fill:#130364;}
	.st5{clip-path:url(#SVGID_00000164486258319234743760000002530108733050941112_);fill:#FFFFFF;}
	.st6{clip-path:url(#SVGID_00000057868885410362507310000007079652424191673775_);fill:#FFFFFF;}
	.st7{clip-path:url(#SVGID_00000021116180482906354160000006423831553120624566_);fill:#FFFFFF;}
	.st8{opacity:0.5;fill:#8004E2;}
	.st9{fill:#8004E2;}
	.st10{opacity:0.2;}
	.st11{clip-path:url(#SVGID_00000089557957156274262250000005137019406287991681_);fill:#FFFFFF;}
	.st12{clip-path:url(#SVGID_00000129928055076972506200000009674988079500446865_);fill:#FFFFFF;}
	.st13{clip-path:url(#SVGID_00000112591226461259762700000009460606133026610317_);fill:#FFFFFF;}
	.st14{clip-path:url(#SVGID_00000027590421768808998670000012822053672293074099_);}
	.st15{fill:none;stroke:#FFFFFF;stroke-miterlimit:10;}
	.st16{clip-path:url(#SVGID_00000018232704036324867160000003898086650277670321_);}
	.st17{opacity:0.39;}
	.st18{clip-path:url(#SVGID_00000067923126349906742090000000531162301989938309_);fill:#130364;}
	.st19{opacity:0.24;}
	.st20{clip-path:url(#SVGID_00000162351173192480121880000009107772813246078116_);fill:none;stroke:#C85CE1;stroke-miterlimit:10;}
	.st21{clip-path:url(#SVGID_00000159434587943041057150000016324219023485696150_);fill:none;stroke:#C85CE1;stroke-miterlimit:10;}
	.st22{opacity:0.3;}
	.st23{fill:#F9F6F6;}
	.st24{fill:none;stroke:#FFFFFF;stroke-width:2;stroke-miterlimit:10;}
	.st25{fill:#CF5CE8;}
	.st26{clip-path:url(#SVGID_00000072258959495646746950000004533914648748463498_);fill:none;stroke:#C85CE1;stroke-miterlimit:10;}
	.st27{filter:url(#Adobe_OpacityMaskFilter);}
	
		.st28{clip-path:url(#SVGID_00000170280227411593000950000002539647867829674661_);fill:url(#SVGID_00000153691393358920593950000004236182669186002849_);}
	
		.st29{clip-path:url(#SVGID_00000173846624563397869530000005522306627787870378_);fill:url(#SVGID_00000025438476362288271940000003902803713822243739_);}
	
		.st30{clip-path:url(#SVGID_00000039121809273246673730000010055306406911183260_);fill:url(#SVGID_00000014594301819888318680000017489118746993962928_);}
	.st31{opacity:0.5;fill:#FFFFFF;}
	.st32{fill:none;stroke:#8004E2;stroke-width:2;stroke-linecap:round;stroke-miterlimit:10;}
</style>
<g>
	<path class="st1" d="M8.51,99.93c0-26.72-0.01-53.43,0-80.15c0-7.96,3.28-11.23,11.23-11.24c39.3-0.01,78.6-0.01,117.91,0
		c7.75,0,11.44,3.46,11.48,11.23c0.11,17.57,0.05,35.15,0.02,52.72c0,1.17-0.17,2.38-0.51,3.5c-0.45,1.52-1.61,2.32-3.23,2.26
		c-1.47-0.06-2.41-0.86-2.95-2.2c-0.65-1.59-0.52-3.27-0.52-4.92c-0.01-16.74,0-33.48-0.01-50.23c0-5.08-0.44-5.51-5.47-5.51
		c-38.59-0.01-77.18-0.01-115.77,0c-4.89,0-5.34,0.44-5.34,5.27c-0.01,52.84-0.01,105.68,0,158.51c0,5.07,0.39,5.45,5.52,5.45
		c38.47,0.01,76.94,0.01,115.41,0c5.27,0,5.64-0.38,5.65-5.7c0.02-7.84,0-15.67,0.01-23.51c0-1.18-0.01-2.39,0.16-3.55
		c0.29-1.94,1.3-3.41,3.44-3.42c1.96-0.01,2.96,1.35,3.32,3.13c0.21,1.04,0.29,2.12,0.29,3.18c0.02,8.31,0.07,16.62,0,24.93
		c-0.07,8.41-3.55,11.77-12.02,11.77c-39.06,0-78.13,0.01-117.19,0c-8.22,0-11.43-3.2-11.43-11.38
		C8.51,153.36,8.51,126.64,8.51,99.93z"/>
	<path class="st1" d="M94.46,145.76c-1.97,5.89-3.73,11.17-5.51,16.45c-0.3,0.9-0.59,1.81-1.01,2.66c-0.82,1.64-2.12,2.68-4.02,2.06
		c-1.96-0.64-2.98-2.18-2.33-4.17c2.47-7.68,4.94-15.36,7.73-22.92c1.07-2.91,3.7-4.33,6.94-3.74c3.19,0.58,4.94,2.69,5.32,5.85
		c0.39,3.17,0.65,6.35,0.96,9.52c0.27,0,0.56,0.09,0.69-0.01c5.09-4.18,9.05-3.39,11.76,2.6c1.01,2.22,1.68,2.52,3.24,0.53
		c2.15-2.75,4.88-5.07,2.93-9.29c-0.88-1.91,0-4.22,1.09-6.13c2.49-4.35,4.31-8.98,5.92-13.7c4.62-13.63,13.27-25.12,19.99-37.64
		c2.36-4.39,4.9-8.68,7.47-12.95c1.02-1.69,1.25-2.89-0.65-4.13c-1.5-0.98-2.25-2.55-1.3-4.33c1-1.88,2.73-2.33,4.56-1.44
		c2.02,0.98,3.06,0.15,4.01-1.52c1.46-2.58,3.03-5.1,4.51-7.67c1.14-1.99,2.21-3.95,4.94-4.04c1.43-0.05,1.71-1.5,2.37-2.43
		c3.07-4.28,8.17-5.57,12.54-3.16c4.22,2.33,6.02,7.31,4.16,11.98c-0.76,1.89-1.61,3.6-0.72,5.73c0.47,1.14-0.23,2.31-0.83,3.35
		c-1.06,1.86-2.13,3.7-3.17,5.57c-0.98,1.76-2.42,3.45-2.75,5.33c-0.4,2.29,2.5,2.43,3.67,3.83c2.53,2.99,3.3,7.57,1.22,11.33
		c-3.73,6.75-7.64,13.4-11.53,20.06c-1.18,2.01-2.86,3.44-5.26,1.97c-2.24-1.37-1.77-3.38-0.67-5.3c3.3-5.77,6.64-11.51,9.93-17.28
		c0.64-1.13,1.29-2.29,1.66-3.52c0.47-1.55-0.17-2.78-1.68-3.5c-1.77-0.85-2.3,0.53-2.95,1.64c-6.89,11.92-13.9,23.77-20.58,35.79
		c-3.15,5.66-7.13,10.62-11.22,15.55c-2.5,3.02-4.98,6.04-6.88,9.49c-1.79,3.25-4.59,5.2-8.29,5.34c-2.3,0.08-3.74,1.06-5,2.8
		c-1.32,1.83-2.71,3.61-4.21,5.29c-3.82,4.29-9.06,3.66-11.5-1.52c-1.05-2.23-1.55-2.95-3.84-1.01c-3.89,3.3-8.79,1.4-10.21-3.61
		C95.1,152.47,95.9,149.26,94.46,145.76z M172.31,82.33c0.05-1.28-0.6-1.78-1.33-2.22c-1.43-0.85-2.94-1.58-4.27-2.55
		c-2.51-1.82-3.96-1.33-5.51,1.44c-5.83,10.45-11.9,20.78-17.91,31.14c-4.03,6.94-3.99,6.82,2.98,10.96
		c2.4,1.42,3.41,0.85,4.67-1.36c6.66-11.76,13.46-23.44,20.2-35.15C171.6,83.77,172,82.92,172.31,82.33z M181.52,66.31
		c-0.14-1.78-1.69-2.22-2.88-2.78c-2.15-1.01-3.8-3.36-6.61-2.64c-0.28,0.07-0.47,0.51-0.69,0.78c-5.24,6.48-4.83,8.44,2.56,12.12
		c0.42,0.21,0.85,0.42,1.28,0.62c0.58,0.27,1.26,0.35,1.65-0.14C178.75,71.86,180.13,69.12,181.52,66.31z M144.41,128.95
		c-0.17-0.41-0.21-0.87-0.44-1.02c-2.11-1.31-4.2-2.65-6.4-3.8c-0.95-0.5-1.49,0.36-1.81,1.19c-0.88,2.33-1.76,4.66-2.6,7
		c-0.41,1.14-0.12,2.16,1.01,2.71c1.32,0.64,2.71,2.41,4.12,1.23C140.73,134.23,142.69,131.65,144.41,128.95z"/>
	<path class="st1" d="M78.58,45.89c-11.99,0-23.97,0.02-35.96-0.01c-5.98-0.01-6.95-1.04-6.96-7.1c-0.01-2.14-0.02-4.27,0.01-6.41
		c0.07-4.66,1.21-5.81,5.99-5.85c5.1-0.05,10.21-0.01,15.31-0.01c19.34,0,38.68-0.02,58.03,0.02c2.67,0.01,5.85-0.44,6.42,3.38
		c0.38,2.48-1.93,3.82-6.45,3.82c-22.43,0.02-44.85,0.01-67.28,0.02c-1.18,0-2.38,0.01-3.55,0.15c-1.36,0.16-1.6,1.2-1.6,2.36
		c0,1.19,0.32,2.16,1.69,2.28c1.18,0.1,2.37,0.11,3.55,0.11c22.19,0.01,44.38-0.02,66.57,0.03c2.85,0.01,6.38-0.73,7.04,3.49
		c0.4,2.59-1.93,3.71-7.2,3.72C102.31,45.9,90.45,45.89,78.58,45.89z"/>
	<path class="st1" d="M46.96,179.35c-14.22,0.02-25.92-10.94-26.3-24.63c-0.41-15.09,10.38-27.12,25.07-27.75
		c5.59-0.24,10.81,1.24,15.46,4.44c1.88,1.29,3.5,2.85,1.94,5.27c-1.52,2.37-3.54,1.69-5.59,0.53c-9.3-5.27-19.05-3.93-25.45,3.45
		c-5.21,6-6.09,14.85-2.2,21.96c3.72,6.79,11.79,10.82,19.51,9.74c8.03-1.12,14.5-7.13,16.15-15.01c0.27-1.28,0.51-2.56,0.67-3.85
		c0.27-2.16,1.26-3.74,3.59-3.53c2.26,0.2,3.24,1.94,3.17,4.04c-0.18,5.22-1.7,10.09-4.8,14.3
		C62.95,175.42,55.94,179.34,46.96,179.35z"/>
	<path class="st1" d="M94.29,72.1c9.84,0,19.68-0.01,29.53,0.01c1.18,0,2.38,0,3.54,0.19c1.81,0.29,3.14,1.33,3.22,3.25
		c0.08,1.93-1.15,3.09-2.97,3.42c-1.39,0.26-2.82,0.35-4.24,0.35c-19.68,0.02-39.37,0.02-59.05-0.01c-1.53,0-3.08-0.16-4.57-0.47
		c-1.53-0.32-2.5-1.43-2.55-3.03c-0.06-1.77,0.97-2.94,2.63-3.34c1.25-0.3,2.58-0.36,3.87-0.36C73.9,72.09,84.1,72.1,94.29,72.1z"/>
	<path class="st1" d="M78.33,58.03c-8.88,0-17.77,0.01-26.65-0.01c-1.29,0-2.61-0.07-3.87-0.33c-1.67-0.35-2.73-1.48-2.75-3.24
		c-0.01-1.77,1.02-2.9,2.72-3.23c1.38-0.27,2.81-0.4,4.22-0.4c17.89-0.03,35.78-0.04,53.66,0.01c2.75,0.01,6.45-0.54,6.46,3.58
		c0.01,4.12-3.68,3.59-6.43,3.61C96.58,58.07,87.46,58.03,78.33,58.03z"/>
	<path class="st1" d="M63.23,97.36c-9.14,0-18.28,0.01-27.42-0.01c-1.18,0-2.4,0-3.53-0.3c-1.51-0.4-2.4-1.51-2.39-3.14
		c0.01-1.64,0.93-2.73,2.44-3.11c1.13-0.29,2.35-0.28,3.53-0.28c18.4-0.02,36.8-0.01,55.2-0.01c0.59,0,1.19,0.01,1.78,0.01
		c2.24,0.03,4.2,0.74,4.29,3.26c0.09,2.75-1.94,3.56-4.33,3.56c-9.85,0.02-19.71,0.01-29.56,0.01
		C63.23,97.36,63.23,97.36,63.23,97.36z"/>
	<path class="st1" d="M48.03,112.72c-4.38,0-8.76,0.09-13.13-0.04c-2.41-0.07-5.08-0.39-4.91-3.73c0.15-2.98,2.53-3.37,4.91-3.37
		c8.99-0.02,17.99-0.02,26.98,0.01c2.43,0.01,4.67,0.56,4.75,3.55c0.07,2.89-2.19,3.45-4.4,3.51c-4.73,0.12-9.46,0.04-14.2,0.04
		C48.03,112.69,48.03,112.7,48.03,112.72z"/>
	<path class="st1" d="M46.65,162.16c-2.34,0.03-3.87-0.6-5.1-1.78c-2.06-1.96-4.07-3.97-6.03-6.02c-1.46-1.53-2.03-3.39-0.45-5.07
		c1.75-1.86,3.63-1.14,5.33,0.34c0.09,0.08,0.17,0.16,0.26,0.24c5.6,4.94,5.58,4.92,10.89-0.34c1.68-1.66,3.37-3.33,5.21-4.8
		c1.34-1.08,2.93-1.01,4.21,0.23c1.26,1.21,1.62,2.89,0.49,4.18c-3.88,4.45-7.82,8.88-12.68,12.33
		C48.05,161.99,47.01,162.05,46.65,162.16z"/>
	<path class="st1" d="M86.32,105.59c3.09,0,6.18-0.07,9.26,0.02c2.28,0.06,4.45,0.67,4.5,3.47c0.05,2.61-1.94,3.34-4.11,3.47
		c-6.52,0.39-13.05,0.36-19.57,0.02c-2.23-0.12-4.12-1.09-3.99-3.61c0.12-2.47,2.09-3.3,4.3-3.35
		C79.9,105.53,83.11,105.59,86.32,105.59z"/>
	<path class="st1" d="M116.67,97.34c-3.31,0-6.63,0.04-9.94-0.02c-2.13-0.03-3.84-0.94-3.92-3.24c-0.08-2.52,1.69-3.52,3.97-3.53
		c6.63-0.04,13.26-0.04,19.88,0c2.13,0.01,3.85,0.95,3.92,3.24c0.08,2.51-1.7,3.49-3.98,3.54C123.3,97.38,119.98,97.34,116.67,97.34
		z"/>
</g>
</svg>
