<?xml version="1.0" encoding="utf-8"?>
<!-- Generator: Adobe Illustrator 26.3.1, SVG Export Plug-In . SVG Version: 6.00 Build 0)  -->
<svg version="1.1" id="Capa_1" xmlns="http://www.w3.org/2000/svg" xmlns:xlink="http://www.w3.org/1999/xlink" x="0px" y="0px"
	 viewBox="0 0 200 200" style="enable-background:new 0 0 200 200;" xml:space="preserve">
<style type="text/css">
	.st0{fill:#FFFFFF;}
	.st1{fill:#130364;}
	.st2{fill:#C7C7C7;}
	.st3{fill:#949494;}
	.st4{opacity:0.8;fill:#130364;}
	.st5{clip-path:url(#SVGID_00000081636782925034447790000012761745840155429519_);fill:#FFFFFF;}
	.st6{clip-path:url(#SVGID_00000101063442581589882650000001646377431576877963_);fill:#FFFFFF;}
	.st7{clip-path:url(#SVGID_00000150783017152822671800000012067753292462426511_);fill:#FFFFFF;}
	.st8{opacity:0.5;fill:#8004E2;}
	.st9{fill:#8004E2;}
	.st10{opacity:0.2;}
	.st11{clip-path:url(#SVGID_00000102532558461447349650000017767974057987168443_);fill:#FFFFFF;}
	.st12{clip-path:url(#SVGID_00000098204867826291606090000011106390800482770830_);fill:#FFFFFF;}
	.st13{clip-path:url(#SVGID_00000140004978661697873700000013242935269433887619_);fill:#FFFFFF;}
	.st14{clip-path:url(#SVGID_00000005253310881283530860000013476038875093932428_);}
	.st15{fill:none;stroke:#FFFFFF;stroke-miterlimit:10;}
	.st16{clip-path:url(#SVGID_00000104707526374507219020000017332584082320603065_);}
	.st17{opacity:0.39;}
	.st18{clip-path:url(#SVGID_00000010310653042005793230000011436071898841027980_);fill:#130364;}
	.st19{opacity:0.24;}
	.st20{clip-path:url(#SVGID_00000106840221281149006830000013978597451698967965_);fill:none;stroke:#C85CE1;stroke-miterlimit:10;}
	.st21{clip-path:url(#SVGID_00000058587973201826197560000004469770440793791165_);fill:none;stroke:#C85CE1;stroke-miterlimit:10;}
	.st22{opacity:0.3;}
	.st23{fill:#F9F6F6;}
	.st24{fill:none;stroke:#FFFFFF;stroke-width:2;stroke-miterlimit:10;}
	.st25{fill:#CF5CE8;}
	.st26{clip-path:url(#SVGID_00000094591740270425410730000011700175550761880726_);fill:none;stroke:#C85CE1;stroke-miterlimit:10;}
	.st27{filter:url(#Adobe_OpacityMaskFilter);}
	
		.st28{clip-path:url(#SVGID_00000093149168327948167010000012207484033660491433_);fill:url(#SVGID_00000107547832234091140530000004620981097974423720_);}
	
		.st29{clip-path:url(#SVGID_00000165932679115586736760000010364502500031233712_);fill:url(#SVGID_00000171714165049114720260000011401088029651179911_);}
	
		.st30{clip-path:url(#SVGID_00000127003018016331557390000013726851899553610423_);fill:url(#SVGID_00000109732686694867035450000009926214178238170537_);}
	.st31{opacity:0.5;fill:#FFFFFF;}
	.st32{fill:none;stroke:#8004E2;stroke-width:2;stroke-linecap:round;stroke-miterlimit:10;}
</style>
<g>
	<path class="st1" d="M93.34,46.15c0-3.81-0.04-6.98,0.01-10.14c0.05-3.32,0.99-4.24,4.26-4.27c3.7-0.03,7.41-0.02,11.12,0
		c3.65,0.02,4.55,0.9,4.56,4.51c0.01,8.29-0.06,16.59,0.08,24.88c0.02,1.19,0.74,2.7,1.64,3.49c7.09,6.23,14.31,12.31,21.48,18.44
		c0.54,0.46,1.09,0.9,1.59,1.4c1.3,1.3,1.65,2.77,0.34,4.21c-1.2,1.33-2.64,1.24-4.03,0.23c-0.71-0.52-1.36-1.12-2.04-1.69
		c-19.54-16.64-39.08-33.28-58.63-49.92c-0.67-0.57-1.36-1.12-2.25-1.84c-0.93,0.76-1.87,1.51-2.79,2.29
		C49.14,54.37,29.61,71.01,10.06,87.65c-0.67,0.57-1.36,1.46-2.1,1.52c-1.17,0.1-2.85,0.01-3.44-0.71c-0.6-0.72-0.29-2.35-0.06-3.52
		c0.11-0.56,0.94-1,1.47-1.46C26.67,65.8,47.42,48.13,68.17,30.46c2.96-2.52,3.62-2.52,6.55-0.04c5.45,4.62,10.88,9.27,16.32,13.9
		C91.62,44.82,92.23,45.27,93.34,46.15z M99.24,37.77c0,4.35-0.01,8.56,0.01,12.77c0,0.33,0.09,0.77,0.32,0.97
		c2.45,2.15,4.94,4.26,7.67,6.61c0-7.2,0-13.76,0-20.34C104.54,37.77,102.02,37.77,99.24,37.77z"/>
	<g>
		<path class="st1" d="M88.98,143.41c0-0.89,0-1.82,0-2.75c0-9.97,0.01-19.93,0-29.9c0-3.76-0.74-4.52-4.48-4.53
			c-8.73-0.02-17.46-0.02-26.2,0c-3.56,0.01-4.34,0.82-4.35,4.39c-0.01,9.97,0,19.93,0,29.9c0,0.95,0,1.9,0,2.96
			c-7.74,0-15.21,0-22.95,0c-0.06-0.74-0.18-1.49-0.18-2.24c-0.01-17.46-0.03-34.93,0.04-52.39c0-1.01,0.4-2.37,1.11-2.99
			C45,74.65,58.1,63.52,71.46,52.14c6.71,5.7,13.22,11.23,19.72,16.77c6.45,5.49,12.91,10.95,19.29,16.52
			c0.81,0.71,1.58,2,1.58,3.02c0.07,12.58,0.07,25.16,0.07,37.75c1.86-0.54,3.81-0.91,5.83-1.14c0-9.99,0-19.98,0-29.98
			c0-0.9,0-1.8,0-3.19c1.61,1.31,2.57,2.55,3.81,2.96c1.11,0.37,3.02,0.29,3.66-0.42c0.63-0.71,0.27-2.47,0.03-3.71
			c-0.11-0.56-0.95-0.98-1.49-1.44C107.6,75.29,91.25,61.31,74.89,47.33c-3.07-2.63-3.79-2.61-6.98,0.11
			c-11.07,9.45-22.13,18.9-33.19,28.36c-5.56,4.76-11.13,9.51-16.68,14.29c-1.46,1.26-2,2.81-0.67,4.39
			c1.35,1.61,2.94,1.24,4.42,0.02c0.88-0.72,1.74-1.46,3.16-2.67c0,1.61,0,2.55,0,3.49c0,16.32,0,32.64,0,48.95
			c0,4.47,0.74,5.21,5.21,5.21c20.38,0,40.75,0,61.13,0c0.11-2.12,0.51-4.15,1.18-6.08C91.31,143.41,90.15,143.41,88.98,143.41z
			 M82.98,143.42c-7.61,0-15.22,0-23.01,0c0-10.3,0-20.63,0-31.16c7.78,0,15.33,0,23.01,0C82.98,122.68,82.98,132.95,82.98,143.42z"
			/>
	</g>
	<g>
		<path class="st1" d="M195.73,144.43c-0.18-1.93-0.41-3.78-1.3-5.27c-1.1-1.84-1.63-3.79-2.19-5.85c-0.13-0.48-0.26-0.96-0.4-1.44
			c-2.49-8.64-8.86-14.02-18.94-15.98c-2.66-0.52-5.45-0.49-8.13-0.47l-3.01,0.02c-5.69,0.02-11.58,0.03-17.35,0.34
			c-3.81,0.2-7.69,1.64-11.88,4.41c-1.36,0.9-2.71,1.8-4.06,2.7c-2.33,1.56-4.66,3.11-7.01,4.63c-0.66,0.43-1.52,0.72-2.29,0.79
			c-8.1,0.71-14.83,4.12-19.99,10.14c-3.05,3.56-4.59,7.74-4.56,12.41c0,0.7,0,1.39,0,2.09c0,0.98-0.01,1.97,0.01,2.95
			c0.05,4.47,2.95,7.41,7.38,7.48l0.3,0.01c0.39,0.01,0.78,0.02,1.17-0.01c2.73-0.22,4.46-0.18,5.65,2.91
			c1.41,3.64,5.01,5.54,9.66,5.08c4.15-0.41,7.18-2.73,8.53-6.53c0.46-1.29,1-1.51,2.29-1.48c13.3,0.07,26.37,0.04,36.27,0.01
			c0.02,0,0.04,0,0.06,0c1.12,0,1.56,0.12,1.93,1.28c1.31,4.07,5.16,6.79,9.59,6.79c0.03,0,0.06,0,0.09,0
			c4.38-0.04,8.19-2.76,9.48-6.78c0.37-1.15,0.79-1.29,1.86-1.29c0.09,0,0.19,0,0.29,0c2.39,0,3.99-0.48,5.03-1.52
			c1.08-1.07,1.58-2.74,1.58-5.27l0-6.07c0-0.5,0.01-1,0.03-1.5C195.84,147.5,195.87,145.95,195.73,144.43z M105.5,144.89
			c0.04,0.05,0.09,0.11,0.14,0.16c-0.05,0.06-0.11,0.12-0.16,0.18c-0.26,0.3-0.62,0.71-0.82,0.73h0c-1.22,0.14-2.48,0.12-3.82,0.09
			c-0.29-0.01-0.58-0.01-0.88-0.02c0.03-0.13,0.05-0.26,0.08-0.39c0.21-1.05,0.33-1.48,1.19-1.57c1.06-0.12,2.3-0.2,3.4,0.04
			C104.88,144.16,105.21,144.55,105.5,144.89z M99.1,152.04c0.01-0.52,0.02-1.04,0.02-1.56c0.54,0,1.06,0.01,1.58,0.01
			c1.57,0.02,3.05,0.04,4.53-0.04c2.84-0.14,5.09-2.5,5.12-5.37c0.03-2.86-2.13-5.21-5-5.47h0c-0.33-0.03-0.66-0.04-1.06-0.03
			c4.54-4.25,9.57-6.43,15.7-6.84c1.15-0.08,2.34-0.46,3.25-1.04c2.81-1.8,5.63-3.69,8.35-5.51l3.23-2.16
			c3.67-2.44,6.82-3.65,9.92-3.8c5.95-0.28,12.02-0.31,17.88-0.33l2-0.01c2.64-0.02,5.21,0.01,7.72,0.4
			c8.04,1.25,14.25,6.92,15.47,14.11c0.37,2.16,0.82,4.26,2.36,6.12c0.37,0.45,0.57,1.12,0.78,1.84c0.04,0.13,0.08,0.26,0.12,0.4
			c-4.05,0.82-6.13,2.9-6.18,6.21c-0.06,3.44,2.11,5.62,6.44,6.49v0.13c0,0.5-0.01,1.02,0.01,1.53c0.03,0.81-0.08,1.34-0.33,1.57
			c-0.06,0.05-0.22,0.21-0.73,0.19c-0.38-0.03-0.77,0.04-1.14,0.09c-1.05,0.15-1.63,0.24-2.02-1.09c-1.23-4.14-5.06-6.95-9.54-7
			c-0.04,0-0.07,0-0.11,0c-4.45,0-8.33,2.78-9.68,6.94c-0.32,0.99-0.63,1.14-1.64,1.14c-0.01,0-0.03,0-0.04,0
			c-13.38-0.04-25.43-0.04-36.85,0.01c-1.16,0.02-1.43-0.15-1.83-1.25c-1.43-4.06-4.47-6.4-8.79-6.77c-4.55-0.38-8.15,1.56-9.59,5.2
			c-1.08,2.72-2.5,3.06-5.29,2.81c-0.39-0.04-0.78-0.03-1.17-0.02c-0.35,0.01-0.7,0.02-1.04-0.02c-0.66-0.06-2.2-0.39-2.35-2.05
			C99.04,155.28,99.07,153.71,99.1,152.04z M189.36,149.05c0-0.49,0.14-0.86,0.41-1.12c0.3-0.29,0.81-0.47,1.48-0.51v3.31
			c-0.69-0.07-1.2-0.26-1.5-0.57C189.48,149.9,189.35,149.54,189.36,149.05z M113.74,156.99c1.1-1.08,2.54-1.66,4.07-1.66
			c0.05,0,0.1,0,0.15,0c3.19,0.08,5.73,2.74,5.67,5.93c-0.06,3.17-2.66,5.72-5.82,5.72c-0.02,0-0.04,0-0.06,0
			c-3.18-0.04-5.77-2.66-5.76-5.84C111.98,159.57,112.6,158.1,113.74,156.99z M177.36,155.33c0.03,0,0.05,0,0.08,0
			c3.16,0,5.76,2.54,5.82,5.7c0.03,1.58-0.56,3.07-1.68,4.2c-1.11,1.13-2.58,1.75-4.14,1.75c-0.01,0-0.01,0-0.02,0
			c-3.19-0.01-5.79-2.61-5.81-5.8C171.59,158,174.17,155.37,177.36,155.33z"/>
		<path class="st1" d="M128.03,142.43c2.1,0,4.19,0.01,6.29,0.01c1.57,0,3.14,0,4.71,0l5.32,0v-0.38c1.69,0,3.39,0.04,5.09,0.06
			c4.41,0.08,8.98,0.15,13.45-0.2c4.06-0.32,8.08-1.55,11.96-2.73l0.84-0.26c3.41-1.03,5.43-3.79,5.55-7.56
			c0.12-3.76-1.68-6.56-5.05-7.88c-2.55-1-4.77-1.51-6.8-1.56c-5.92-0.14-11.94-0.11-17.76-0.09l-5.01,0.02
			c-3.51,0.01-6.89,1.02-10.02,3c-3.86,2.44-7.71,4.88-11.55,7.35c-2.48,1.59-3.51,3.87-2.83,6.26
			C122.94,141.02,125,142.42,128.03,142.43z M162.99,126.34c2.61-0.03,5.07-0.06,7.55,0.09c1.31,0.08,2.84,0.56,4.3,1.35
			c1.29,0.7,2.08,2.05,2.04,3.5c-0.03,1.36-0.78,2.52-2,3.11c-3.99,1.92-8.6,3-14.48,3.39v-11.41
			C161.27,126.36,162.13,126.35,162.99,126.34z M126.75,137.29c0.04-0.08,0.07-0.16,0.11-0.24c0.2-0.44,0.4-0.89,0.66-1.07
			c3.57-2.37,7.62-5.06,11.68-7.4c2.12-1.22,4.04-1.92,5.72-2.07c2.63-0.23,5.23-0.19,7.99-0.14c0.94,0.02,1.88,0.04,2.83,0.04
			v11.52l-4.04,0.01c-7.93,0.02-15.86,0.03-23.79-0.02c-0.26,0-0.64-0.27-0.99-0.51C126.87,137.37,126.81,137.33,126.75,137.29z"/>
		<rect x="149.56" y="144.57" class="st1" width="7.51" height="4.19"/>
	</g>
</g>
</svg>
