<?xml version="1.0" encoding="utf-8"?>
<!-- Generator: Adobe Illustrator 26.3.1, SVG Export Plug-In . SVG Version: 6.00 Build 0)  -->
<svg version="1.1" id="Capa_1" xmlns="http://www.w3.org/2000/svg" xmlns:xlink="http://www.w3.org/1999/xlink" x="0px" y="0px"
	 viewBox="0 0 200 200" style="enable-background:new 0 0 200 200;" xml:space="preserve">
<style type="text/css">
	.st0{fill:#FFFFFF;}
	.st1{fill:#130364;}
	.st2{fill:#C7C7C7;}
	.st3{fill:#949494;}
	.st4{opacity:0.8;fill:#130364;}
	.st5{clip-path:url(#SVGID_00000132779367772753931120000001998446503433328272_);fill:#FFFFFF;}
	.st6{clip-path:url(#SVGID_00000139998841321051428660000008776329639850610328_);fill:#FFFFFF;}
	.st7{clip-path:url(#SVGID_00000080926727506741633600000018160101543914222222_);fill:#FFFFFF;}
	.st8{opacity:0.5;fill:#8004E2;}
	.st9{fill:#8004E2;}
	.st10{opacity:0.2;}
	.st11{clip-path:url(#SVGID_00000103265580908840249120000011129556324868848319_);fill:#FFFFFF;}
	.st12{clip-path:url(#SVGID_00000062903461165687167920000002377457156299481734_);fill:#FFFFFF;}
	.st13{clip-path:url(#SVGID_00000100367876222656331950000015077215114159441286_);fill:#FFFFFF;}
	.st14{clip-path:url(#SVGID_00000103961195231473784010000015921310372814738366_);}
	.st15{fill:none;stroke:#FFFFFF;stroke-miterlimit:10;}
	.st16{clip-path:url(#SVGID_00000031890003553457920130000004153514709948379562_);}
	.st17{opacity:0.39;}
	.st18{clip-path:url(#SVGID_00000155132673493833803650000015231312472507533713_);fill:#130364;}
	.st19{opacity:0.24;}
	.st20{clip-path:url(#SVGID_00000091723706255640233050000011029994749055272601_);fill:none;stroke:#C85CE1;stroke-miterlimit:10;}
	.st21{clip-path:url(#SVGID_00000000929042701032307580000001059862138901023164_);fill:none;stroke:#C85CE1;stroke-miterlimit:10;}
	.st22{opacity:0.3;}
	.st23{fill:#F9F6F6;}
	.st24{fill:none;stroke:#FFFFFF;stroke-width:2;stroke-miterlimit:10;}
	.st25{fill:#CF5CE8;}
	.st26{clip-path:url(#SVGID_00000021809192403394571080000005719836692537596299_);fill:none;stroke:#C85CE1;stroke-miterlimit:10;}
	.st27{filter:url(#Adobe_OpacityMaskFilter);}
	
		.st28{clip-path:url(#SVGID_00000122708598824594420800000017349904054247879330_);fill:url(#SVGID_00000001644873715374763740000012550380742166261434_);}
	
		.st29{clip-path:url(#SVGID_00000129174684860455790030000007377841815639092626_);fill:url(#SVGID_00000015346103303599382280000006615882000959973260_);}
	
		.st30{clip-path:url(#SVGID_00000137828558420544154370000012935896600783432100_);fill:url(#SVGID_00000178189453208351264490000018333638724160641713_);}
	.st31{opacity:0.5;fill:#FFFFFF;}
	.st32{fill:none;stroke:#8004E2;stroke-width:2;stroke-linecap:round;stroke-miterlimit:10;}
</style>
<g>
	<path class="st1" d="M91.75,23.36c21.37,0,42.73,0,64.1,0c6.35,0,7.91,1.51,7.93,7.96c0.04,16.05,0.02,32.11,0.02,48.16
		c0,1.06-0.05,2.13,0.02,3.19c0.1,1.55-0.45,3.66,2.17,3.58c2.42-0.07,1.82-2.09,1.83-3.48c0.05-10.03,0.03-20.07,0.03-30.1
		c0-8.26,0.02-16.53-0.01-24.79c-0.03-5.98-2.44-8.42-8.32-8.49c-4.01-0.04-8.03,0.03-12.04-0.04c-2.31-0.04-4.92-0.25-4.9-3.29
		c0.02-2.82,2.52-3.12,4.7-3.11c4.95,0.03,9.93-0.46,14.85,0.28c7.32,1.1,11.77,6.23,11.79,13.62c0.05,18.3,0.1,36.6-0.05,54.89
		c-0.03,3.42,0.68,4.79,4.45,4.72c7.79-0.16,12.61,4.83,12.63,12.55c0.04,15.58,0.02,31.16,0.01,46.75c0,0.94,0.01,1.9-0.16,2.82
		c-0.26,1.44-1.24,2.32-2.67,2.42c-1.47,0.1-2.54-0.78-2.88-2.15c-0.31-1.24-0.35-2.56-0.35-3.85c-0.02-14.87,0-29.75-0.02-44.62
		c-0.01-5.87-2.03-7.9-7.85-7.91c-12.87-0.02-25.73-0.02-38.6,0c-5.93,0.01-7.86,1.91-7.86,7.83c-0.02,24.2-0.02,48.4,0,72.6
		c0.01,6.13,1.69,7.82,7.76,7.83c12.99,0.03,25.97,0.03,38.96,0c5.77-0.01,7.56-1.86,7.6-7.67c0.02-3.54,0-7.08,0.02-10.62
		c0.01-2.23,0.26-4.65,3.04-4.75c2.98-0.11,3.02,2.38,3.02,4.59c0,4.25,0.06,8.5-0.02,12.75c-0.11,5.93-4.02,10.56-9.87,11.69
		c-1.73,0.33-3.51,0.47-5.27,0.48c-12.04,0.04-24.08,0.03-36.12,0.01c-3.2,0-6.4-0.16-9.26-1.84c-1.19-0.7-2.19-0.54-3.27,0.2
		c-1.93,1.32-4.18,1.61-6.43,1.62c-19.6,0.03-39.19,0.03-58.79,0.01c-3.6,0-6.82-1-8.7-4.4c-3.02-5.45,0.78-11.83,7.19-12.12
		c7.31-0.34,9.12-2.13,9.68-9.58c0.52-6.93,0.52-6.93-6.62-6.93c-13.34,0-26.68,0.02-40.02-0.01c-9.15-0.02-14.32-5.15-14.34-14.22
		c-0.03-10.15-0.01-20.3-0.01-30.46c0-0.47,0.01-0.94,0-1.42c-0.03-2.05,0.33-4.03,2.83-4.08c2.68-0.06,3.18,2.04,3.2,4.19
		c0.05,4.96,0.2,9.92-0.03,14.87c-0.15,3.31,0.8,4.5,4.32,4.49c33.41-0.12,66.81-0.07,100.22-0.07c0.71,0,1.42-0.02,2.12-0.02
		c1.43-0.01,2.2-0.67,2.21-2.14c0.02-1.42-0.6-2.24-2.08-2.27c-1.06-0.02-2.12-0.03-3.19-0.03c-30.57,0-61.15,0-91.72,0
		c-6.49,0-7.81-1.31-7.81-7.92c-0.02-27.98-0.02-55.95,0-83.93c0-6.18,1.6-7.76,7.75-7.76C48.54,23.36,70.15,23.36,91.75,23.36z
		 M91.46,49.82c-20.52,0-41.05,0.05-61.57-0.06c-3.23-0.02-4.31,1.04-4.29,4.28c0.11,19.58,0.1,39.16,0.01,58.74
		c-0.01,2.99,0.82,4.17,4,4.16c30.2-0.09,60.39-0.09,90.59-0.01c2.91,0.01,3.93-0.95,3.92-3.87c-0.01-5.41-0.57-10.86,0.36-16.24
		c1.12-6.48,5.73-10.37,12.29-10.45c5.31-0.06,10.63-0.21,15.92,0.05c3.48,0.17,4.81-0.79,4.71-4.5c-0.24-9.19-0.23-18.4-0.01-27.6
		c0.09-3.67-1.23-4.59-4.71-4.57C132.28,49.89,111.87,49.82,91.46,49.82z M69.78,133.54c-4.83,0-9.67,0-14.5,0
		c-12.14,0-24.29-0.01-36.43,0.02c-1.32,0-2.89-0.44-3.55,1.46c-2.51,7.13,1.54,13.02,9.04,13.02c29.83,0.01,59.66,0,89.49,0.01
		c10.34,0,10.21,0,10.31-10.18c0.03-3.44-1.12-4.42-4.48-4.39C103.03,133.61,86.4,133.54,69.78,133.54z M91.52,43.35
		c18.89,0,37.77,0.06,56.66-0.02c10.61-0.05,9,1.53,9.13-9.2c0.05-4.65-0.01-4.66-4.74-4.66c-39.19,0-78.38,0-117.57,0
		c-9.44,0-9.44,0-9.35,9.31c0.04,4.44,0.15,4.57,4.61,4.57C50.68,43.35,71.1,43.35,91.52,43.35z M91.33,170.64
		c4.95,0,9.9-0.01,14.85,0.01c1.51,0.01,2.61-0.08,1.83-2.15c-1.38-3.68-1.4-7.63-1.78-11.48c-0.21-2.07-1.02-2.91-3.09-2.9
		c-7.78,0.05-15.56,0.06-23.34-0.01c-2.11-0.02-2.85,0.82-3.03,2.89c-0.31,3.51-0.54,7.12-1.56,10.45c-0.97,3.16,0.2,3.29,2.69,3.22
		C82.37,170.55,86.85,170.64,91.33,170.64z M91.5,176.73c-9.42,0-18.85,0-28.27,0c-0.94,0-1.89,0.01-2.82,0.11
		c-1.05,0.11-1.77,0.67-1.82,1.79c-0.05,1.13,0.61,1.77,1.67,1.92c0.93,0.14,1.88,0.17,2.82,0.17c18.97,0.01,37.93,0.01,56.9,0
		c0.71,0,1.42-0.01,2.12-0.06c1.27-0.1,2.43-0.49,2.35-2.03c-0.08-1.52-1.27-1.82-2.53-1.87c-0.94-0.04-1.88-0.03-2.83-0.03
		C109.87,176.73,100.69,176.73,91.5,176.73z M124.06,162.72c-0.01,0-0.02,0-0.02,0c0-2,0.02-4-0.01-5.99
		c-0.02-0.94-0.05-2.16-1.16-2.31c-3.25-0.46-6.83-1.14-9.7,0.24c-2.22,1.07-0.41,4.07-0.27,6.19c0.11,1.63,0.37,3.26,0.73,4.85
		c0.4,1.81,1.61,3.1,3.15,4.07c1.94,1.23,4.16,1.27,6.11,0.53c1.93-0.74,0.98-2.87,1.15-4.42
		C124.15,164.85,124.06,163.78,124.06,162.72z"/>
	<path class="st1" d="M133.18,136.57c0-11.2-0.01-22.41,0-33.61c0-6.5,0.93-7.44,7.26-7.45c1.18,0,2.36,0.05,3.54,0
		c3.49-0.15,5.75,1.16,5.83,4.96c0.04,1.94,1.21,2.33,2.81,2.32c2.59-0.01,5.2-0.12,7.78,0.04c3.08,0.19,4.69-0.28,5.86-4
		c1.86-5.9,7.65-2.77,11.75-3.15c2.92-0.27,3.87,2.2,4.1,4.77c0.09,0.94,0.07,1.88,0.07,2.83c0,22.17,0.01,44.34,0,66.51
		c0,7.34-1,8.31-8.4,8.31c-10.73,0-21.46,0-32.19,0c-7.49,0-8.42-0.91-8.42-8.26C133.18,158.74,133.18,147.66,133.18,136.57z
		 M139.27,136.53c0,10.49,0.05,20.98-0.04,31.47c-0.02,2.48,0.69,3.68,3.39,3.66c9.9-0.09,19.8-0.07,29.71-0.01
		c2.35,0.01,3.42-0.86,3.42-3.32c-0.04-21.22-0.02-42.44-0.04-63.66c0-1.28,0.1-2.74-1.73-2.96c-1.81-0.21-2.06,1-2.24,2.43
		c-0.39,2.99-2.29,4.68-5.19,4.89c-5.76,0.42-11.54,0.45-17.3-0.03c-2.73-0.23-4.64-1.75-5.32-4.45c-0.38-1.53-0.42-3.12-2.66-2.91
		c-2.6,0.25-1.98,2.25-1.98,3.76C139.25,115.79,139.27,126.16,139.27,136.53z"/>
	<path class="st1" d="M76.85,19.38c-17.58,0-35.16-0.01-52.73,0.01c-6.69,0.01-8.93,2.23-8.94,8.89c-0.02,21,0.01,42-0.03,63
		c0,2.52,0.52,5.95-3.25,5.86c-3.61-0.09-2.78-3.48-2.78-5.82C9.08,70.19,9.09,49.07,9.1,27.96c0.01-9.54,5.2-14.85,14.83-15.02
		c6.37-0.11,12.74-0.03,19.11-0.03c28.43,0,56.86-0.03,85.3,0.05c2.83,0.01,7.29-1.25,7.39,3.12c0.11,4.53-4.4,3.24-7.2,3.26
		C111.3,19.43,94.08,19.38,76.85,19.38z"/>
	<path class="st1" d="M157.83,101.02c-2.07-0.09-4.78,0.3-4.8-3c-0.02-2.95,2.41-3.08,4.6-3.07c2.27,0.01,4.91-0.08,4.96,3.08
		C162.65,101.03,160.17,100.99,157.83,101.02z"/>
	<path class="st1" d="M107.46,33.93c11.8,0,23.6,0,35.4,0c1.06,0,2.14-0.03,3.18,0.13c1.44,0.22,2.33,1.11,2.43,2.62
		c0.1,1.49-0.64,2.59-2.02,2.96c-1.23,0.33-2.56,0.36-3.85,0.36c-23.6,0.02-47.2,0.03-70.8-0.01c-2.46,0-5.93,0.7-5.84-3.2
		c0.08-3.68,3.43-2.82,5.75-2.83C83.62,33.9,95.54,33.93,107.46,33.93z"/>
	<path class="st1" d="M157.79,157.48c-2.94,0-5.88,0.08-8.81-0.03c-2.05-0.07-3.81-0.86-3.74-3.29c0.06-2.26,1.84-2.95,3.69-2.98
		c6.11-0.1,12.22-0.09,18.32,0c1.88,0.03,3.6,0.87,3.61,3.08c0.01,2.19-1.67,3.06-3.56,3.14c-3.17,0.14-6.34,0.04-9.51,0.04
		C157.79,157.45,157.79,157.46,157.79,157.48z"/>
	<path class="st1" d="M157.92,145.46c-2.95,0-5.9,0.06-8.85-0.02c-2.06-0.06-3.85-0.8-3.83-3.23c0.02-2.27,1.79-3.02,3.65-3.04
		c6.13-0.08,12.27-0.05,18.4,0.07c1.91,0.04,3.6,0.93,3.54,3.15c-0.06,2.22-1.82,2.94-3.7,3.01c-3.06,0.11-6.14,0.03-9.2,0.03
		C157.92,145.44,157.92,145.45,157.92,145.46z"/>
	<path class="st1" d="M158.08,121.43c-2.94,0-5.89,0.04-8.83-0.01c-2.03-0.04-3.91-0.62-3.99-3.05c-0.08-2.55,1.81-2.98,3.87-2.98
		c6,0,12.01,0.01,18.01,0c2,0,3.64,0.67,3.67,2.89c0.03,2.19-1.62,3.05-3.56,3.11c-3.06,0.1-6.12,0.03-9.18,0.03
		C158.08,121.42,158.08,121.43,158.08,121.43z"/>
	<path class="st1" d="M157.94,133.44c-2.94,0-5.89,0.06-8.83-0.02c-2.05-0.05-3.89-0.74-3.86-3.17c0.03-2.55,2-2.85,4.02-2.85
		c5.89,0,11.77,0,17.66,0c2.1,0,3.93,0.58,3.88,3.03c-0.04,2.18-1.76,2.94-3.69,2.99C164.06,133.5,161,133.44,157.94,133.44z"/>
</g>
</svg>
