<?xml version="1.0" encoding="utf-8"?>
<!-- Generator: Adobe Illustrator 26.3.1, SVG Export Plug-In . SVG Version: 6.00 Build 0)  -->
<svg version="1.1" id="Capa_1" xmlns="http://www.w3.org/2000/svg" xmlns:xlink="http://www.w3.org/1999/xlink" x="0px" y="0px"
	 viewBox="0 0 200 200" style="enable-background:new 0 0 200 200;" xml:space="preserve">
<style type="text/css">
	.st0{fill:#FFFFFF;}
	.st1{fill:#130364;}
	.st2{fill:#C7C7C7;}
	.st3{fill:#949494;}
	.st4{opacity:0.8;fill:#130364;}
	.st5{clip-path:url(#SVGID_00000049198026677075845360000003558911763810111652_);fill:#FFFFFF;}
	.st6{clip-path:url(#SVGID_00000134950198784899374760000005122914861930601629_);fill:#FFFFFF;}
	.st7{clip-path:url(#SVGID_00000134965779276157397770000004035608343270645942_);fill:#FFFFFF;}
	.st8{opacity:0.5;fill:#8004E2;}
	.st9{fill:#8004E2;}
	.st10{opacity:0.2;}
	.st11{clip-path:url(#SVGID_00000093877607206944262440000003657662411884163981_);fill:#FFFFFF;}
	.st12{clip-path:url(#SVGID_00000000202073701550643670000009816315467628948634_);fill:#FFFFFF;}
	.st13{clip-path:url(#SVGID_00000078747785030929592210000003863372811141895066_);fill:#FFFFFF;}
	.st14{clip-path:url(#SVGID_00000020397046330018294540000011340793618928400777_);}
	.st15{fill:none;stroke:#FFFFFF;stroke-miterlimit:10;}
	.st16{clip-path:url(#SVGID_00000031901365737112532180000013704715871238759351_);}
	.st17{opacity:0.39;}
	.st18{clip-path:url(#SVGID_00000127002830634928965090000012367258445478345111_);fill:#130364;}
	.st19{opacity:0.24;}
	.st20{clip-path:url(#SVGID_00000132074201893214021460000003851849715638519440_);fill:none;stroke:#C85CE1;stroke-miterlimit:10;}
	.st21{clip-path:url(#SVGID_00000093875017336955255960000008850928435913639307_);fill:none;stroke:#C85CE1;stroke-miterlimit:10;}
	.st22{opacity:0.3;}
	.st23{fill:#F9F6F6;}
	.st24{fill:none;stroke:#FFFFFF;stroke-width:2;stroke-miterlimit:10;}
	.st25{fill:#CF5CE8;}
	.st26{clip-path:url(#SVGID_00000096750791197056370740000003894533796781464964_);fill:none;stroke:#C85CE1;stroke-miterlimit:10;}
	.st27{filter:url(#Adobe_OpacityMaskFilter);}
	
		.st28{clip-path:url(#SVGID_00000066507130762384961140000017025411245717526203_);fill:url(#SVGID_00000010992764008053661340000003079939803130327965_);}
	
		.st29{clip-path:url(#SVGID_00000072269092168535689290000004301424118494763911_);fill:url(#SVGID_00000015354434021648183610000005385617548066566313_);}
	
		.st30{clip-path:url(#SVGID_00000108297464357225340000000002543164712231302288_);fill:url(#SVGID_00000001639340360534164370000001868902720643835268_);}
	.st31{opacity:0.5;fill:#FFFFFF;}
	.st32{fill:none;stroke:#8004E2;stroke-width:2;stroke-linecap:round;stroke-miterlimit:10;}
</style>
<g>
	<path class="st1" d="M63.61,167.37c-9.64-2.58-12.03-5.35-12.92-14.82c-11.34-4.08-14.26-11.96-8.06-21.71
		C34.08,117.33,24,105.22,11.18,95.5c-4.78-3.63-4.66-4.54-0.82-9.29c10.05-12.44,20.1-24.89,30.15-37.33
		c4.08-5.05,4.39-5.09,10.01-1.52c0.81,0.51,1.67,0.97,2.43,1.56c9.98,7.76,21.45,12.09,33.72,14.54c1.35,0.27,2.81,0.16,4.19,0
		c1.06-0.12,2.11-0.48,3.11-0.89c12.25-5.06,25.12-4.58,37.99-4.53c2.45,0.01,5.17-0.86,7.32-2.09c5.32-3.03,10.42-6.45,15.55-9.81
		c2.7-1.76,4.8-1.52,6.81,1.12c9.78,12.8,19.62,25.57,29.49,38.31c1.91,2.47,1.83,4.57-0.62,6.53c-0.19,0.15-0.35,0.33-0.55,0.46
		c-13.47,8.76-21.41,21.64-26.92,36.29c-0.45,1.2-0.63,2.81-0.22,3.99c2.98,8.6-0.82,15.74-9.57,18.01c-1.02,0.26-2.23,1.6-2.5,2.66
		c-1.42,5.57-4.72,9-10.36,10.29c-0.96,0.22-2.39,1.08-2.52,1.83c-1.2,6.91-5.45,10.41-12.11,11.47c-0.22,0.04-0.42,0.23-0.62,0.35
		c-1.1,10.55-11.95,17.1-22.78,8.69c-9.93,10.02-21.6,4.61-24-5.72C68.44,178.97,65.12,176.07,63.61,167.37z M98.01,161.32
		c9.21,3.81,11.5,8.1,9.72,17.49c-0.15,0.81,0.3,2.14,0.93,2.63c2.38,1.83,4.94,1.77,7.23-0.24c2.21-1.94,2.34-5.39,0.18-7.77
		c-2.67-2.94-5.57-5.65-8.31-8.53c-1.62-1.7-2-3.68-0.21-5.43c1.8-1.76,3.74-1.27,5.41,0.39c2.39,2.37,4.73,4.79,7.12,7.17
		c3.14,3.11,6.4,3.52,8.86,1.16c2.42-2.33,2.12-5.82-0.86-8.86c-4.54-4.64-9.12-9.25-13.71-13.85c-1.86-1.86-3.28-3.93-0.99-6.19
		c2.28-2.25,4.34-0.82,6.19,1.06c4.71,4.81,9.42,9.63,14.22,14.35c2.69,2.64,6.07,2.66,8.32,0.31c2.09-2.19,1.95-5.51-0.47-8.07
		c-2.31-2.45-4.73-4.79-7.1-7.19c-5.16-5.22-10.35-10.4-15.45-15.67c-2.4-2.48-2.11-5.83,0.65-6.33c1.51-0.27,3.76,0.66,4.93,1.8
		c7.07,6.87,13.92,13.98,20.89,20.95c1.08,1.09,2.29,2.25,3.68,2.79c2.46,0.95,4.87,0.38,6.36-1.94c1.82-2.85,1.1-5.41-1.26-7.76
		c-10.92-10.86-22.15-21.42-32.53-32.77c-6.39-6.98-13.11-11.64-22.86-10.59c-0.12,0.01-0.24,0-0.36-0.03
		c-2.09-0.53-3.27,0.35-4.26,2.23c-2.23,4.25-4.68,8.4-7.08,12.56c-4.15,7.19-11.49,9.57-18.01,5.87c-6.49-3.68-8.3-11.29-4.3-18.44
		c3.81-6.82,7.7-13.59,11.54-20.39c0.56-0.99,1.02-2.03,1.55-3.09c-9.92-3.54-9.92-3.54-16.07,3.89c-0.15,0.19-0.31,0.37-0.46,0.55
		c-9.07,11.05-18.14,22.1-27.33,33.31c3.81,5.15,7.51,10.17,11.23,15.17c0.85,1.14,1.74,2.25,2.59,3.35
		c10.49-5.44,15.93-3.48,21.85,7.71c8.98-0.42,12.81,2.71,15.61,12.76C94.84,147.82,97.61,151.24,98.01,161.32z M156.51,125.52
		c3.04-6.34,5.73-12.2,8.65-17.94c1.02-2,0.87-3.33-0.55-5.1c-7.67-9.56-15.64-18.94-22.62-28.99c-4.47-6.43-9.43-9.32-17.24-8.21
		c-5.07,0.72-10.44-0.38-15.42,0.63c-7.74,1.57-15.27,4.18-22.84,6.52c-1.22,0.38-2.55,1.37-3.19,2.46
		c-4.15,7.03-8.15,14.15-12.13,21.28c-1.98,3.55-1.24,6.76,1.75,8.37c3,1.62,5.89,0.52,8.01-3.14c3-5.2,6.02-10.39,8.87-15.68
		c1.26-2.33,2.91-3.26,5.53-3.02c5.27,0.48,10.54,0.94,15.82,1.12c3.01,0.1,5.11,1.35,7.17,3.43
		C130.82,99.89,143.43,112.43,156.51,125.52z M46.29,53.3C36.22,65.77,26.32,78.03,16.32,90.42c4.37,3.76,8.45,7.26,12.75,10.95
		c10.6-12.91,21.08-25.68,31.84-38.77C55.92,59.42,51.21,56.42,46.29,53.3z M142.47,62.65c9.69,12.31,19.14,24.32,28.7,36.48
		c4.48-3.86,8.55-7.36,12.75-10.97c-9-11.68-17.84-23.15-26.81-34.8C152.08,56.55,147.36,59.55,142.47,62.65z M62.9,160.01
		c1.42-0.37,2.33-0.32,2.78-0.76c3.92-3.83,8.03-7.54,11.43-11.8c0.81-1.02-0.29-4.44-1.5-5.96c-1.63-2.05-4.53-2.05-6.53-0.28
		c-3.5,3.1-6.93,6.36-9.85,9.99c-0.97,1.21-0.87,4.01-0.18,5.62C59.68,158.29,61.78,159.14,62.9,160.01z M76.08,173.14
		c1.52-0.49,2.53-0.52,3.07-1.04c3.63-3.49,7.4-6.88,10.65-10.71c1.83-2.15,1.12-4.88-1.03-6.8c-2.03-1.82-4.64-2.1-6.62-0.38
		c-3.61,3.15-7.09,6.53-10.08,10.25c-0.95,1.18-0.73,4.03,0.02,5.62C72.78,171.53,74.9,172.3,76.08,173.14z M50.88,144.91
		c5.12,0.11,11.77-6.52,11.12-10.26c-0.28-1.64-1.61-3.78-3.01-4.36c-1.57-0.65-4.1-0.35-5.62,0.55c-2.1,1.24-4.03,3.19-5.27,5.29
		c-0.9,1.51-1.22,3.99-0.61,5.59C48.08,143.3,50.17,144.3,50.88,144.91z M101.24,174.03c-0.12-4.06-4.63-6.83-7.99-4.56
		c-2.53,1.71-4.86,3.99-6.61,6.49c-2.42,3.48,0.43,8.13,4.67,8.16C94.89,184.15,101.35,177.59,101.24,174.03z"/>
	<path class="st1" d="M80.82,51.71c-1.35-0.79-2.52-1.2-3.32-1.99c-7.94-7.84-15.8-15.76-23.71-23.64
		c-1.78-1.78-2.37-3.76-0.49-5.66c1.94-1.96,3.9-1.18,5.64,0.57c7.89,7.89,15.84,15.73,23.59,23.75c0.94,0.97,1.26,3,1.06,4.42
		C83.48,50.08,81.89,50.8,80.82,51.71z"/>
	<path class="st1" d="M120.34,51.25c-3.62-0.09-5.24-3.02-3.66-5.44c0.77-1.19,1.9-2.15,2.91-3.17
		c7.03-7.05,14.09-14.08,21.12-21.14c1.84-1.85,3.85-3.38,6.15-1.07c2.22,2.24,0.93,4.3-0.97,6.18
		c-7.58,7.52-15.09,15.11-22.69,22.62C122.24,50.19,120.95,50.83,120.34,51.25z"/>
	<path class="st1" d="M103.7,37.58c0,3.24,0.03,6.49-0.01,9.73c-0.03,2.42-1.35,4.26-3.7,3.74c-1.38-0.31-3.29-2.32-3.36-3.65
		c-0.35-6.59-0.18-13.21-0.15-19.81c0.01-2.42,1.41-4.26,3.69-3.79c1.37,0.28,3.14,2.28,3.36,3.72
		C104.04,30.8,103.7,34.21,103.7,37.58z"/>
	<path class="st1" d="M100.86,8.54c0.94,1.39,2.75,2.91,2.58,4.15c-0.18,1.33-2.12,3.12-3.51,3.34c-0.95,0.15-3.12-1.99-3.19-3.21
		c-0.08-1.37,1.57-2.84,2.47-4.27C99.75,8.55,100.31,8.54,100.86,8.54z"/>
</g>
</svg>
