<?xml version="1.0" encoding="utf-8"?>
<!-- Generator: Adobe Illustrator 26.3.1, SVG Export Plug-In . SVG Version: 6.00 Build 0)  -->
<svg version="1.1" id="Capa_1" xmlns="http://www.w3.org/2000/svg" xmlns:xlink="http://www.w3.org/1999/xlink" x="0px" y="0px"
	 viewBox="0 0 200 200" style="enable-background:new 0 0 200 200;" xml:space="preserve">
<style type="text/css">
	.st0{fill:#FFFFFF;}
	.st1{fill:#130364;}
	.st2{fill:#C7C7C7;}
	.st3{fill:#949494;}
	.st4{opacity:0.8;fill:#130364;}
	.st5{clip-path:url(#SVGID_00000011747348119612002100000004788317765410569858_);fill:#FFFFFF;}
	.st6{clip-path:url(#SVGID_00000084503781671726072210000005885718905968960898_);fill:#FFFFFF;}
	.st7{clip-path:url(#SVGID_00000038410874995773555640000011504368428562056576_);fill:#FFFFFF;}
	.st8{opacity:0.5;fill:#8004E2;}
	.st9{fill:#8004E2;}
	.st10{opacity:0.2;}
	.st11{clip-path:url(#SVGID_00000049905949119744069220000015125204212900569232_);fill:#FFFFFF;}
	.st12{clip-path:url(#SVGID_00000070811130600104759900000004219777053555980432_);fill:#FFFFFF;}
	.st13{clip-path:url(#SVGID_00000026145127633983899510000015151433980981446075_);fill:#FFFFFF;}
	.st14{clip-path:url(#SVGID_00000057846098517889405760000002074905041381371279_);}
	.st15{fill:none;stroke:#FFFFFF;stroke-miterlimit:10;}
	.st16{clip-path:url(#SVGID_00000142867366957412028880000006604620258349731200_);}
	.st17{opacity:0.39;}
	.st18{clip-path:url(#SVGID_00000156570948464250654810000010472972359605833617_);fill:#130364;}
	.st19{opacity:0.24;}
	.st20{clip-path:url(#SVGID_00000031898233289706160830000000663128909773816763_);fill:none;stroke:#C85CE1;stroke-miterlimit:10;}
	.st21{clip-path:url(#SVGID_00000092454508430462484610000002427075803956193180_);fill:none;stroke:#C85CE1;stroke-miterlimit:10;}
	.st22{opacity:0.3;}
	.st23{fill:#F9F6F6;}
	.st24{fill:none;stroke:#FFFFFF;stroke-width:2;stroke-miterlimit:10;}
	.st25{fill:#CF5CE8;}
	.st26{clip-path:url(#SVGID_00000149362234433705592130000013337182252117723014_);fill:none;stroke:#C85CE1;stroke-miterlimit:10;}
	.st27{filter:url(#Adobe_OpacityMaskFilter);}
	
		.st28{clip-path:url(#SVGID_00000039838311114021954280000017918275713455844242_);fill:url(#SVGID_00000124871774076284272070000006085310053037619870_);}
	
		.st29{clip-path:url(#SVGID_00000143601928655236115680000009050984728289838249_);fill:url(#SVGID_00000179625800495999882420000007319673142638684058_);}
	
		.st30{clip-path:url(#SVGID_00000010288284983448514390000008362103847574524551_);fill:url(#SVGID_00000054225588328326556350000004437685349635859353_);}
	.st31{opacity:0.5;fill:#FFFFFF;}
	.st32{fill:none;stroke:#8004E2;stroke-width:2;stroke-linecap:round;stroke-miterlimit:10;}
</style>
<g>
	<g>
		<path class="st1" d="M28.95,133.21c-10.42-3.98-16.68-11.23-18.54-22.1c-0.94-5.49,0.13-6.72,5.67-6.73c5.78-0.01,11.57,0,17.29,0
			c-1.97-4.1-3.76-7.84-5.74-11.96c-3.95,0-8.39,0.03-12.82-0.01c-4.01-0.03-4.61-0.66-4.64-4.77c-0.02-4.21-0.03-8.42,0-12.63
			c0.12-14.45,9.58-25.34,23.93-27.51c5.55-0.84,11.16-1.32,16.65-2.41c2.52-0.5,5.05-1.75,7.18-3.24
			c17.71-12.4,37.34-18.58,58.93-18.22c14.09,0.23,27.76,3.08,40.16,9.81c8.85,4.81,18.2,7.74,27.74,10.41
			c5.09,1.42,5.09,1.44,5.09,6.68c0,7.37,0.11,14.74-0.08,22.1c-0.04,1.71-0.73,3.65-1.73,5.05c-2.72,3.8-5.78,7.35-8.69,11.01
			c-2.84,3.56-2.83,3.56-7.03,3.89c-1.82,3.79-3.62,7.53-5.56,11.56c0.65,0.06,1.59,0.23,2.53,0.23c5.38,0.03,10.76-0.03,16.14,0.03
			c3.61,0.04,4.61,1.12,4.37,4.71c-0.49,7.31-3.63,13.42-9.75,19.29c2.69,0,4.44-0.03,6.2,0.01c2.41,0.05,3.62,1.26,3.61,3.73
			c-0.02,13.45-0.02,26.9,0,40.34c0.01,2.9-1.59,3.89-4.23,3.88c-6.2-0.02-12.4,0-18.6,0c-26.67,0-53.34-0.04-80.01,0.03
			c-7.76,0.02-15.01-1.61-21.93-5.18c-10.07-5.19-20.26-10.15-30.39-15.21C24.28,150.79,22.22,142.94,28.95,133.21z M144.92,170.24
			c0-12.18,0.06-23.85-0.11-35.52c-0.01-0.93-1.43-2.25-2.49-2.7c-11.28-4.78-22.46-4.43-33.59,0.74c-2.03,0.94-4.41,1.47-6.65,1.54
			c-6.42,0.2-12.86,0.03-19.29,0.09c-4.13,0.04-6.71,2.44-6.68,6.03c0.03,3.6,2.57,5.81,6.8,5.89c1.75,0.03,3.51,0.01,5.26,0.01
			c5.61,0,11.22,0.02,16.84-0.01c2.15-0.01,3.89,0.72,3.9,3.03c0.01,2.33-1.8,3.05-3.9,3.06c-0.7,0-1.4,0.01-2.1,0.01
			c-7.95,0-15.9,0.11-23.85-0.07c-2.26-0.05-4.66-0.55-6.72-1.46c-10.14-4.48-20.17-9.23-30.31-13.73
			c-1.72-0.76-3.86-1.26-5.67-0.99c-2.89,0.42-4.65,2.54-5.12,5.51c-0.57,3.63,0.76,6.22,4.28,8c11.05,5.57,22.15,11.04,33.2,16.62
			c5.32,2.69,10.88,4.02,16.86,3.99c14.61-0.09,29.23-0.03,43.84-0.03C134.45,170.24,139.46,170.24,144.92,170.24z M183.38,110.65
			c-55.72,0-111.2,0-166.7,0c1.22,10.42,9.89,17.66,21.46,17.7c21.27,0.08,42.55,0,63.82-0.09c1.56-0.01,3.23-0.46,4.67-1.11
			c13.23-5.99,26.42-6.02,39.64,0.02c1.15,0.52,2.4,1.14,3.61,1.15c5.37,0.04,10.78,0.21,16.11-0.29
			C174.86,127.18,182.09,119.79,183.38,110.65z M70.22,86.32c12.82,0,25.63,0,38.58,0c0-11.94,0-23.67,0-35.71
			c-9.93,0-19.63,0.15-29.31-0.04c-15.22-0.3-30.37,0.17-45.38,3.04c-4.06,0.78-7.73,2.19-11.35,5.75c3.18,0,5.58-0.13,7.97,0.03
			c3.16,0.22,4.29,2.5,2.54,5.12c-1.56,2.33-3.51,4.4-4.98,6.78c-2.62,4.25-5.76,7.31-11.26,6.32c-0.16-0.03-0.37,0.24-0.55,0.36
			c0,2.75,0,5.49,0,8.4c4.07,0,7.88,0,11.63,0C31.92,74.7,38.71,68.8,48.51,68.48C58.46,68.16,65.02,73.56,70.22,86.32z
			 M129.79,86.41c4.67-12.2,10.71-17.81,20.35-17.84c11.98-0.04,18.83,6.78,22.2,19.26c4.02-5.03,8.14-8.96,10.62-13.74
			c1.59-3.06,0.78-7.38,1.08-11.54c-4.41,0-8.1,0-11.97,0c0-2.17,0-3.96,0-6.19c4.02,0,7.79,0,11.51,0
			c0.58-6.45,0.59-6.46-4.99-8.06c-3.7-1.06-7.58-1.71-11.08-3.24c-3.62-1.58-6.41-0.92-9.22,1.43c-4.16,3.48-8.95,4.42-14.34,4.2
			c-8.29-0.34-16.61-0.1-24.91-0.08c-1.25,0-2.49,0.1-3.82,0.16c0,12.06,0,23.78,0,35.63C120.28,86.41,125.06,86.41,129.79,86.41z
			 M151.16,170.05c10.9,0,21.58,0,32.46,0c0-11.9,0-23.61,0-35.49c-10.89,0-21.57,0-32.46,0C151.16,146.37,151.16,158,151.16,170.05
			z M129.48,92.52c-19.55,0-39.4,0-58.93,0c-1.95,4.02-3.8,7.82-5.61,11.55c23.38,0,46.86,0,70.1,0
			C133.17,100.18,131.38,96.45,129.48,92.52z M156.97,39.93c-13.31-6.69-27.01-10.37-41.76-10.17c0,5.2,0,9.91,0,14.8
			c10.29,0,20.32-0.23,30.33,0.1C150.21,44.81,153.44,42.69,156.97,39.93z M48.95,104.35c8.29,0.07,15.04-6.49,15.14-14.73
			c0.1-8.2-6.59-14.97-14.84-15.02c-8.3-0.06-15.04,6.5-15.14,14.72C34.02,97.52,40.7,104.28,48.95,104.35z M151.07,74.6
			c-8.3-0.06-15.04,6.49-15.14,14.72c-0.1,8.19,6.59,14.97,14.84,15.03c8.29,0.06,15.05-6.51,15.14-14.73
			C166,81.42,159.33,74.66,151.07,74.6z M108.84,29.84c-15.65,1.11-29.87,5.68-43.6,14.42c15.15,0,29.39,0,43.6,0
			C108.84,39.34,108.84,34.72,108.84,29.84z M52.37,134.52c-0.04,0.21-0.07,0.43-0.11,0.64c5.85,2.67,11.7,5.33,17.47,7.96
			c0.46-3.12,0.87-5.82,1.28-8.6C64.81,134.52,58.59,134.52,52.37,134.52z M24.59,65.91c-6.44-1.17-7.68-0.28-7.67,5.23
			C21.65,72.54,22.49,68.53,24.59,65.91z"/>
		<path class="st1" d="M91.17,56.67c0.88-0.06,1.55-0.15,2.23-0.16c3.01-0.02,6.02-0.01,9.29-0.01c0,2.01,0,3.8,0,5.84
			c-3.78,0-7.55,0-11.52,0C91.17,60.49,91.17,58.79,91.17,56.67z"/>
		<path class="st1" d="M157.14,158.45c1.95,0,3.66,0,5.59,0c0,1.96,0,3.75,0,5.74c-1.92,0-3.62,0-5.59,0
			C157.14,162.35,157.14,160.55,157.14,158.45z"/>
		<path class="st1" d="M40.2,89.5c-0.01-4.95,3.89-8.97,8.79-9.05c5.01-0.08,9.08,4.06,9.02,9.17c-0.06,4.92-4.08,8.91-8.96,8.87
			C44.16,98.45,40.21,94.44,40.2,89.5z M53.25,89.69c-1.81-1.43-2.98-3.03-3.88-2.89c-1.19,0.18-2.17,1.73-3.24,2.69
			c0.96,0.95,1.85,2.54,2.92,2.68C50.08,92.29,51.29,90.92,53.25,89.69z"/>
		<path class="st1" d="M159.82,89.34c0.06,4.96-3.78,9-8.69,9.14c-4.86,0.14-8.99-3.81-9.12-8.71c-0.13-5.12,3.84-9.3,8.86-9.33
			C155.75,80.42,159.77,84.42,159.82,89.34z M155.09,89.31c-1.95-1.26-3.15-2.65-4.18-2.53c-1.07,0.12-1.97,1.71-2.94,2.65
			c1.06,0.97,2.02,2.53,3.2,2.72C152.07,92.29,153.26,90.71,155.09,89.31z"/>
	</g>
</g>
</svg>
